{"glyphs":{"0":{"ha":928,"x_min":75,"x_max":853,"o":"m 464 -14 q 292 15 364 -14 q 174 94 221 43 q 105 212 128 144 q 78 356 82 279 q 76 440 76 393 q 76 533 75 486 q 78 619 76 581 q 105 763 81 696 q 176 879 129 829 q 295 958 224 929 q 464 986 367 986 q 632 958 561 986 q 750 879 703 929 q 822 763 797 829 q 850 619 846 696 q 852 533 851 581 q 852 440 853 486 q 850 356 851 393 q 822 212 846 279 q 752 94 799 144 q 634 15 706 43 q 464 -14 563 -14 m 464 167 q 582 219 544 167 q 622 363 619 272 q 624 446 624 403 q 624 532 625 489 q 622 613 624 575 q 582 753 619 699 q 464 808 544 807 q 345 753 382 807 q 306 613 308 699 q 303 532 304 575 q 303 446 303 489 q 306 363 304 403 q 346 219 308 272 q 464 167 383 167 z "},"1":{"ha":665,"x_min":24,"x_max":571,"o":"m 385 0 q 360 10 371 0 q 350 35 350 19 l 350 725 l 150 571 q 124 564 138 561 q 101 579 111 567 l 32 669 q 26 696 24 682 q 40 718 28 710 l 357 963 q 373 970 365 968 q 390 972 381 972 l 538 972 q 561 963 551 972 q 571 938 571 953 l 571 35 q 561 10 571 19 q 538 0 551 0 l 385 0 z "},"2":{"ha":881,"x_min":60,"x_max":817,"o":"m 94 0 q 69 10 79 0 q 60 35 60 19 l 60 118 q 66 148 60 129 q 94 185 72 167 l 278 367 q 442 499 379 444 q 536 597 506 553 q 567 683 567 642 q 537 773 567 738 q 440 808 507 808 q 366 790 396 808 q 319 740 336 771 q 297 674 303 710 q 280 649 293 656 q 253 642 267 642 l 106 642 q 83 651 92 642 q 75 671 75 660 q 102 792 76 735 q 175 893 128 849 q 289 963 222 938 q 440 989 356 989 q 636 951 557 989 q 756 846 715 913 q 796 692 796 779 q 769 568 796 625 q 690 459 742 511 q 568 351 639 407 l 404 188 l 782 188 q 807 178 797 188 q 817 153 817 168 l 817 35 q 807 10 817 19 q 782 0 797 0 l 94 0 z "},"3":{"ha":894,"x_min":49,"x_max":836,"o":"m 442 -14 q 265 11 339 -14 q 144 75 192 36 q 74 160 97 114 q 49 250 50 207 q 57 271 49 263 q 78 279 65 279 l 231 279 q 256 273 246 279 q 274 251 265 267 q 310 200 285 219 q 369 173 335 181 q 442 165 403 165 q 564 201 519 165 q 608 303 608 238 q 567 399 608 369 q 449 428 525 428 l 300 428 q 276 438 286 428 q 267 461 267 447 l 267 529 q 273 557 267 546 q 286 574 279 568 l 525 793 l 133 793 q 108 803 118 793 q 99 826 99 813 l 99 938 q 108 963 99 953 q 133 972 118 972 l 750 972 q 775 963 765 972 q 785 938 785 953 l 785 838 q 779 812 785 822 q 765 796 774 801 l 539 572 l 553 571 q 699 531 635 563 q 799 440 763 499 q 836 290 836 381 q 785 128 836 196 q 644 23 733 60 q 442 -14 556 -14 z "},"4":{"ha":926,"x_min":40,"x_max":882,"o":"m 544 0 q 521 10 531 0 q 511 35 511 19 l 511 201 l 74 201 q 50 211 60 201 q 40 236 40 221 l 40 349 q 44 369 40 358 q 56 390 49 381 l 463 949 q 514 972 481 972 l 690 972 q 714 963 704 972 q 724 938 724 953 l 724 386 l 847 386 q 873 376 864 386 q 882 353 882 367 l 882 236 q 872 211 882 221 q 849 201 863 201 l 724 201 l 724 35 q 714 10 724 19 q 690 0 704 0 l 544 0 m 256 379 l 515 379 l 515 744 l 256 379 z "},"5":{"ha":878,"x_min":50,"x_max":825,"o":"m 435 -15 q 225 25 310 -15 q 97 131 140 65 q 50 269 53 196 q 58 290 50 282 q 79 299 67 299 l 236 299 q 263 291 253 299 q 279 271 274 283 q 316 210 293 233 q 369 175 339 186 q 435 164 400 164 q 517 183 479 164 q 576 238 554 201 q 599 326 599 274 q 578 407 599 372 q 519 461 557 442 q 435 481 482 481 q 376 472 399 481 q 338 452 353 464 q 310 431 322 440 q 282 422 297 422 l 128 422 q 106 431 115 422 q 97 453 97 440 l 146 932 q 160 962 149 951 q 189 972 172 972 l 728 972 q 753 963 743 972 q 763 938 763 953 l 763 826 q 753 803 763 813 q 728 793 743 793 l 326 793 l 306 589 q 374 622 333 607 q 489 636 415 636 q 616 615 556 636 q 724 551 676 593 q 798 452 771 510 q 825 321 825 394 q 778 145 825 221 q 643 27 731 69 q 435 -15 556 -15 z "},"6":{"ha":886,"x_min":51,"x_max":844,"o":"m 451 -14 q 240 31 329 -14 q 101 153 150 75 q 51 331 51 232 q 64 414 51 372 q 94 492 76 456 q 131 558 113 529 q 163 606 150 588 l 413 944 q 431 962 419 951 q 461 972 442 972 l 617 972 q 638 963 629 972 q 646 942 646 954 q 644 931 646 936 q 640 924 643 926 l 449 661 q 474 665 460 664 q 500 667 489 667 q 628 639 567 664 q 739 570 690 614 q 816 467 788 526 q 844 333 844 407 q 797 161 844 240 q 660 34 749 82 q 451 -14 572 -14 m 449 165 q 533 184 494 165 q 596 240 572 203 q 619 331 619 278 q 596 422 619 385 q 533 477 572 458 q 449 496 494 496 q 364 477 403 496 q 301 422 325 458 q 278 331 278 385 q 302 240 278 278 q 365 184 326 203 q 449 165 403 165 z "},"7":{"ha":775,"x_min":39,"x_max":738,"o":"m 199 0 q 178 9 186 0 q 169 31 169 18 q 172 43 169 36 l 500 786 l 74 786 q 49 796 60 786 q 39 819 39 806 l 39 938 q 49 963 39 953 q 74 972 60 972 l 703 972 q 728 963 719 972 q 738 938 738 953 l 738 833 q 734 799 738 813 q 724 772 731 786 l 397 33 q 383 13 393 25 q 350 0 372 0 l 199 0 z "},"8":{"ha":925,"x_min":67,"x_max":858,"o":"m 463 -14 q 291 9 365 -14 q 167 73 217 32 q 92 169 117 114 q 67 289 67 224 q 106 426 67 368 q 204 517 144 485 q 128 598 156 549 q 101 713 101 647 q 142 853 101 792 q 262 950 182 914 q 463 986 342 986 q 661 951 582 986 q 781 854 740 915 q 821 714 821 793 q 794 599 821 649 q 719 517 768 549 q 821 426 783 486 q 858 288 858 367 q 814 133 858 201 q 681 26 769 65 q 463 -14 592 -14 m 463 146 q 551 163 511 146 q 615 213 592 181 q 638 288 638 244 q 615 363 638 332 q 551 412 592 394 q 463 429 511 429 q 373 412 413 429 q 310 363 333 394 q 286 288 286 332 q 310 213 286 244 q 373 163 333 181 q 463 146 413 146 m 463 581 q 540 597 506 582 q 596 640 575 613 q 617 703 617 667 q 597 767 617 740 q 542 810 576 794 q 463 825 507 825 q 383 810 418 825 q 328 767 347 794 q 308 703 308 740 q 328 638 308 665 q 383 596 347 611 q 463 581 418 581 z "},"9":{"ha":874,"x_min":43,"x_max":821,"o":"m 249 0 q 228 9 236 0 q 219 31 219 18 q 222 42 219 38 q 225 49 224 46 l 426 324 q 376 319 401 318 q 250 347 310 322 q 143 414 190 371 q 69 515 96 457 q 43 644 43 574 q 67 769 43 708 q 140 879 92 831 q 261 957 189 928 q 429 986 333 986 q 598 960 525 986 q 721 887 671 933 q 796 780 771 840 q 821 651 821 719 q 800 538 821 590 q 749 439 779 485 q 688 350 718 393 l 454 28 q 438 10 449 21 q 406 0 426 0 l 249 0 m 431 483 q 514 503 476 483 q 573 558 551 522 q 594 644 594 594 q 573 732 594 696 q 514 788 551 768 q 431 807 476 807 q 349 788 386 807 q 290 732 311 768 q 268 644 268 696 q 290 558 268 594 q 349 503 311 522 q 431 483 386 483 z "},"A":{"ha":978,"x_min":17,"x_max":961,"o":"m 46 0 q 25 9 33 0 q 17 29 17 18 q 18 42 17 36 l 349 935 q 365 961 353 950 q 400 972 378 972 l 578 972 q 613 961 600 972 q 629 935 625 950 l 960 42 q 961 29 961 36 q 953 9 961 18 q 932 0 944 0 l 788 0 q 757 10 767 0 q 744 28 747 19 l 685 183 l 293 183 l 233 28 q 221 10 231 19 q 190 0 211 0 l 46 0 m 344 363 l 632 363 l 489 763 l 344 363 z "},"Á":{"ha":978,"x_min":17,"x_max":961,"o":"m 46 0 q 25 9 33 0 q 17 29 17 18 q 18 42 17 36 l 349 935 q 365 961 353 950 q 400 972 378 972 l 578 972 q 613 961 600 972 q 629 935 625 950 l 960 42 q 961 29 961 36 q 953 9 961 18 q 932 0 944 0 l 788 0 q 757 10 767 0 q 744 28 747 19 l 685 183 l 293 183 l 233 28 q 221 10 231 19 q 190 0 211 0 l 46 0 m 344 363 l 632 363 l 489 763 l 344 363 m 415 1042 q 393 1064 393 1042 q 400 1082 393 1075 l 518 1225 q 541 1247 531 1242 q 569 1251 551 1251 l 740 1251 q 767 1224 767 1251 q 760 1207 767 1214 l 581 1061 q 558 1047 569 1051 q 529 1042 547 1042 l 415 1042 z "},"Ă":{"ha":978,"x_min":17,"x_max":961,"o":"m 46 0 q 25 9 33 0 q 17 29 17 18 q 18 42 17 36 l 349 935 q 365 961 353 950 q 400 972 378 972 l 578 972 q 613 961 600 972 q 629 935 625 950 l 960 42 q 961 29 961 36 q 953 9 961 18 q 932 0 944 0 l 788 0 q 757 10 767 0 q 744 28 747 19 l 685 183 l 293 183 l 233 28 q 221 10 231 19 q 190 0 211 0 l 46 0 m 344 363 l 632 363 l 489 763 l 344 363 m 490 1032 q 372 1058 417 1032 q 306 1126 326 1083 q 286 1221 286 1169 q 293 1240 286 1232 q 313 1247 300 1247 l 393 1247 q 413 1240 406 1247 q 419 1221 419 1232 q 433 1163 419 1189 q 490 1138 447 1138 q 546 1163 532 1138 q 560 1221 560 1189 q 567 1240 560 1232 q 586 1247 574 1247 l 667 1247 q 686 1240 679 1247 q 693 1221 693 1232 q 673 1126 693 1169 q 608 1058 653 1083 q 490 1032 564 1032 z "},"Â":{"ha":978,"x_min":17,"x_max":961,"o":"m 46 0 q 25 9 33 0 q 17 29 17 18 q 18 42 17 36 l 349 935 q 365 961 353 950 q 400 972 378 972 l 578 972 q 613 961 600 972 q 629 935 625 950 l 960 42 q 961 29 961 36 q 953 9 961 18 q 932 0 944 0 l 788 0 q 757 10 767 0 q 744 28 747 19 l 685 183 l 293 183 l 233 28 q 221 10 231 19 q 190 0 211 0 l 46 0 m 344 363 l 632 363 l 489 763 l 344 363 m 263 1042 q 242 1061 242 1042 q 253 1083 242 1072 l 392 1228 q 417 1247 407 1243 q 440 1251 428 1251 l 539 1251 q 563 1247 553 1251 q 588 1228 574 1243 l 725 1083 q 738 1061 738 1072 q 717 1042 738 1042 l 654 1042 q 631 1044 643 1042 q 610 1051 619 1046 l 489 1122 l 369 1051 q 348 1044 360 1046 q 325 1042 336 1042 l 263 1042 z "},"Ä":{"ha":978,"x_min":17,"x_max":961,"o":"m 46 0 q 25 9 33 0 q 17 29 17 18 q 18 42 17 36 l 349 935 q 365 961 353 950 q 400 972 378 972 l 578 972 q 613 961 600 972 q 629 935 625 950 l 960 42 q 961 29 961 36 q 953 9 961 18 q 932 0 944 0 l 788 0 q 757 10 767 0 q 744 28 747 19 l 685 183 l 293 183 l 233 28 q 221 10 231 19 q 190 0 211 0 l 46 0 m 344 363 l 632 363 l 489 763 l 344 363 m 589 1042 q 567 1050 575 1042 q 558 1074 558 1058 l 558 1188 q 567 1210 558 1201 q 589 1219 575 1219 l 703 1219 q 726 1210 717 1219 q 735 1188 735 1201 l 735 1074 q 726 1050 735 1058 q 703 1042 717 1042 l 589 1042 m 274 1042 q 251 1050 260 1042 q 243 1074 243 1058 l 243 1188 q 251 1210 243 1201 q 274 1219 260 1219 l 388 1219 q 410 1210 401 1219 q 419 1188 419 1201 l 419 1074 q 410 1050 419 1058 q 388 1042 401 1042 l 274 1042 z "},"À":{"ha":978,"x_min":17,"x_max":961,"o":"m 46 0 q 25 9 33 0 q 17 29 17 18 q 18 42 17 36 l 349 935 q 365 961 353 950 q 400 972 378 972 l 578 972 q 613 961 600 972 q 629 935 625 950 l 960 42 q 961 29 961 36 q 953 9 961 18 q 932 0 944 0 l 788 0 q 757 10 767 0 q 744 28 747 19 l 685 183 l 293 183 l 233 28 q 221 10 231 19 q 190 0 211 0 l 46 0 m 344 363 l 632 363 l 489 763 l 344 363 m 454 1042 q 425 1047 436 1042 q 403 1061 414 1051 l 225 1207 q 218 1224 218 1214 q 244 1251 218 1251 l 415 1251 q 443 1247 433 1251 q 467 1225 453 1242 l 585 1082 q 592 1064 592 1075 q 569 1042 592 1042 l 454 1042 z "},"Ā":{"ha":978,"x_min":17,"x_max":961,"o":"m 46 0 q 25 9 33 0 q 17 29 17 18 q 18 42 17 36 l 349 935 q 365 961 353 950 q 400 972 378 972 l 578 972 q 613 961 600 972 q 629 935 625 950 l 960 42 q 961 29 961 36 q 953 9 961 18 q 932 0 944 0 l 788 0 q 757 10 767 0 q 744 28 747 19 l 685 183 l 293 183 l 233 28 q 221 10 231 19 q 190 0 211 0 l 46 0 m 344 363 l 632 363 l 489 763 l 344 363 m 286 1042 q 264 1050 272 1042 q 256 1074 256 1058 l 256 1163 q 264 1185 256 1176 q 286 1193 272 1193 l 689 1193 q 713 1185 704 1193 q 721 1163 721 1176 l 721 1074 q 713 1050 721 1058 q 689 1042 704 1042 l 286 1042 z "},"Ą":{"ha":978,"x_min":17,"x_max":961,"o":"m 889 -306 q 772 -278 819 -306 q 701 -201 725 -250 q 678 -90 678 -153 q 698 -8 678 -42 q 753 38 718 25 q 738 47 743 40 q 732 61 733 54 l 685 183 l 293 183 l 233 28 q 221 10 231 19 q 190 0 211 0 l 46 0 q 25 9 33 0 q 17 29 17 18 q 18 42 17 36 l 349 935 q 365 961 353 950 q 400 972 378 972 l 578 972 q 613 961 600 972 q 629 935 625 950 l 960 42 q 961 29 961 36 q 953 9 961 18 q 932 0 944 0 l 890 0 q 828 -28 850 -1 q 807 -90 807 -54 q 829 -154 807 -128 q 894 -181 851 -181 l 913 -181 q 936 -190 926 -181 q 946 -214 946 -200 l 946 -271 q 936 -296 946 -286 q 913 -306 926 -306 l 889 -306 m 344 363 l 632 363 l 489 763 l 344 363 z "},"Å":{"ha":978,"x_min":17,"x_max":961,"o":"m 46 0 q 25 9 33 0 q 17 29 17 18 q 18 42 17 36 l 349 935 q 365 961 353 950 q 400 972 378 972 l 578 972 q 613 961 600 972 q 629 935 625 950 l 960 42 q 961 29 961 36 q 953 9 961 18 q 932 0 944 0 l 788 0 q 757 10 767 0 q 744 28 747 19 l 685 183 l 293 183 l 233 28 q 221 10 231 19 q 190 0 211 0 l 46 0 m 344 363 l 632 363 l 489 763 l 344 363 m 489 1028 q 401 1061 438 1028 q 364 1146 364 1094 q 401 1231 364 1197 q 489 1265 438 1265 q 577 1231 540 1265 q 614 1146 614 1197 q 577 1061 614 1094 q 489 1028 540 1028 m 489 1104 q 519 1116 507 1104 q 531 1146 531 1128 q 519 1176 531 1164 q 489 1188 507 1188 q 459 1176 471 1188 q 447 1146 447 1164 q 459 1116 447 1128 q 489 1104 471 1104 z "},"Ã":{"ha":978,"x_min":17,"x_max":961,"o":"m 46 0 q 25 9 33 0 q 17 29 17 18 q 18 42 17 36 l 349 935 q 365 961 353 950 q 400 972 378 972 l 578 972 q 613 961 600 972 q 629 935 625 950 l 960 42 q 961 29 961 36 q 953 9 961 18 q 932 0 944 0 l 788 0 q 757 10 767 0 q 744 28 747 19 l 685 183 l 293 183 l 233 28 q 221 10 231 19 q 190 0 211 0 l 46 0 m 344 363 l 632 363 l 489 763 l 344 363 m 569 1035 q 508 1047 533 1035 q 464 1072 483 1060 q 421 1083 444 1083 q 394 1074 403 1083 q 379 1053 386 1064 q 357 1042 372 1042 l 283 1042 q 267 1049 274 1042 q 260 1065 260 1057 q 267 1115 260 1088 q 293 1169 275 1143 q 339 1213 311 1196 q 407 1231 367 1231 q 469 1218 444 1231 q 513 1193 493 1206 q 557 1181 533 1181 q 583 1192 575 1181 q 597 1213 590 1203 q 619 1224 604 1224 l 693 1224 q 712 1216 706 1224 q 718 1199 718 1208 q 710 1150 718 1178 q 683 1096 701 1122 q 638 1052 665 1069 q 569 1035 610 1035 z "},"Æ":{"ha":1339,"x_min":6,"x_max":1275,"o":"m 36 0 q 15 9 24 0 q 6 29 6 18 q 10 43 6 36 q 38 123 24 82 q 73 214 53 164 q 122 329 93 264 q 192 481 151 394 q 288 679 232 567 q 417 936 343 792 q 435 962 422 951 q 465 972 447 972 l 1229 972 q 1254 963 1244 972 q 1264 938 1264 953 l 1264 826 q 1254 803 1264 813 q 1229 793 1244 793 l 800 793 l 800 575 l 1199 575 q 1224 565 1214 575 q 1233 540 1233 556 l 1233 438 q 1224 414 1233 424 q 1199 404 1214 404 l 800 404 l 800 179 l 1240 179 q 1265 169 1256 179 q 1275 144 1275 160 l 1275 35 q 1265 10 1275 19 q 1240 0 1256 0 l 621 0 q 597 10 607 0 q 588 35 588 19 l 588 183 l 303 183 q 265 109 279 138 q 242 65 250 81 q 231 42 235 50 q 225 28 228 33 q 211 9 221 18 q 183 0 201 0 l 36 0 m 363 363 l 588 363 l 588 788 l 564 788 l 363 363 z "},"Ǽ":{"ha":1339,"x_min":6,"x_max":1275,"o":"m 36 0 q 15 9 24 0 q 6 29 6 18 q 10 43 6 36 q 38 123 24 82 q 73 214 53 164 q 122 329 93 264 q 192 481 151 394 q 288 679 232 567 q 417 936 343 792 q 435 962 422 951 q 465 972 447 972 l 1229 972 q 1254 963 1244 972 q 1264 938 1264 953 l 1264 826 q 1254 803 1264 813 q 1229 793 1244 793 l 800 793 l 800 575 l 1199 575 q 1224 565 1214 575 q 1233 540 1233 556 l 1233 438 q 1224 414 1233 424 q 1199 404 1214 404 l 800 404 l 800 179 l 1240 179 q 1265 169 1256 179 q 1275 144 1275 160 l 1275 35 q 1265 10 1275 19 q 1240 0 1256 0 l 621 0 q 597 10 607 0 q 588 35 588 19 l 588 183 l 303 183 q 265 109 279 138 q 242 65 250 81 q 231 42 235 50 q 225 28 228 33 q 211 9 221 18 q 183 0 201 0 l 36 0 m 363 363 l 588 363 l 588 788 l 564 788 l 363 363 m 596 1042 q 574 1064 574 1042 q 581 1082 574 1075 l 699 1225 q 722 1247 711 1242 q 750 1251 732 1251 l 921 1251 q 947 1224 947 1251 q 940 1207 947 1214 l 761 1061 q 739 1047 750 1051 q 710 1042 728 1042 l 596 1042 z "},"B":{"ha":965,"x_min":103,"x_max":903,"o":"m 138 0 q 113 10 122 0 q 103 35 103 19 l 103 938 q 113 963 103 953 q 138 972 122 972 l 550 972 q 739 939 665 972 q 848 844 813 906 q 883 701 883 783 q 865 611 883 650 q 819 547 846 572 q 767 510 792 522 q 862 427 821 485 q 903 290 903 369 q 864 138 903 203 q 749 36 825 72 q 563 0 672 0 l 138 0 m 324 163 l 536 163 q 639 201 604 163 q 674 292 674 239 q 638 383 674 346 q 536 419 603 419 l 324 419 l 324 163 m 324 579 l 524 579 q 622 612 589 579 q 654 696 654 644 q 622 778 654 747 q 524 810 589 810 l 324 810 l 324 579 z "},"C":{"ha":963,"x_min":69,"x_max":910,"o":"m 489 -14 q 267 30 358 -14 q 126 158 176 74 q 71 363 76 242 q 69 485 69 419 q 71 610 69 550 q 127 813 76 729 q 269 942 178 897 q 489 986 361 986 q 658 963 582 986 q 790 894 735 939 q 876 790 846 850 q 910 657 907 731 q 901 636 910 644 q 879 628 892 628 l 721 628 q 694 636 704 628 q 679 664 685 644 q 610 776 658 746 q 489 807 561 807 q 353 760 403 807 q 299 603 303 713 q 299 369 294 489 q 353 213 303 260 q 489 165 403 165 q 610 197 561 165 q 679 308 660 228 q 694 337 685 329 q 721 344 704 344 l 879 344 q 901 336 892 344 q 910 315 910 328 q 876 182 907 242 q 790 78 846 122 q 658 10 735 33 q 489 -14 582 -14 z "},"Ć":{"ha":963,"x_min":69,"x_max":910,"o":"m 489 -14 q 267 30 358 -14 q 126 158 176 74 q 71 363 76 242 q 69 485 69 419 q 71 610 69 550 q 127 813 76 729 q 269 942 178 897 q 489 986 361 986 q 658 963 582 986 q 790 894 735 939 q 876 790 846 850 q 910 657 907 731 q 901 636 910 644 q 879 628 892 628 l 721 628 q 694 636 704 628 q 679 664 685 644 q 610 776 658 746 q 489 807 561 807 q 353 760 403 807 q 299 603 303 713 q 299 369 294 489 q 353 213 303 260 q 489 165 403 165 q 610 197 561 165 q 679 308 660 228 q 694 337 685 329 q 721 344 704 344 l 879 344 q 901 336 892 344 q 910 315 910 328 q 876 182 907 242 q 790 78 846 122 q 658 10 735 33 q 489 -14 582 -14 m 408 1042 q 386 1064 386 1042 q 393 1082 386 1075 l 511 1225 q 534 1247 524 1242 q 563 1251 544 1251 l 733 1251 q 760 1224 760 1251 q 753 1207 760 1214 l 574 1061 q 551 1047 563 1051 q 522 1042 540 1042 l 408 1042 z "},"Č":{"ha":963,"x_min":69,"x_max":910,"o":"m 489 -14 q 267 30 358 -14 q 126 158 176 74 q 71 363 76 242 q 69 485 69 419 q 71 610 69 550 q 127 813 76 729 q 269 942 178 897 q 489 986 361 986 q 658 963 582 986 q 790 894 735 939 q 876 790 846 850 q 910 657 907 731 q 901 636 910 644 q 879 628 892 628 l 721 628 q 694 636 704 628 q 679 664 685 644 q 610 776 658 746 q 489 807 561 807 q 353 760 403 807 q 299 603 303 713 q 299 369 294 489 q 353 213 303 260 q 489 165 403 165 q 610 197 561 165 q 679 308 660 228 q 694 337 685 329 q 721 344 704 344 l 879 344 q 901 336 892 344 q 910 315 910 328 q 876 182 907 242 q 790 78 846 122 q 658 10 735 33 q 489 -14 582 -14 m 433 1042 q 410 1047 421 1042 q 385 1065 400 1051 l 246 1210 q 235 1232 235 1221 q 256 1251 235 1251 l 318 1251 q 341 1249 329 1251 q 363 1242 353 1247 l 482 1171 l 603 1242 q 624 1249 613 1247 q 647 1251 636 1251 l 710 1251 q 731 1232 731 1251 q 718 1210 731 1221 l 581 1065 q 556 1047 567 1051 q 532 1042 546 1042 l 433 1042 z "},"Ç":{"ha":963,"x_min":69,"x_max":910,"o":"m 482 -306 q 415 -293 446 -306 q 372 -264 385 -281 q 372 -235 360 -247 l 397 -212 q 419 -206 410 -201 q 442 -219 428 -211 q 482 -228 456 -228 q 518 -215 504 -228 q 532 -183 532 -203 q 518 -153 532 -165 q 482 -140 504 -140 q 451 -145 465 -140 q 426 -151 438 -150 q 404 -143 414 -153 l 378 -117 q 371 -98 369 -108 q 379 -72 372 -87 l 407 -8 q 229 51 303 4 q 116 176 156 97 q 71 363 76 254 q 69 485 69 419 q 71 610 69 550 q 127 813 76 729 q 269 942 178 897 q 489 986 361 986 q 658 963 582 986 q 790 894 735 939 q 876 790 846 850 q 910 657 907 731 q 901 636 910 644 q 879 628 892 628 l 721 628 q 694 636 704 628 q 679 664 685 644 q 610 776 658 746 q 489 807 561 807 q 353 760 403 807 q 299 603 303 713 q 299 369 294 489 q 353 213 303 260 q 489 165 403 165 q 610 197 561 165 q 679 308 660 228 q 694 337 685 329 q 721 344 704 344 l 879 344 q 901 336 892 344 q 910 315 910 328 q 876 182 907 242 q 790 78 846 122 q 658 10 735 33 q 489 -14 582 -14 l 461 -71 q 484 -65 469 -67 q 507 -62 499 -62 q 587 -96 557 -62 q 617 -182 617 -129 q 581 -270 617 -235 q 482 -306 546 -306 z "},"Ĉ":{"ha":963,"x_min":69,"x_max":910,"o":"m 489 -14 q 267 30 358 -14 q 126 158 176 74 q 71 363 76 242 q 69 485 69 419 q 71 610 69 550 q 127 813 76 729 q 269 942 178 897 q 489 986 361 986 q 658 963 582 986 q 790 894 735 939 q 876 790 846 850 q 910 657 907 731 q 901 636 910 644 q 879 628 892 628 l 721 628 q 694 636 704 628 q 679 664 685 644 q 610 776 658 746 q 489 807 561 807 q 353 760 403 807 q 299 603 303 713 q 299 369 294 489 q 353 213 303 260 q 489 165 403 165 q 610 197 561 165 q 679 308 660 228 q 694 337 685 329 q 721 344 704 344 l 879 344 q 901 336 892 344 q 910 315 910 328 q 876 182 907 242 q 790 78 846 122 q 658 10 735 33 q 489 -14 582 -14 m 256 1042 q 235 1061 235 1042 q 246 1083 235 1072 l 385 1228 q 410 1247 400 1243 q 433 1251 421 1251 l 532 1251 q 556 1247 546 1251 q 581 1228 567 1243 l 718 1083 q 731 1061 731 1072 q 710 1042 731 1042 l 647 1042 q 624 1044 636 1042 q 603 1051 613 1046 l 482 1122 l 363 1051 q 341 1044 353 1046 q 318 1042 329 1042 l 256 1042 z "},"Ċ":{"ha":963,"x_min":69,"x_max":910,"o":"m 489 -14 q 267 30 358 -14 q 126 158 176 74 q 71 363 76 242 q 69 485 69 419 q 71 610 69 550 q 127 813 76 729 q 269 942 178 897 q 489 986 361 986 q 658 963 582 986 q 790 894 735 939 q 876 790 846 850 q 910 657 907 731 q 901 636 910 644 q 879 628 892 628 l 721 628 q 694 636 704 628 q 679 664 685 644 q 610 776 658 746 q 489 807 561 807 q 353 760 403 807 q 299 603 303 713 q 299 369 294 489 q 353 213 303 260 q 489 165 403 165 q 610 197 561 165 q 679 308 660 228 q 694 337 685 329 q 721 344 704 344 l 879 344 q 901 336 892 344 q 910 315 910 328 q 876 182 907 242 q 790 78 846 122 q 658 10 735 33 q 489 -14 582 -14 m 417 1042 q 394 1050 403 1042 q 386 1074 386 1058 l 386 1203 q 394 1226 386 1217 q 417 1235 403 1235 l 546 1235 q 569 1226 560 1235 q 578 1203 578 1217 l 578 1074 q 569 1050 578 1058 q 546 1042 560 1042 l 417 1042 z "},"D":{"ha":985,"x_min":103,"x_max":914,"o":"m 138 0 q 113 10 122 0 q 103 35 103 19 l 103 938 q 113 963 103 953 q 138 972 122 972 l 486 972 q 718 928 625 972 q 860 801 811 885 q 913 593 910 717 q 914 486 914 532 q 913 381 914 440 q 861 167 908 251 q 722 41 814 82 q 493 0 631 0 l 138 0 m 324 179 l 486 179 q 600 200 556 179 q 666 266 644 221 q 689 383 688 311 q 691 456 690 424 q 691 519 692 488 q 689 590 690 551 q 635 744 686 694 q 479 793 585 793 l 324 793 l 324 179 z "},"Ð":{"ha":1008,"x_min":19,"x_max":935,"o":"m 158 0 q 133 10 143 0 q 124 35 124 19 l 124 413 l 54 413 q 30 422 40 413 q 19 447 19 432 l 19 531 q 30 554 19 544 q 54 564 40 564 l 124 564 l 124 938 q 133 963 124 953 q 158 972 143 972 l 507 972 q 740 928 646 972 q 884 801 835 885 q 933 593 933 717 q 935 488 935 538 q 933 381 935 438 q 885 167 932 251 q 744 41 838 82 q 511 0 650 0 l 158 0 m 344 179 l 507 179 q 621 200 578 179 q 685 266 664 221 q 706 383 706 311 q 707 453 707 421 q 707 519 707 486 q 706 590 707 553 q 658 744 706 694 q 504 793 610 793 l 344 793 l 344 564 l 486 564 q 510 554 500 564 q 519 531 519 544 l 519 447 q 510 422 519 432 q 486 413 500 413 l 344 413 l 344 179 z "},"Ď":{"ha":985,"x_min":103,"x_max":914,"o":"m 138 0 q 113 10 122 0 q 103 35 103 19 l 103 938 q 113 963 103 953 q 138 972 122 972 l 486 972 q 718 928 625 972 q 860 801 811 885 q 913 593 910 717 q 914 486 914 532 q 913 381 914 440 q 861 167 908 251 q 722 41 814 82 q 493 0 631 0 l 138 0 m 324 179 l 486 179 q 600 200 556 179 q 666 266 644 221 q 689 383 688 311 q 691 456 690 424 q 691 519 692 488 q 689 590 690 551 q 635 744 686 694 q 479 793 585 793 l 324 793 l 324 179 m 439 1042 q 416 1047 426 1042 q 390 1065 406 1051 l 251 1210 q 240 1232 240 1221 q 261 1251 240 1251 l 324 1251 q 347 1249 335 1251 q 368 1242 358 1247 l 488 1171 l 608 1242 q 630 1249 618 1247 q 653 1251 642 1251 l 715 1251 q 736 1232 736 1251 q 724 1210 736 1221 l 586 1065 q 562 1047 572 1051 q 538 1042 551 1042 l 439 1042 z "},"Đ":{"ha":1007,"x_min":19,"x_max":935,"o":"m 158 0 q 133 10 143 0 q 124 35 124 19 l 124 414 l 54 414 q 30 424 40 414 q 19 447 19 433 l 19 531 q 30 556 19 546 q 54 565 40 565 l 124 565 l 124 938 q 133 963 124 953 q 158 972 143 972 l 507 972 q 739 928 646 972 q 881 801 832 885 q 933 593 931 717 q 935 486 935 532 q 933 381 935 440 q 881 167 929 251 q 742 41 833 82 q 511 0 650 0 l 158 0 m 344 179 l 507 179 q 621 200 578 179 q 686 266 664 221 q 710 383 708 311 q 713 456 713 424 q 713 519 713 488 q 710 590 713 551 q 658 744 707 694 q 504 793 610 793 l 344 793 l 344 565 l 486 565 q 510 556 500 565 q 519 531 519 546 l 519 447 q 510 424 519 433 q 486 414 500 414 l 344 414 l 344 179 z "},"E":{"ha":875,"x_min":103,"x_max":813,"o":"m 138 0 q 113 10 122 0 q 103 35 103 19 l 103 938 q 113 963 103 953 q 138 972 122 972 l 767 972 q 792 963 782 972 q 801 938 801 953 l 801 826 q 792 803 801 813 q 767 793 782 793 l 317 793 l 317 575 l 736 575 q 761 565 751 575 q 771 540 771 556 l 771 438 q 761 414 771 424 q 736 404 751 404 l 317 404 l 317 179 l 778 179 q 803 169 793 179 q 813 144 813 160 l 813 35 q 803 10 813 19 q 778 0 793 0 l 138 0 z "},"É":{"ha":875,"x_min":103,"x_max":813,"o":"m 138 0 q 113 10 122 0 q 103 35 103 19 l 103 938 q 113 963 103 953 q 138 972 122 972 l 767 972 q 792 963 782 972 q 801 938 801 953 l 801 826 q 792 803 801 813 q 767 793 782 793 l 317 793 l 317 575 l 736 575 q 761 565 751 575 q 771 540 771 556 l 771 438 q 761 414 771 424 q 736 404 751 404 l 317 404 l 317 179 l 778 179 q 803 169 793 179 q 813 144 813 160 l 813 35 q 803 10 813 19 q 778 0 793 0 l 138 0 m 364 1042 q 342 1064 342 1042 q 349 1082 342 1075 l 467 1225 q 490 1247 479 1242 q 518 1251 500 1251 l 689 1251 q 715 1224 715 1251 q 708 1207 715 1214 l 529 1061 q 507 1047 518 1051 q 478 1042 496 1042 l 364 1042 z "},"Ĕ":{"ha":875,"x_min":103,"x_max":813,"o":"m 138 0 q 113 10 122 0 q 103 35 103 19 l 103 938 q 113 963 103 953 q 138 972 122 972 l 767 972 q 792 963 782 972 q 801 938 801 953 l 801 826 q 792 803 801 813 q 767 793 782 793 l 317 793 l 317 575 l 736 575 q 761 565 751 575 q 771 540 771 556 l 771 438 q 761 414 771 424 q 736 404 751 404 l 317 404 l 317 179 l 778 179 q 803 169 793 179 q 813 144 813 160 l 813 35 q 803 10 813 19 q 778 0 793 0 l 138 0 m 439 1032 q 320 1058 365 1032 q 255 1126 275 1083 q 235 1221 235 1169 q 242 1240 235 1232 q 261 1247 249 1247 l 342 1247 q 361 1240 354 1247 q 368 1221 368 1232 q 382 1163 368 1189 q 439 1138 396 1138 q 494 1163 481 1138 q 508 1221 508 1189 q 515 1240 508 1232 q 535 1247 522 1247 l 615 1247 q 635 1240 628 1247 q 642 1221 642 1232 q 622 1126 642 1169 q 557 1058 601 1083 q 439 1032 513 1032 z "},"Ě":{"ha":875,"x_min":103,"x_max":813,"o":"m 138 0 q 113 10 122 0 q 103 35 103 19 l 103 938 q 113 963 103 953 q 138 972 122 972 l 767 972 q 792 963 782 972 q 801 938 801 953 l 801 826 q 792 803 801 813 q 767 793 782 793 l 317 793 l 317 575 l 736 575 q 761 565 751 575 q 771 540 771 556 l 771 438 q 761 414 771 424 q 736 404 751 404 l 317 404 l 317 179 l 778 179 q 803 169 793 179 q 813 144 813 160 l 813 35 q 803 10 813 19 q 778 0 793 0 l 138 0 m 389 1042 q 366 1047 376 1042 q 340 1065 356 1051 l 201 1210 q 190 1232 190 1221 q 211 1251 190 1251 l 274 1251 q 297 1249 285 1251 q 318 1242 308 1247 l 438 1171 l 558 1242 q 580 1249 568 1247 q 603 1251 592 1251 l 665 1251 q 686 1232 686 1251 q 674 1210 686 1221 l 536 1065 q 512 1047 522 1051 q 488 1042 501 1042 l 389 1042 z "},"Ê":{"ha":875,"x_min":103,"x_max":813,"o":"m 138 0 q 113 10 122 0 q 103 35 103 19 l 103 938 q 113 963 103 953 q 138 972 122 972 l 767 972 q 792 963 782 972 q 801 938 801 953 l 801 826 q 792 803 801 813 q 767 793 782 793 l 317 793 l 317 575 l 736 575 q 761 565 751 575 q 771 540 771 556 l 771 438 q 761 414 771 424 q 736 404 751 404 l 317 404 l 317 179 l 778 179 q 803 169 793 179 q 813 144 813 160 l 813 35 q 803 10 813 19 q 778 0 793 0 l 138 0 m 211 1042 q 190 1061 190 1042 q 201 1083 190 1072 l 340 1228 q 366 1247 356 1243 q 389 1251 376 1251 l 488 1251 q 512 1247 501 1251 q 536 1228 522 1243 l 674 1083 q 686 1061 686 1072 q 665 1042 686 1042 l 603 1042 q 580 1044 592 1042 q 558 1051 568 1046 l 438 1122 l 318 1051 q 297 1044 308 1046 q 274 1042 285 1042 l 211 1042 z "},"Ë":{"ha":875,"x_min":103,"x_max":813,"o":"m 138 0 q 113 10 122 0 q 103 35 103 19 l 103 938 q 113 963 103 953 q 138 972 122 972 l 767 972 q 792 963 782 972 q 801 938 801 953 l 801 826 q 792 803 801 813 q 767 793 782 793 l 317 793 l 317 575 l 736 575 q 761 565 751 575 q 771 540 771 556 l 771 438 q 761 414 771 424 q 736 404 751 404 l 317 404 l 317 179 l 778 179 q 803 169 793 179 q 813 144 813 160 l 813 35 q 803 10 813 19 q 778 0 793 0 l 138 0 m 538 1042 q 515 1050 524 1042 q 507 1074 507 1058 l 507 1188 q 515 1210 507 1201 q 538 1219 524 1219 l 651 1219 q 674 1210 665 1219 q 683 1188 683 1201 l 683 1074 q 674 1050 683 1058 q 651 1042 665 1042 l 538 1042 m 222 1042 q 200 1050 208 1042 q 192 1074 192 1058 l 192 1188 q 200 1210 192 1201 q 222 1219 208 1219 l 336 1219 q 359 1210 350 1219 q 368 1188 368 1201 l 368 1074 q 359 1050 368 1058 q 336 1042 350 1042 l 222 1042 z "},"Ė":{"ha":875,"x_min":103,"x_max":813,"o":"m 138 0 q 113 10 122 0 q 103 35 103 19 l 103 938 q 113 963 103 953 q 138 972 122 972 l 767 972 q 792 963 782 972 q 801 938 801 953 l 801 826 q 792 803 801 813 q 767 793 782 793 l 317 793 l 317 575 l 736 575 q 761 565 751 575 q 771 540 771 556 l 771 438 q 761 414 771 424 q 736 404 751 404 l 317 404 l 317 179 l 778 179 q 803 169 793 179 q 813 144 813 160 l 813 35 q 803 10 813 19 q 778 0 793 0 l 138 0 m 372 1042 q 350 1050 358 1042 q 342 1074 342 1058 l 342 1203 q 350 1226 342 1217 q 372 1235 358 1235 l 501 1235 q 524 1226 515 1235 q 533 1203 533 1217 l 533 1074 q 524 1050 533 1058 q 501 1042 515 1042 l 372 1042 z "},"È":{"ha":875,"x_min":103,"x_max":813,"o":"m 138 0 q 113 10 122 0 q 103 35 103 19 l 103 938 q 113 963 103 953 q 138 972 122 972 l 767 972 q 792 963 782 972 q 801 938 801 953 l 801 826 q 792 803 801 813 q 767 793 782 793 l 317 793 l 317 575 l 736 575 q 761 565 751 575 q 771 540 771 556 l 771 438 q 761 414 771 424 q 736 404 751 404 l 317 404 l 317 179 l 778 179 q 803 169 793 179 q 813 144 813 160 l 813 35 q 803 10 813 19 q 778 0 793 0 l 138 0 m 404 1042 q 375 1047 386 1042 q 353 1061 364 1051 l 175 1207 q 168 1224 168 1214 q 194 1251 168 1251 l 365 1251 q 393 1247 383 1251 q 417 1225 403 1242 l 535 1082 q 542 1064 542 1075 q 519 1042 542 1042 l 404 1042 z "},"Ē":{"ha":875,"x_min":103,"x_max":813,"o":"m 138 0 q 113 10 122 0 q 103 35 103 19 l 103 938 q 113 963 103 953 q 138 972 122 972 l 767 972 q 792 963 782 972 q 801 938 801 953 l 801 826 q 792 803 801 813 q 767 793 782 793 l 317 793 l 317 575 l 736 575 q 761 565 751 575 q 771 540 771 556 l 771 438 q 761 414 771 424 q 736 404 751 404 l 317 404 l 317 179 l 778 179 q 803 169 793 179 q 813 144 813 160 l 813 35 q 803 10 813 19 q 778 0 793 0 l 138 0 m 236 1042 q 214 1050 222 1042 q 206 1074 206 1058 l 206 1163 q 214 1185 206 1176 q 236 1193 222 1193 l 639 1193 q 663 1185 654 1193 q 671 1163 671 1176 l 671 1074 q 663 1050 671 1058 q 639 1042 654 1042 l 236 1042 z "},"Ę":{"ha":875,"x_min":103,"x_max":813,"o":"m 756 -306 q 638 -278 685 -306 q 567 -201 590 -250 q 543 -90 543 -153 q 548 -42 543 -64 q 561 0 553 -19 l 138 0 q 113 10 122 0 q 103 35 103 19 l 103 938 q 113 963 103 953 q 138 972 122 972 l 767 972 q 792 963 782 972 q 801 938 801 953 l 801 826 q 792 803 801 813 q 767 793 782 793 l 317 793 l 317 575 l 736 575 q 761 565 751 575 q 771 540 771 556 l 771 438 q 761 414 771 424 q 736 404 751 404 l 317 404 l 317 179 l 778 179 q 803 169 793 179 q 813 144 813 160 l 813 35 q 803 10 813 19 q 778 0 793 0 l 756 0 q 694 -28 715 -1 q 674 -90 674 -54 q 696 -154 674 -128 q 761 -181 718 -181 l 778 -181 q 803 -190 793 -181 q 813 -214 813 -200 l 813 -271 q 803 -296 813 -286 q 778 -306 793 -306 l 756 -306 z "},"F":{"ha":846,"x_min":103,"x_max":792,"o":"m 138 0 q 113 10 122 0 q 103 35 103 19 l 103 938 q 113 963 103 953 q 138 972 122 972 l 757 972 q 782 963 772 972 q 792 938 792 953 l 792 819 q 782 794 792 804 q 757 785 772 785 l 319 785 l 319 550 l 729 550 q 754 540 744 550 q 764 515 764 531 l 764 397 q 754 374 764 383 q 729 364 744 364 l 319 364 l 319 35 q 310 10 319 19 q 285 0 300 0 l 138 0 z "},"G":{"ha":986,"x_min":71,"x_max":919,"o":"m 493 -14 q 270 30 363 -14 q 127 158 178 74 q 72 361 76 242 q 71 489 71 421 q 72 618 71 557 q 127 817 76 735 q 272 942 178 899 q 493 986 365 986 q 674 960 596 986 q 804 891 751 933 q 885 799 857 849 q 914 703 913 749 q 906 681 914 690 q 883 672 897 672 l 711 672 q 690 678 697 672 q 676 694 682 683 q 645 745 667 719 q 588 789 624 771 q 493 807 551 807 q 355 761 406 807 q 300 611 304 715 q 300 368 296 492 q 356 213 304 260 q 496 165 408 165 q 598 185 553 165 q 669 249 643 206 q 696 358 696 292 l 696 393 l 544 393 q 521 403 531 393 q 511 428 511 414 l 511 517 q 521 542 511 532 q 544 551 531 551 l 885 551 q 910 542 900 551 q 919 517 919 532 l 919 365 q 867 161 919 246 q 719 31 815 76 q 493 -14 622 -14 z "},"Ğ":{"ha":986,"x_min":71,"x_max":919,"o":"m 493 -14 q 270 30 363 -14 q 127 158 178 74 q 72 361 76 242 q 71 489 71 421 q 72 618 71 557 q 127 817 76 735 q 272 942 178 899 q 493 986 365 986 q 674 960 596 986 q 804 891 751 933 q 885 799 857 849 q 914 703 913 749 q 906 681 914 690 q 883 672 897 672 l 711 672 q 690 678 697 672 q 676 694 682 683 q 645 745 667 719 q 588 789 624 771 q 493 807 551 807 q 355 761 406 807 q 300 611 304 715 q 300 368 296 492 q 356 213 304 260 q 496 165 408 165 q 598 185 553 165 q 669 249 643 206 q 696 358 696 292 l 696 393 l 544 393 q 521 403 531 393 q 511 428 511 414 l 511 517 q 521 542 511 532 q 544 551 531 551 l 885 551 q 910 542 900 551 q 919 517 919 532 l 919 365 q 867 161 919 246 q 719 31 815 76 q 493 -14 622 -14 m 499 1032 q 380 1058 425 1032 q 315 1126 335 1083 q 294 1221 294 1169 q 301 1240 294 1232 q 321 1247 308 1247 l 401 1247 q 421 1240 414 1247 q 428 1221 428 1232 q 442 1163 428 1189 q 499 1138 456 1138 q 554 1163 540 1138 q 568 1221 568 1189 q 575 1240 568 1232 q 594 1247 582 1247 l 675 1247 q 694 1240 688 1247 q 701 1221 701 1232 q 681 1126 701 1169 q 617 1058 661 1083 q 499 1032 572 1032 z "},"Ĝ":{"ha":986,"x_min":71,"x_max":919,"o":"m 493 -14 q 270 30 363 -14 q 127 158 178 74 q 72 361 76 242 q 71 489 71 421 q 72 618 71 557 q 127 817 76 735 q 272 942 178 899 q 493 986 365 986 q 674 960 596 986 q 804 891 751 933 q 885 799 857 849 q 914 703 913 749 q 906 681 914 690 q 883 672 897 672 l 711 672 q 690 678 697 672 q 676 694 682 683 q 645 745 667 719 q 588 789 624 771 q 493 807 551 807 q 355 761 406 807 q 300 611 304 715 q 300 368 296 492 q 356 213 304 260 q 496 165 408 165 q 598 185 553 165 q 669 249 643 206 q 696 358 696 292 l 696 393 l 544 393 q 521 403 531 393 q 511 428 511 414 l 511 517 q 521 542 511 532 q 544 551 531 551 l 885 551 q 910 542 900 551 q 919 517 919 532 l 919 365 q 867 161 919 246 q 719 31 815 76 q 493 -14 622 -14 m 271 1042 q 250 1061 250 1042 q 261 1083 250 1072 l 400 1228 q 426 1247 415 1243 q 449 1251 436 1251 l 547 1251 q 572 1247 561 1251 q 596 1228 582 1243 l 733 1083 q 746 1061 746 1072 q 725 1042 746 1042 l 663 1042 q 640 1044 651 1042 q 618 1051 628 1046 l 497 1122 l 378 1051 q 356 1044 368 1046 q 333 1042 344 1042 l 271 1042 z "},"Ģ":{"ha":986,"x_min":71,"x_max":919,"o":"m 493 -14 q 270 30 363 -14 q 127 158 178 74 q 72 361 76 242 q 71 489 71 421 q 72 618 71 557 q 127 817 76 735 q 272 942 178 899 q 493 986 365 986 q 674 960 596 986 q 804 891 751 933 q 885 799 857 849 q 914 703 913 749 q 906 681 914 690 q 883 672 897 672 l 711 672 q 690 678 697 672 q 676 694 682 683 q 645 745 667 719 q 588 789 624 771 q 493 807 551 807 q 355 761 406 807 q 300 611 304 715 q 300 368 296 492 q 356 213 304 260 q 496 165 408 165 q 598 185 553 165 q 669 249 643 206 q 696 358 696 292 l 696 393 l 544 393 q 521 403 531 393 q 511 428 511 414 l 511 517 q 521 542 511 532 q 544 551 531 551 l 885 551 q 910 542 900 551 q 919 517 919 532 l 919 365 q 867 161 919 246 q 719 31 815 76 q 493 -14 622 -14 m 389 -321 q 371 -312 378 -321 q 364 -290 364 -303 l 390 -115 q 404 -83 393 -97 q 439 -69 415 -69 l 576 -69 q 594 -78 588 -69 q 601 -96 601 -86 q 599 -112 601 -106 l 532 -283 q 516 -309 526 -297 q 485 -321 506 -321 l 389 -321 z "},"Ġ":{"ha":986,"x_min":71,"x_max":919,"o":"m 493 -14 q 270 30 363 -14 q 127 158 178 74 q 72 361 76 242 q 71 489 71 421 q 72 618 71 557 q 127 817 76 735 q 272 942 178 899 q 493 986 365 986 q 674 960 596 986 q 804 891 751 933 q 885 799 857 849 q 914 703 913 749 q 906 681 914 690 q 883 672 897 672 l 711 672 q 690 678 697 672 q 676 694 682 683 q 645 745 667 719 q 588 789 624 771 q 493 807 551 807 q 355 761 406 807 q 300 611 304 715 q 300 368 296 492 q 356 213 304 260 q 496 165 408 165 q 598 185 553 165 q 669 249 643 206 q 696 358 696 292 l 696 393 l 544 393 q 521 403 531 393 q 511 428 511 414 l 511 517 q 521 542 511 532 q 544 551 531 551 l 885 551 q 910 542 900 551 q 919 517 919 532 l 919 365 q 867 161 919 246 q 719 31 815 76 q 493 -14 622 -14 m 432 1042 q 410 1050 418 1042 q 401 1074 401 1058 l 401 1203 q 410 1226 401 1217 q 432 1235 418 1235 l 561 1235 q 584 1226 575 1235 q 593 1203 593 1217 l 593 1074 q 584 1050 593 1058 q 561 1042 575 1042 l 432 1042 z "},"H":{"ha":1024,"x_min":103,"x_max":921,"o":"m 138 0 q 113 10 122 0 q 103 35 103 19 l 103 938 q 113 963 103 953 q 138 972 122 972 l 289 972 q 314 963 304 972 q 324 938 324 953 l 324 590 l 700 590 l 700 938 q 710 963 700 953 q 735 972 719 972 l 886 972 q 911 963 901 972 q 921 938 921 953 l 921 35 q 911 10 921 19 q 886 0 901 0 l 735 0 q 710 10 719 0 q 700 35 700 19 l 700 393 l 324 393 l 324 35 q 314 10 324 19 q 289 0 304 0 l 138 0 z "},"Ħ":{"ha":1024,"x_min":58,"x_max":971,"o":"m 92 718 q 68 728 78 718 q 58 753 58 738 l 58 810 q 68 835 58 825 q 92 844 78 844 l 938 844 q 961 835 951 844 q 971 810 971 825 l 971 753 q 961 728 971 738 q 938 718 951 718 l 92 718 m 138 0 q 113 10 122 0 q 103 35 103 19 l 103 938 q 113 963 103 953 q 138 972 122 972 l 289 972 q 314 963 304 972 q 324 938 324 953 l 324 590 l 700 590 l 700 938 q 710 963 700 953 q 735 972 719 972 l 886 972 q 911 963 901 972 q 921 938 921 953 l 921 35 q 911 10 921 19 q 886 0 901 0 l 735 0 q 710 10 719 0 q 700 35 700 19 l 700 393 l 324 393 l 324 35 q 314 10 324 19 q 289 0 304 0 l 138 0 z "},"Ĥ":{"ha":1024,"x_min":103,"x_max":921,"o":"m 138 0 q 113 10 122 0 q 103 35 103 19 l 103 938 q 113 963 103 953 q 138 972 122 972 l 289 972 q 314 963 304 972 q 324 938 324 953 l 324 590 l 700 590 l 700 938 q 710 963 700 953 q 735 972 719 972 l 886 972 q 911 963 901 972 q 921 938 921 953 l 921 35 q 911 10 921 19 q 886 0 901 0 l 735 0 q 710 10 719 0 q 700 35 700 19 l 700 393 l 324 393 l 324 35 q 314 10 324 19 q 289 0 304 0 l 138 0 m 285 1042 q 264 1061 264 1042 q 275 1083 264 1072 l 414 1228 q 440 1247 429 1243 q 463 1251 450 1251 l 561 1251 q 585 1247 575 1251 q 610 1228 596 1243 l 747 1083 q 760 1061 760 1072 q 739 1042 760 1042 l 676 1042 q 653 1044 665 1042 q 632 1051 642 1046 l 511 1122 l 392 1051 q 370 1044 382 1046 q 347 1042 358 1042 l 285 1042 z "},"I":{"ha":432,"x_min":103,"x_max":329,"o":"m 138 0 q 113 10 122 0 q 103 35 103 19 l 103 938 q 113 963 103 953 q 138 972 122 972 l 294 972 q 319 963 310 972 q 329 938 329 953 l 329 35 q 319 10 329 19 q 294 0 310 0 l 138 0 z "},"Ĳ":{"ha":974,"x_min":103,"x_max":879,"o":"m 475 -14 q 450 -4 460 -14 q 440 21 440 6 l 440 144 q 450 169 440 160 q 475 179 460 179 q 608 233 564 179 q 651 386 651 286 l 651 938 q 661 963 651 953 q 686 972 671 972 l 844 972 q 869 963 860 972 q 879 938 879 953 l 879 357 q 831 146 879 228 q 692 25 782 64 q 475 -14 601 -14 m 138 0 q 113 10 122 0 q 103 35 103 19 l 103 938 q 113 963 103 953 q 138 972 122 972 l 294 972 q 319 963 310 972 q 329 938 329 953 l 329 35 q 319 10 329 19 q 294 0 310 0 l 138 0 z "},"Í":{"ha":432,"x_min":103,"x_max":493,"o":"m 138 0 q 113 10 122 0 q 103 35 103 19 l 103 938 q 113 963 103 953 q 138 972 122 972 l 294 972 q 319 963 310 972 q 329 938 329 953 l 329 35 q 319 10 329 19 q 294 0 310 0 l 138 0 m 142 1042 q 119 1064 119 1042 q 126 1082 119 1075 l 244 1225 q 267 1247 257 1242 q 296 1251 278 1251 l 467 1251 q 493 1224 493 1251 q 486 1207 493 1214 l 307 1061 q 285 1047 296 1051 q 256 1042 274 1042 l 142 1042 z "},"Ĭ":{"ha":432,"x_min":13,"x_max":421,"o":"m 138 0 q 113 10 122 0 q 103 35 103 19 l 103 938 q 113 963 103 953 q 138 972 122 972 l 294 972 q 319 963 310 972 q 329 938 329 953 l 329 35 q 319 10 329 19 q 294 0 310 0 l 138 0 m 217 1032 q 98 1058 143 1032 q 33 1126 53 1083 q 13 1221 13 1169 q 19 1240 13 1232 q 39 1247 26 1247 l 119 1247 q 139 1240 132 1247 q 146 1221 146 1232 q 160 1163 146 1189 q 217 1138 174 1138 q 272 1163 258 1138 q 286 1221 286 1189 q 293 1240 286 1232 q 313 1247 300 1247 l 393 1247 q 413 1240 406 1247 q 419 1221 419 1232 q 399 1126 419 1169 q 335 1058 379 1083 q 217 1032 290 1032 z "},"Î":{"ha":432,"x_min":-32,"x_max":464,"o":"m 138 0 q 113 10 122 0 q 103 35 103 19 l 103 938 q 113 963 103 953 q 138 972 122 972 l 294 972 q 319 963 310 972 q 329 938 329 953 l 329 35 q 319 10 329 19 q 294 0 310 0 l 138 0 m -11 1042 q -32 1061 -32 1042 q -21 1083 -32 1072 l 118 1228 q 144 1247 133 1243 q 167 1251 154 1251 l 265 1251 q 290 1247 279 1251 q 314 1228 300 1243 l 451 1083 q 464 1061 464 1072 q 443 1042 464 1042 l 381 1042 q 358 1044 369 1042 q 336 1051 346 1046 l 215 1122 l 96 1051 q 74 1044 86 1046 q 51 1042 63 1042 l -11 1042 z "},"Ï":{"ha":432,"x_min":-31,"x_max":463,"o":"m 138 0 q 113 10 122 0 q 103 35 103 19 l 103 938 q 113 963 103 953 q 138 972 122 972 l 294 972 q 319 963 310 972 q 329 938 329 953 l 329 35 q 319 10 329 19 q 294 0 310 0 l 138 0 m 315 1042 q 293 1050 301 1042 q 285 1074 285 1058 l 285 1188 q 293 1210 285 1201 q 315 1219 301 1219 l 429 1219 q 452 1210 443 1219 q 461 1188 461 1201 l 461 1074 q 452 1050 461 1058 q 429 1042 443 1042 l 315 1042 m 0 1042 q -22 1050 -14 1042 q -31 1074 -31 1058 l -31 1188 q -22 1210 -31 1201 q 0 1219 -14 1219 l 114 1219 q 137 1210 128 1219 q 146 1188 146 1201 l 146 1074 q 137 1050 146 1058 q 114 1042 128 1042 l 0 1042 z "},"İ":{"ha":432,"x_min":103,"x_max":329,"o":"m 138 0 q 113 10 122 0 q 103 35 103 19 l 103 938 q 113 963 103 953 q 138 972 122 972 l 294 972 q 319 963 310 972 q 329 938 329 953 l 329 35 q 319 10 329 19 q 294 0 310 0 l 138 0 m 150 1042 q 128 1050 136 1042 q 119 1074 119 1058 l 119 1203 q 128 1226 119 1217 q 150 1235 136 1235 l 279 1235 q 302 1226 293 1235 q 311 1203 311 1217 l 311 1074 q 302 1050 311 1058 q 279 1042 293 1042 l 150 1042 z "},"Ì":{"ha":432,"x_min":-54,"x_max":329,"o":"m 138 0 q 113 10 122 0 q 103 35 103 19 l 103 938 q 113 963 103 953 q 138 972 122 972 l 294 972 q 319 963 310 972 q 329 938 329 953 l 329 35 q 319 10 329 19 q 294 0 310 0 l 138 0 m 182 1042 q 153 1047 164 1042 q 131 1061 142 1051 l -47 1207 q -54 1224 -54 1214 q -28 1251 -54 1251 l 143 1251 q 171 1247 161 1251 q 194 1225 181 1242 l 313 1082 q 319 1064 319 1075 q 297 1042 319 1042 l 182 1042 z "},"Ī":{"ha":432,"x_min":-17,"x_max":449,"o":"m 138 0 q 113 10 122 0 q 103 35 103 19 l 103 938 q 113 963 103 953 q 138 972 122 972 l 294 972 q 319 963 310 972 q 329 938 329 953 l 329 35 q 319 10 329 19 q 294 0 310 0 l 138 0 m 14 1042 q -8 1050 0 1042 q -17 1074 -17 1058 l -17 1163 q -8 1185 -17 1176 q 14 1193 0 1193 l 417 1193 q 440 1185 432 1193 q 449 1163 449 1176 l 449 1074 q 440 1050 449 1058 q 417 1042 432 1042 l 14 1042 z "},"Į":{"ha":444,"x_min":72,"x_max":342,"o":"m 285 -307 q 167 -279 214 -307 q 96 -202 119 -251 q 72 -92 72 -153 q 94 -9 72 -42 q 150 38 115 24 l 135 43 q 121 52 126 44 q 115 69 115 60 l 115 938 q 125 963 115 953 q 149 972 135 972 l 307 972 q 332 963 322 972 q 342 938 342 953 l 342 35 q 332 10 342 19 q 307 0 322 0 l 290 0 q 225 -27 247 0 q 203 -92 203 -54 q 225 -155 203 -128 q 290 -182 247 -182 l 307 -182 q 332 -192 322 -182 q 342 -215 342 -201 l 342 -272 q 332 -297 342 -287 q 307 -307 322 -307 l 285 -307 z "},"Ĩ":{"ha":432,"x_min":-14,"x_max":444,"o":"m 138 0 q 113 10 122 0 q 103 35 103 19 l 103 938 q 113 963 103 953 q 138 972 122 972 l 294 972 q 319 963 310 972 q 329 938 329 953 l 329 35 q 319 10 329 19 q 294 0 310 0 l 138 0 m 296 1035 q 235 1047 260 1035 q 190 1072 210 1060 q 147 1083 171 1083 q 121 1074 129 1083 q 106 1053 113 1064 q 83 1042 99 1042 l 10 1042 q -7 1049 0 1042 q -14 1065 -14 1057 q -6 1115 -14 1088 q 19 1169 1 1143 q 65 1213 38 1196 q 133 1231 93 1231 q 195 1218 171 1231 q 240 1193 219 1206 q 283 1181 260 1181 q 309 1192 301 1181 q 324 1213 317 1203 q 346 1224 331 1224 l 419 1224 q 438 1216 432 1224 q 444 1199 444 1208 q 436 1150 444 1178 q 410 1096 428 1122 q 364 1052 392 1069 q 296 1035 336 1035 z "},"J":{"ha":918,"x_min":38,"x_max":824,"o":"m 428 -14 q 281 6 350 -14 q 157 65 211 25 q 72 163 103 104 q 38 299 40 221 q 46 320 38 311 q 68 329 54 329 l 226 329 q 255 319 244 329 q 271 292 265 310 q 300 219 278 247 q 356 178 322 192 q 433 165 390 165 q 555 217 513 165 q 597 363 597 268 l 597 788 l 135 788 q 111 797 121 788 q 101 821 101 807 l 101 938 q 111 963 101 953 q 135 972 121 972 l 789 972 q 814 963 804 972 q 824 938 824 953 l 824 357 q 774 155 824 238 q 635 29 724 72 q 428 -14 546 -14 z "},"Ĵ":{"ha":918,"x_min":38,"x_max":824,"o":"m 428 -14 q 281 6 350 -14 q 157 65 211 25 q 72 163 103 104 q 38 299 40 221 q 46 320 38 311 q 68 329 54 329 l 226 329 q 255 319 244 329 q 271 292 265 310 q 300 219 278 247 q 356 178 322 192 q 433 165 390 165 q 555 217 513 165 q 597 363 597 268 l 597 788 l 135 788 q 111 797 121 788 q 101 821 101 807 l 101 938 q 111 963 101 953 q 135 972 121 972 l 789 972 q 814 963 804 972 q 824 938 824 953 l 824 357 q 774 155 824 238 q 635 29 724 72 q 428 -14 546 -14 m 242 1042 q 221 1061 221 1042 q 232 1083 221 1072 l 371 1228 q 397 1247 386 1243 q 419 1251 407 1251 l 518 1251 q 542 1247 532 1251 q 567 1228 553 1243 l 704 1083 q 717 1061 717 1072 q 696 1042 717 1042 l 633 1042 q 610 1044 622 1042 q 589 1051 599 1046 l 468 1122 l 349 1051 q 327 1044 339 1046 q 304 1042 315 1042 l 242 1042 z "},"K":{"ha":899,"x_min":103,"x_max":883,"o":"m 138 0 q 113 10 122 0 q 103 35 103 19 l 103 938 q 113 963 103 953 q 138 972 122 972 l 285 972 q 310 963 300 972 q 319 938 319 953 l 319 621 l 606 946 q 624 963 611 954 q 660 972 638 972 l 828 972 q 849 963 840 972 q 857 943 857 954 q 851 926 857 933 l 494 507 l 878 46 q 883 29 883 40 q 875 9 883 18 q 854 0 867 0 l 681 0 q 643 11 656 0 q 626 26 631 22 l 319 382 l 319 35 q 310 10 319 19 q 285 0 300 0 l 138 0 z "},"Ķ":{"ha":899,"x_min":103,"x_max":883,"o":"m 138 0 q 113 10 122 0 q 103 35 103 19 l 103 938 q 113 963 103 953 q 138 972 122 972 l 285 972 q 310 963 300 972 q 319 938 319 953 l 319 621 l 606 946 q 624 963 611 954 q 660 972 638 972 l 828 972 q 849 963 840 972 q 857 943 857 954 q 851 926 857 933 l 494 507 l 878 46 q 883 29 883 40 q 875 9 883 18 q 854 0 867 0 l 681 0 q 643 11 656 0 q 626 26 631 22 l 319 382 l 319 35 q 310 10 319 19 q 285 0 300 0 l 138 0 m 347 -321 q 329 -312 336 -321 q 322 -290 322 -303 l 349 -115 q 363 -83 351 -97 q 397 -69 374 -69 l 535 -69 q 553 -78 546 -69 q 560 -96 560 -86 q 557 -112 560 -106 l 490 -283 q 474 -309 485 -297 q 443 -321 464 -321 l 347 -321 z "},"L":{"ha":817,"x_min":103,"x_max":792,"o":"m 138 0 q 113 10 122 0 q 103 35 103 19 l 103 938 q 113 963 103 953 q 138 972 122 972 l 292 972 q 317 963 307 972 q 326 938 326 953 l 326 186 l 757 186 q 782 176 772 186 q 792 151 792 167 l 792 35 q 782 10 792 19 q 757 0 772 0 l 138 0 z "},"Ĺ":{"ha":817,"x_min":103,"x_max":792,"o":"m 138 0 q 113 10 122 0 q 103 35 103 19 l 103 938 q 113 963 103 953 q 138 972 122 972 l 292 972 q 317 963 307 972 q 326 938 326 953 l 326 186 l 757 186 q 782 176 772 186 q 792 151 792 167 l 792 35 q 782 10 792 19 q 757 0 772 0 l 138 0 m 133 1042 q 111 1064 111 1042 q 118 1082 111 1075 l 236 1225 q 259 1247 249 1242 q 288 1251 269 1251 l 458 1251 q 485 1224 485 1251 q 478 1207 485 1214 l 299 1061 q 276 1047 288 1051 q 247 1042 265 1042 l 133 1042 z "},"Ľ":{"ha":817,"x_min":103,"x_max":792,"o":"m 138 0 q 113 10 122 0 q 103 35 103 19 l 103 938 q 113 963 103 953 q 138 972 122 972 l 292 972 q 317 963 307 972 q 326 938 326 953 l 326 186 l 757 186 q 782 176 772 186 q 792 151 792 167 l 792 35 q 782 10 792 19 q 757 0 772 0 l 138 0 m 503 678 q 483 687 490 678 q 478 708 476 696 l 504 883 q 518 915 507 901 q 551 929 529 929 l 682 929 q 700 921 693 929 q 707 903 707 913 q 704 886 707 893 l 638 715 q 622 690 632 701 q 589 678 611 678 l 503 678 z "},"Ļ":{"ha":817,"x_min":103,"x_max":792,"o":"m 138 0 q 113 10 122 0 q 103 35 103 19 l 103 938 q 113 963 103 953 q 138 972 122 972 l 292 972 q 317 963 307 972 q 326 938 326 953 l 326 186 l 757 186 q 782 176 772 186 q 792 151 792 167 l 792 35 q 782 10 792 19 q 757 0 772 0 l 138 0 m 317 -321 q 299 -312 306 -321 q 292 -290 292 -303 l 318 -115 q 332 -83 321 -97 q 367 -69 343 -69 l 504 -69 q 522 -78 515 -69 q 529 -96 529 -86 q 526 -112 529 -106 l 460 -283 q 444 -309 454 -297 q 413 -321 433 -321 l 317 -321 z "},"Ŀ":{"ha":825,"x_min":103,"x_max":792,"o":"m 138 0 q 113 10 122 0 q 103 35 103 19 l 103 938 q 113 963 103 953 q 138 972 122 972 l 292 972 q 317 963 307 972 q 326 938 326 953 l 326 186 l 757 186 q 782 176 772 186 q 792 151 792 167 l 792 35 q 782 10 792 19 q 757 0 772 0 l 138 0 m 563 433 q 539 442 547 433 q 531 464 531 450 l 531 590 q 539 613 531 604 q 563 622 547 622 l 688 622 q 710 613 701 622 q 719 590 719 604 l 719 464 q 710 442 719 450 q 688 433 701 433 l 563 433 z "},"Ł":{"ha":828,"x_min":18,"x_max":803,"o":"m 149 0 q 124 10 133 0 q 114 35 114 19 l 114 358 l 63 338 q 46 333 53 333 q 26 341 33 333 q 18 361 18 349 l 18 451 q 25 477 18 468 q 49 492 32 486 l 114 517 l 114 938 q 124 963 114 953 q 149 972 133 972 l 303 972 q 328 963 318 972 q 338 938 338 953 l 338 604 l 539 683 q 556 688 550 688 q 575 680 567 688 q 583 660 583 672 l 583 571 q 576 546 583 554 q 553 531 569 538 l 338 446 l 338 186 l 769 186 q 793 176 783 186 q 803 153 803 167 l 803 35 q 793 10 803 19 q 769 0 783 0 l 149 0 z "},"M":{"ha":1138,"x_min":103,"x_max":1035,"o":"m 138 0 q 113 10 124 0 q 103 35 103 19 l 103 938 q 113 963 103 953 q 138 972 124 972 l 267 972 q 298 961 288 972 q 313 944 308 950 l 568 474 l 826 944 q 840 961 829 950 q 871 972 850 972 l 1000 972 q 1025 963 1015 972 q 1035 938 1035 953 l 1035 35 q 1025 10 1035 19 q 1000 0 1015 0 l 858 0 q 835 10 844 0 q 825 35 825 19 l 825 596 l 649 265 q 631 243 642 253 q 601 233 619 233 l 536 233 q 507 243 518 233 q 489 265 496 253 l 313 596 l 313 35 q 303 10 313 19 q 279 0 293 0 l 138 0 z "},"N":{"ha":990,"x_min":103,"x_max":888,"o":"m 138 0 q 113 10 122 0 q 103 35 103 19 l 103 938 q 113 963 103 953 q 138 972 122 972 l 264 972 q 294 963 285 972 q 307 947 304 953 l 678 368 l 678 938 q 688 963 678 953 q 711 972 697 972 l 853 972 q 878 963 868 972 q 888 938 888 953 l 888 35 q 878 10 888 21 q 853 0 868 0 l 725 0 q 695 10 704 0 q 682 25 686 21 l 313 586 l 313 35 q 303 10 313 19 q 278 0 293 0 l 138 0 z "},"Ń":{"ha":990,"x_min":103,"x_max":888,"o":"m 138 0 q 113 10 122 0 q 103 35 103 19 l 103 938 q 113 963 103 953 q 138 972 122 972 l 264 972 q 294 963 285 972 q 307 947 304 953 l 678 368 l 678 938 q 688 963 678 953 q 711 972 697 972 l 853 972 q 878 963 868 972 q 888 938 888 953 l 888 35 q 878 10 888 21 q 853 0 868 0 l 725 0 q 695 10 704 0 q 682 25 686 21 l 313 586 l 313 35 q 303 10 313 19 q 278 0 293 0 l 138 0 m 421 1042 q 399 1064 399 1042 q 406 1082 399 1075 l 524 1225 q 547 1247 536 1242 q 575 1251 557 1251 l 746 1251 q 772 1224 772 1251 q 765 1207 772 1214 l 586 1061 q 564 1047 575 1051 q 535 1042 553 1042 l 421 1042 z "},"Ň":{"ha":990,"x_min":103,"x_max":888,"o":"m 138 0 q 113 10 122 0 q 103 35 103 19 l 103 938 q 113 963 103 953 q 138 972 122 972 l 264 972 q 294 963 285 972 q 307 947 304 953 l 678 368 l 678 938 q 688 963 678 953 q 711 972 697 972 l 853 972 q 878 963 868 972 q 888 938 888 953 l 888 35 q 878 10 888 21 q 853 0 868 0 l 725 0 q 695 10 704 0 q 682 25 686 21 l 313 586 l 313 35 q 303 10 313 19 q 278 0 293 0 l 138 0 m 446 1042 q 423 1047 433 1042 q 397 1065 413 1051 l 258 1210 q 247 1232 247 1221 q 268 1251 247 1251 l 331 1251 q 353 1249 342 1251 q 375 1242 365 1247 l 494 1171 l 615 1242 q 637 1249 625 1247 q 660 1251 649 1251 l 722 1251 q 743 1232 743 1251 q 731 1210 743 1221 l 593 1065 q 569 1047 579 1051 q 544 1042 558 1042 l 446 1042 z "},"Ņ":{"ha":990,"x_min":103,"x_max":888,"o":"m 138 0 q 113 10 122 0 q 103 35 103 19 l 103 938 q 113 963 103 953 q 138 972 122 972 l 264 972 q 294 963 285 972 q 307 947 304 953 l 678 368 l 678 938 q 688 963 678 953 q 711 972 697 972 l 853 972 q 878 963 868 972 q 888 938 888 953 l 888 35 q 878 10 888 21 q 853 0 868 0 l 725 0 q 695 10 704 0 q 682 25 686 21 l 313 586 l 313 35 q 303 10 313 19 q 278 0 293 0 l 138 0 m 386 -321 q 368 -312 375 -321 q 361 -290 361 -303 l 388 -115 q 401 -83 390 -97 q 436 -69 413 -69 l 574 -69 q 592 -78 585 -69 q 599 -96 599 -86 q 596 -112 599 -106 l 529 -283 q 513 -309 524 -297 q 482 -321 503 -321 l 386 -321 z "},"Ñ":{"ha":990,"x_min":103,"x_max":888,"o":"m 138 0 q 113 10 122 0 q 103 35 103 19 l 103 938 q 113 963 103 953 q 138 972 122 972 l 264 972 q 294 963 285 972 q 307 947 304 953 l 678 368 l 678 938 q 688 963 678 953 q 711 972 697 972 l 853 972 q 878 963 868 972 q 888 938 888 953 l 888 35 q 878 10 888 21 q 853 0 868 0 l 725 0 q 695 10 704 0 q 682 25 686 21 l 313 586 l 313 35 q 303 10 313 19 q 278 0 293 0 l 138 0 m 575 1035 q 514 1047 539 1035 q 469 1072 489 1060 q 426 1083 450 1083 q 400 1074 408 1083 q 385 1053 392 1064 q 363 1042 378 1042 l 289 1042 q 272 1049 279 1042 q 265 1065 265 1057 q 273 1115 265 1088 q 299 1169 281 1143 q 344 1213 317 1196 q 413 1231 372 1231 q 474 1218 450 1231 q 519 1193 499 1206 q 563 1181 539 1181 q 588 1192 581 1181 q 603 1213 596 1203 q 625 1224 610 1224 l 699 1224 q 717 1216 711 1224 q 724 1199 724 1208 q 715 1150 724 1178 q 689 1096 707 1122 q 643 1052 671 1069 q 575 1035 615 1035 z "},"Ŋ":{"ha":990,"x_min":103,"x_max":888,"o":"m 539 -312 q 514 -303 524 -312 q 504 -278 504 -293 l 504 -161 q 514 -137 504 -147 q 539 -128 524 -128 l 569 -128 q 634 -112 611 -128 q 667 -72 657 -97 q 678 -12 678 -46 l 678 32 l 313 586 l 313 35 q 303 10 313 19 q 278 0 293 0 l 138 0 q 113 10 122 0 q 103 35 103 19 l 103 938 q 113 963 103 953 q 138 972 122 972 l 264 972 q 294 963 285 972 q 307 947 304 953 l 678 368 l 678 938 q 688 963 678 953 q 711 972 697 972 l 853 972 q 878 963 868 972 q 888 938 888 953 l 888 -19 q 849 -178 888 -112 q 735 -278 810 -243 q 553 -312 660 -312 l 539 -312 z "},"O":{"ha":976,"x_min":71,"x_max":907,"o":"m 489 -14 q 271 28 363 -14 q 128 153 179 69 q 72 365 76 238 q 71 484 71 425 q 72 604 71 543 q 128 815 76 729 q 273 943 181 900 q 489 986 365 986 q 703 943 611 986 q 849 815 796 900 q 904 604 901 729 q 907 484 907 543 q 904 365 907 425 q 849 153 900 238 q 706 28 797 69 q 489 -14 614 -14 m 489 165 q 622 215 569 165 q 676 372 674 264 q 679 487 679 433 q 676 600 679 540 q 650 718 675 672 q 584 785 625 764 q 489 807 543 807 q 393 785 435 807 q 327 718 351 764 q 300 600 303 672 q 299 487 299 540 q 300 372 299 433 q 356 215 304 264 q 489 165 407 165 z "},"Ó":{"ha":976,"x_min":71,"x_max":907,"o":"m 489 -14 q 271 28 363 -14 q 128 153 179 69 q 72 365 76 238 q 71 484 71 425 q 72 604 71 543 q 128 815 76 729 q 273 943 181 900 q 489 986 365 986 q 703 943 611 986 q 849 815 796 900 q 904 604 901 729 q 907 484 907 543 q 904 365 907 425 q 849 153 900 238 q 706 28 797 69 q 489 -14 614 -14 m 489 165 q 622 215 569 165 q 676 372 674 264 q 679 487 679 433 q 676 600 679 540 q 650 718 675 672 q 584 785 625 764 q 489 807 543 807 q 393 785 435 807 q 327 718 351 764 q 300 600 303 672 q 299 487 299 540 q 300 372 299 433 q 356 215 304 264 q 489 165 407 165 m 414 1042 q 392 1064 392 1042 q 399 1082 392 1075 l 517 1225 q 540 1247 529 1242 q 568 1251 550 1251 l 739 1251 q 765 1224 765 1251 q 758 1207 765 1214 l 579 1061 q 557 1047 568 1051 q 528 1042 546 1042 l 414 1042 z "},"Ŏ":{"ha":976,"x_min":71,"x_max":907,"o":"m 489 -14 q 271 28 363 -14 q 128 153 179 69 q 72 365 76 238 q 71 484 71 425 q 72 604 71 543 q 128 815 76 729 q 273 943 181 900 q 489 986 365 986 q 703 943 611 986 q 849 815 796 900 q 904 604 901 729 q 907 484 907 543 q 904 365 907 425 q 849 153 900 238 q 706 28 797 69 q 489 -14 614 -14 m 489 165 q 622 215 569 165 q 676 372 674 264 q 679 487 679 433 q 676 600 679 540 q 650 718 675 672 q 584 785 625 764 q 489 807 543 807 q 393 785 435 807 q 327 718 351 764 q 300 600 303 672 q 299 487 299 540 q 300 372 299 433 q 356 215 304 264 q 489 165 407 165 m 489 1032 q 370 1058 415 1032 q 305 1126 325 1083 q 285 1221 285 1169 q 292 1240 285 1232 q 311 1247 299 1247 l 392 1247 q 411 1240 404 1247 q 418 1221 418 1232 q 432 1163 418 1189 q 489 1138 446 1138 q 544 1163 531 1138 q 558 1221 558 1189 q 565 1240 558 1232 q 585 1247 572 1247 l 665 1247 q 685 1240 678 1247 q 692 1221 692 1232 q 672 1126 692 1169 q 607 1058 651 1083 q 489 1032 563 1032 z "},"Ô":{"ha":976,"x_min":71,"x_max":907,"o":"m 489 -14 q 271 28 363 -14 q 128 153 179 69 q 72 365 76 238 q 71 484 71 425 q 72 604 71 543 q 128 815 76 729 q 273 943 181 900 q 489 986 365 986 q 703 943 611 986 q 849 815 796 900 q 904 604 901 729 q 907 484 907 543 q 904 365 907 425 q 849 153 900 238 q 706 28 797 69 q 489 -14 614 -14 m 489 165 q 622 215 569 165 q 676 372 674 264 q 679 487 679 433 q 676 600 679 540 q 650 718 675 672 q 584 785 625 764 q 489 807 543 807 q 393 785 435 807 q 327 718 351 764 q 300 600 303 672 q 299 487 299 540 q 300 372 299 433 q 356 215 304 264 q 489 165 407 165 m 261 1042 q 240 1061 240 1042 q 251 1083 240 1072 l 390 1228 q 416 1247 406 1243 q 439 1251 426 1251 l 538 1251 q 562 1247 551 1251 q 586 1228 572 1243 l 724 1083 q 736 1061 736 1072 q 715 1042 736 1042 l 653 1042 q 630 1044 642 1042 q 608 1051 618 1046 l 488 1122 l 368 1051 q 347 1044 358 1046 q 324 1042 335 1042 l 261 1042 z "},"Ö":{"ha":976,"x_min":71,"x_max":907,"o":"m 489 -14 q 271 28 363 -14 q 128 153 179 69 q 72 365 76 238 q 71 484 71 425 q 72 604 71 543 q 128 815 76 729 q 273 943 181 900 q 489 986 365 986 q 703 943 611 986 q 849 815 796 900 q 904 604 901 729 q 907 484 907 543 q 904 365 907 425 q 849 153 900 238 q 706 28 797 69 q 489 -14 614 -14 m 489 165 q 622 215 569 165 q 676 372 674 264 q 679 487 679 433 q 676 600 679 540 q 650 718 675 672 q 584 785 625 764 q 489 807 543 807 q 393 785 435 807 q 327 718 351 764 q 300 600 303 672 q 299 487 299 540 q 300 372 299 433 q 356 215 304 264 q 489 165 407 165 m 588 1042 q 565 1050 574 1042 q 557 1074 557 1058 l 557 1188 q 565 1210 557 1201 q 588 1219 574 1219 l 701 1219 q 724 1210 715 1219 q 733 1188 733 1201 l 733 1074 q 724 1050 733 1058 q 701 1042 715 1042 l 588 1042 m 272 1042 q 250 1050 258 1042 q 242 1074 242 1058 l 242 1188 q 250 1210 242 1201 q 272 1219 258 1219 l 386 1219 q 409 1210 400 1219 q 418 1188 418 1201 l 418 1074 q 409 1050 418 1058 q 386 1042 400 1042 l 272 1042 z "},"Ò":{"ha":976,"x_min":71,"x_max":907,"o":"m 489 -14 q 271 28 363 -14 q 128 153 179 69 q 72 365 76 238 q 71 484 71 425 q 72 604 71 543 q 128 815 76 729 q 273 943 181 900 q 489 986 365 986 q 703 943 611 986 q 849 815 796 900 q 904 604 901 729 q 907 484 907 543 q 904 365 907 425 q 849 153 900 238 q 706 28 797 69 q 489 -14 614 -14 m 489 165 q 622 215 569 165 q 676 372 674 264 q 679 487 679 433 q 676 600 679 540 q 650 718 675 672 q 584 785 625 764 q 489 807 543 807 q 393 785 435 807 q 327 718 351 764 q 300 600 303 672 q 299 487 299 540 q 300 372 299 433 q 356 215 304 264 q 489 165 407 165 m 454 1042 q 425 1047 436 1042 q 403 1061 414 1051 l 225 1207 q 218 1224 218 1214 q 244 1251 218 1251 l 415 1251 q 443 1247 433 1251 q 467 1225 453 1242 l 585 1082 q 592 1064 592 1075 q 569 1042 592 1042 l 454 1042 z "},"Ő":{"ha":976,"x_min":71,"x_max":907,"o":"m 489 -14 q 271 28 363 -14 q 128 153 179 69 q 72 365 76 238 q 71 484 71 425 q 72 604 71 543 q 128 815 76 729 q 273 943 181 900 q 489 986 365 986 q 703 943 611 986 q 849 815 796 900 q 904 604 901 729 q 907 484 907 543 q 904 365 907 425 q 849 153 900 238 q 706 28 797 69 q 489 -14 614 -14 m 489 165 q 622 215 569 165 q 676 372 674 264 q 679 487 679 433 q 676 600 679 540 q 650 718 675 672 q 584 785 625 764 q 489 807 543 807 q 393 785 435 807 q 327 718 351 764 q 300 600 303 672 q 299 487 299 540 q 300 372 299 433 q 356 215 304 264 q 489 165 407 165 m 581 1042 q 558 1064 558 1042 q 561 1075 558 1069 q 565 1085 564 1081 l 629 1225 q 681 1251 642 1251 l 819 1251 q 847 1225 847 1251 q 839 1207 847 1215 l 710 1061 q 665 1042 693 1042 l 581 1042 m 307 1042 q 285 1064 285 1042 q 288 1075 285 1069 q 292 1085 290 1081 l 354 1225 q 406 1251 367 1251 l 544 1251 q 572 1225 572 1251 q 564 1207 572 1215 l 435 1061 q 390 1042 418 1042 l 307 1042 z "},"Ō":{"ha":976,"x_min":71,"x_max":907,"o":"m 489 -14 q 271 28 363 -14 q 128 153 179 69 q 72 365 76 238 q 71 484 71 425 q 72 604 71 543 q 128 815 76 729 q 273 943 181 900 q 489 986 365 986 q 703 943 611 986 q 849 815 796 900 q 904 604 901 729 q 907 484 907 543 q 904 365 907 425 q 849 153 900 238 q 706 28 797 69 q 489 -14 614 -14 m 489 165 q 622 215 569 165 q 676 372 674 264 q 679 487 679 433 q 676 600 679 540 q 650 718 675 672 q 584 785 625 764 q 489 807 543 807 q 393 785 435 807 q 327 718 351 764 q 300 600 303 672 q 299 487 299 540 q 300 372 299 433 q 356 215 304 264 q 489 165 407 165 m 286 1042 q 264 1050 272 1042 q 256 1074 256 1058 l 256 1163 q 264 1185 256 1176 q 286 1193 272 1193 l 689 1193 q 713 1185 704 1193 q 721 1163 721 1176 l 721 1074 q 713 1050 721 1058 q 689 1042 704 1042 l 286 1042 z "},"Ø":{"ha":976,"x_min":71,"x_max":907,"o":"m 489 -14 q 271 28 363 -14 q 128 153 179 69 q 72 365 76 238 q 71 484 71 425 q 72 604 71 543 q 128 815 76 729 q 273 943 181 900 q 489 986 365 986 q 703 943 611 986 q 849 815 796 900 q 904 604 901 729 q 907 484 907 543 q 904 365 907 425 q 849 153 900 238 q 706 28 797 69 q 489 -14 614 -14 m 489 165 q 622 215 569 165 q 676 372 674 264 q 679 487 679 433 q 676 600 679 540 q 650 718 675 672 q 584 785 625 764 q 489 807 543 807 q 393 785 435 807 q 327 718 351 764 q 300 600 303 672 q 299 487 299 540 q 300 372 299 433 q 356 215 304 264 q 489 165 407 165 m 126 -90 q 101 -74 108 -90 q 106 -40 94 -58 l 776 1043 q 786 1055 779 1047 q 807 1063 793 1063 l 853 1063 q 876 1048 869 1063 q 872 1014 883 1033 l 200 -69 q 190 -82 197 -74 q 168 -90 183 -90 l 126 -90 z "},"Ǿ":{"ha":976,"x_min":71,"x_max":907,"o":"m 489 -14 q 271 28 363 -14 q 128 153 179 69 q 72 365 76 238 q 71 484 71 425 q 72 604 71 543 q 128 815 76 729 q 273 943 181 900 q 489 986 365 986 q 703 943 611 986 q 849 815 796 900 q 904 604 901 729 q 907 484 907 543 q 904 365 907 425 q 849 153 900 238 q 706 28 797 69 q 489 -14 614 -14 m 489 165 q 622 215 569 165 q 676 372 674 264 q 679 487 679 433 q 676 600 679 540 q 650 718 675 672 q 584 785 625 764 q 489 807 543 807 q 393 785 435 807 q 327 718 351 764 q 300 600 303 672 q 299 487 299 540 q 300 372 299 433 q 356 215 304 264 q 489 165 407 165 m 126 -90 q 101 -74 108 -90 q 106 -40 94 -58 l 776 1043 q 786 1055 779 1047 q 807 1063 793 1063 l 853 1063 q 876 1048 869 1063 q 872 1014 883 1033 l 200 -69 q 190 -82 197 -74 q 168 -90 183 -90 l 126 -90 m 414 1042 q 392 1064 392 1042 q 399 1082 392 1075 l 517 1225 q 540 1247 529 1242 q 568 1251 550 1251 l 739 1251 q 765 1224 765 1251 q 758 1207 765 1214 l 579 1061 q 557 1047 568 1051 q 528 1042 546 1042 l 414 1042 z "},"Õ":{"ha":976,"x_min":71,"x_max":907,"o":"m 489 -14 q 271 28 363 -14 q 128 153 179 69 q 72 365 76 238 q 71 484 71 425 q 72 604 71 543 q 128 815 76 729 q 273 943 181 900 q 489 986 365 986 q 703 943 611 986 q 849 815 796 900 q 904 604 901 729 q 907 484 907 543 q 904 365 907 425 q 849 153 900 238 q 706 28 797 69 q 489 -14 614 -14 m 489 165 q 622 215 569 165 q 676 372 674 264 q 679 487 679 433 q 676 600 679 540 q 650 718 675 672 q 584 785 625 764 q 489 807 543 807 q 393 785 435 807 q 327 718 351 764 q 300 600 303 672 q 299 487 299 540 q 300 372 299 433 q 356 215 304 264 q 489 165 407 165 m 568 1035 q 507 1047 532 1035 q 463 1072 482 1060 q 419 1083 443 1083 q 393 1074 401 1083 q 378 1053 385 1064 q 356 1042 371 1042 l 282 1042 q 265 1049 272 1042 q 258 1065 258 1057 q 266 1115 258 1088 q 292 1169 274 1143 q 338 1213 310 1196 q 406 1231 365 1231 q 467 1218 443 1231 q 512 1193 492 1206 q 556 1181 532 1181 q 581 1192 574 1181 q 596 1213 589 1203 q 618 1224 603 1224 l 692 1224 q 710 1216 704 1224 q 717 1199 717 1208 q 708 1150 717 1178 q 682 1096 700 1122 q 636 1052 664 1069 q 568 1035 608 1035 z "},"Œ":{"ha":1322,"x_min":71,"x_max":1258,"o":"m 492 0 q 263 41 354 0 q 124 167 171 82 q 72 381 76 251 q 71 486 71 440 q 72 593 71 532 q 125 801 76 717 q 267 928 174 885 q 499 972 360 972 l 1213 972 q 1238 963 1228 972 q 1247 938 1247 953 l 1247 826 q 1238 803 1247 813 q 1213 793 1228 793 l 804 793 l 804 575 l 1182 575 q 1207 565 1197 575 q 1217 540 1217 556 l 1217 438 q 1207 414 1217 424 q 1182 404 1197 404 l 804 404 l 804 179 l 1224 179 q 1249 169 1239 179 q 1258 144 1258 160 l 1258 35 q 1249 10 1258 19 q 1224 0 1239 0 l 492 0 m 499 179 l 592 179 l 592 793 l 506 793 q 349 744 400 793 q 296 590 299 694 q 294 519 294 551 q 294 456 293 488 q 296 383 294 424 q 320 266 299 311 q 385 200 342 221 q 499 179 429 179 z "},"P":{"ha":926,"x_min":103,"x_max":888,"o":"m 138 0 q 113 10 122 0 q 103 35 103 19 l 103 938 q 113 963 103 953 q 138 972 122 972 l 517 972 q 712 938 629 972 q 841 833 794 903 q 888 658 888 763 q 841 484 888 553 q 712 382 794 415 q 517 349 629 349 l 331 349 l 331 35 q 321 10 331 19 q 296 0 311 0 l 138 0 m 326 521 l 510 521 q 620 556 581 521 q 660 660 660 590 q 624 760 660 721 q 510 799 589 799 l 326 799 l 326 521 z "},"Þ":{"ha":931,"x_min":103,"x_max":888,"o":"m 138 0 q 113 10 122 0 q 103 35 103 19 l 103 938 q 113 963 103 953 q 138 972 122 972 l 296 972 q 321 963 311 972 q 331 938 331 953 l 331 806 l 514 806 q 711 770 628 806 q 841 665 794 735 q 888 490 888 596 q 841 317 888 385 q 711 215 794 249 q 514 182 628 182 l 331 182 l 331 35 q 321 10 331 19 q 296 0 311 0 l 138 0 m 326 354 l 510 354 q 620 389 581 354 q 660 492 660 424 q 624 592 660 553 q 510 632 589 632 l 326 632 l 326 354 z "},"Q":{"ha":976,"x_min":69,"x_max":908,"o":"m 725 -90 q 692 -78 704 -90 q 674 -58 681 -67 l 624 8 q 488 -14 564 -14 q 269 28 361 -14 q 127 153 178 69 q 71 365 76 238 q 69 484 69 425 q 71 604 69 543 q 128 815 76 729 q 273 943 181 900 q 488 986 365 986 q 702 943 610 986 q 847 815 794 900 q 904 604 900 729 q 907 484 907 543 q 904 365 907 425 q 803 94 896 188 l 903 -47 q 906 -53 904 -49 q 907 -61 907 -57 q 900 -81 908 -72 q 879 -90 892 -90 l 725 -90 m 488 165 q 621 215 569 165 q 676 372 672 264 q 679 487 679 433 q 676 600 679 540 q 649 718 674 672 q 583 785 625 764 q 488 807 542 807 q 393 785 435 807 q 326 718 351 764 q 299 600 301 672 q 297 487 297 540 q 299 372 297 433 q 355 215 303 264 q 488 165 407 165 z "},"R":{"ha":947,"x_min":103,"x_max":900,"o":"m 138 0 q 113 10 122 0 q 103 35 103 19 l 103 938 q 113 963 103 953 q 138 972 122 972 l 506 972 q 779 892 679 972 q 879 663 879 813 q 831 493 879 561 q 700 392 782 425 l 896 44 q 900 29 900 36 q 892 9 900 18 q 871 0 883 0 l 717 0 q 679 13 692 0 q 661 38 667 26 l 492 356 l 324 356 l 324 35 q 314 10 324 19 q 289 0 304 0 l 138 0 m 324 532 l 501 532 q 615 567 578 532 q 651 664 651 601 q 615 763 651 726 q 501 799 579 799 l 324 799 l 324 532 z "},"Ŕ":{"ha":947,"x_min":103,"x_max":900,"o":"m 138 0 q 113 10 122 0 q 103 35 103 19 l 103 938 q 113 963 103 953 q 138 972 122 972 l 506 972 q 779 892 679 972 q 879 663 879 813 q 831 493 879 561 q 700 392 782 425 l 896 44 q 900 29 900 36 q 892 9 900 18 q 871 0 883 0 l 717 0 q 679 13 692 0 q 661 38 667 26 l 492 356 l 324 356 l 324 35 q 314 10 324 19 q 289 0 304 0 l 138 0 m 324 532 l 501 532 q 615 567 578 532 q 651 664 651 601 q 615 763 651 726 q 501 799 579 799 l 324 799 l 324 532 m 371 1042 q 349 1064 349 1042 q 356 1082 349 1075 l 474 1225 q 497 1247 486 1242 q 525 1251 507 1251 l 696 1251 q 722 1224 722 1251 q 715 1207 722 1214 l 536 1061 q 514 1047 525 1051 q 485 1042 503 1042 l 371 1042 z "},"Ř":{"ha":947,"x_min":103,"x_max":900,"o":"m 138 0 q 113 10 122 0 q 103 35 103 19 l 103 938 q 113 963 103 953 q 138 972 122 972 l 506 972 q 779 892 679 972 q 879 663 879 813 q 831 493 879 561 q 700 392 782 425 l 896 44 q 900 29 900 36 q 892 9 900 18 q 871 0 883 0 l 717 0 q 679 13 692 0 q 661 38 667 26 l 492 356 l 324 356 l 324 35 q 314 10 324 19 q 289 0 304 0 l 138 0 m 324 532 l 501 532 q 615 567 578 532 q 651 664 651 601 q 615 763 651 726 q 501 799 579 799 l 324 799 l 324 532 m 396 1042 q 373 1047 383 1042 q 347 1065 363 1051 l 208 1210 q 197 1232 197 1221 q 218 1251 197 1251 l 281 1251 q 303 1249 292 1251 q 325 1242 315 1247 l 444 1171 l 565 1242 q 587 1249 575 1247 q 610 1251 599 1251 l 672 1251 q 693 1232 693 1251 q 681 1210 693 1221 l 543 1065 q 519 1047 529 1051 q 494 1042 508 1042 l 396 1042 z "},"Ŗ":{"ha":947,"x_min":103,"x_max":900,"o":"m 138 0 q 113 10 122 0 q 103 35 103 19 l 103 938 q 113 963 103 953 q 138 972 122 972 l 506 972 q 779 892 679 972 q 879 663 879 813 q 831 493 879 561 q 700 392 782 425 l 896 44 q 900 29 900 36 q 892 9 900 18 q 871 0 883 0 l 717 0 q 679 13 692 0 q 661 38 667 26 l 492 356 l 324 356 l 324 35 q 314 10 324 19 q 289 0 304 0 l 138 0 m 324 532 l 501 532 q 615 567 578 532 q 651 664 651 601 q 615 763 651 726 q 501 799 579 799 l 324 799 l 324 532 m 368 -321 q 350 -312 357 -321 q 343 -290 343 -303 l 369 -115 q 383 -83 372 -97 q 418 -69 394 -69 l 556 -69 q 574 -78 567 -69 q 581 -96 581 -86 q 578 -112 581 -106 l 511 -283 q 495 -309 506 -297 q 464 -321 485 -321 l 368 -321 z "},"S":{"ha":906,"x_min":46,"x_max":860,"o":"m 453 -14 q 230 25 319 -14 q 94 126 140 64 q 46 260 49 189 q 54 280 46 271 q 75 289 63 289 l 224 289 q 251 281 242 289 q 269 263 261 274 q 301 217 279 239 q 360 180 322 194 q 453 165 397 165 q 588 194 543 165 q 633 274 633 224 q 609 332 633 310 q 533 372 585 354 q 394 411 481 390 q 217 469 290 433 q 108 560 144 504 q 71 700 71 617 q 117 848 71 783 q 246 949 163 913 q 444 986 329 986 q 609 961 538 986 q 728 896 681 936 q 801 810 776 856 q 828 721 826 764 q 819 701 828 710 q 799 692 811 692 l 643 692 q 618 697 629 692 q 600 717 607 703 q 551 780 592 753 q 444 807 510 807 q 337 782 376 807 q 297 706 297 757 q 317 649 297 672 q 385 609 338 626 q 513 571 433 592 q 711 511 635 546 q 824 422 788 476 q 860 283 860 367 q 808 124 860 190 q 665 22 756 57 q 453 -14 574 -14 z "},"Ś":{"ha":906,"x_min":46,"x_max":860,"o":"m 453 -14 q 230 25 319 -14 q 94 126 140 64 q 46 260 49 189 q 54 280 46 271 q 75 289 63 289 l 224 289 q 251 281 242 289 q 269 263 261 274 q 301 217 279 239 q 360 180 322 194 q 453 165 397 165 q 588 194 543 165 q 633 274 633 224 q 609 332 633 310 q 533 372 585 354 q 394 411 481 390 q 217 469 290 433 q 108 560 144 504 q 71 700 71 617 q 117 848 71 783 q 246 949 163 913 q 444 986 329 986 q 609 961 538 986 q 728 896 681 936 q 801 810 776 856 q 828 721 826 764 q 819 701 828 710 q 799 692 811 692 l 643 692 q 618 697 629 692 q 600 717 607 703 q 551 780 592 753 q 444 807 510 807 q 337 782 376 807 q 297 706 297 757 q 317 649 297 672 q 385 609 338 626 q 513 571 433 592 q 711 511 635 546 q 824 422 788 476 q 860 283 860 367 q 808 124 860 190 q 665 22 756 57 q 453 -14 574 -14 m 379 1042 q 357 1064 357 1042 q 364 1082 357 1075 l 482 1225 q 505 1247 494 1242 q 533 1251 515 1251 l 704 1251 q 731 1224 731 1251 q 724 1207 731 1214 l 544 1061 q 522 1047 533 1051 q 493 1042 511 1042 l 379 1042 z "},"Š":{"ha":906,"x_min":46,"x_max":860,"o":"m 453 -14 q 230 25 319 -14 q 94 126 140 64 q 46 260 49 189 q 54 280 46 271 q 75 289 63 289 l 224 289 q 251 281 242 289 q 269 263 261 274 q 301 217 279 239 q 360 180 322 194 q 453 165 397 165 q 588 194 543 165 q 633 274 633 224 q 609 332 633 310 q 533 372 585 354 q 394 411 481 390 q 217 469 290 433 q 108 560 144 504 q 71 700 71 617 q 117 848 71 783 q 246 949 163 913 q 444 986 329 986 q 609 961 538 986 q 728 896 681 936 q 801 810 776 856 q 828 721 826 764 q 819 701 828 710 q 799 692 811 692 l 643 692 q 618 697 629 692 q 600 717 607 703 q 551 780 592 753 q 444 807 510 807 q 337 782 376 807 q 297 706 297 757 q 317 649 297 672 q 385 609 338 626 q 513 571 433 592 q 711 511 635 546 q 824 422 788 476 q 860 283 860 367 q 808 124 860 190 q 665 22 756 57 q 453 -14 574 -14 m 404 1042 q 381 1047 392 1042 q 356 1065 371 1051 l 217 1210 q 206 1232 206 1221 q 226 1251 206 1251 l 289 1251 q 312 1249 300 1251 q 333 1242 324 1247 l 453 1171 l 574 1242 q 595 1249 583 1247 q 618 1251 607 1251 l 681 1251 q 701 1232 701 1251 q 689 1210 701 1221 l 551 1065 q 527 1047 538 1051 q 503 1042 517 1042 l 404 1042 z "},"Ş":{"ha":906,"x_min":46,"x_max":860,"o":"m 450 -306 q 382 -293 413 -306 q 339 -264 351 -281 q 339 -235 326 -247 l 364 -212 q 385 -206 376 -201 q 408 -219 394 -211 q 450 -228 422 -228 q 485 -215 471 -228 q 499 -183 499 -203 q 485 -153 499 -165 q 450 -140 472 -140 q 418 -145 432 -140 q 392 -151 404 -150 q 371 -143 381 -153 l 344 -117 q 338 -98 336 -108 q 346 -72 339 -87 l 374 -10 q 194 42 267 1 q 84 140 121 82 q 46 260 47 197 q 54 280 46 271 q 75 289 63 289 l 224 289 q 251 281 242 289 q 269 263 261 274 q 301 217 279 239 q 360 180 322 194 q 453 165 397 165 q 588 194 543 165 q 633 274 633 224 q 609 332 633 310 q 533 372 585 354 q 394 411 481 390 q 217 469 290 433 q 108 560 144 504 q 71 700 71 617 q 117 848 71 783 q 246 949 163 913 q 444 986 329 986 q 609 961 538 986 q 728 896 681 936 q 801 810 776 856 q 828 721 826 764 q 819 701 828 710 q 799 692 811 692 l 643 692 q 618 697 629 692 q 600 717 607 703 q 551 780 592 753 q 444 807 510 807 q 337 782 376 807 q 297 706 297 757 q 317 649 297 672 q 385 609 338 626 q 513 571 433 592 q 711 511 635 546 q 824 422 788 476 q 860 283 860 367 q 808 124 860 190 q 666 23 757 58 q 456 -14 575 -12 l 428 -71 q 451 -65 436 -67 q 475 -62 465 -62 q 553 -96 524 -62 q 583 -182 583 -129 q 549 -270 583 -235 q 450 -306 514 -306 z "},"Ŝ":{"ha":906,"x_min":46,"x_max":860,"o":"m 453 -14 q 230 25 319 -14 q 94 126 140 64 q 46 260 49 189 q 54 280 46 271 q 75 289 63 289 l 224 289 q 251 281 242 289 q 269 263 261 274 q 301 217 279 239 q 360 180 322 194 q 453 165 397 165 q 588 194 543 165 q 633 274 633 224 q 609 332 633 310 q 533 372 585 354 q 394 411 481 390 q 217 469 290 433 q 108 560 144 504 q 71 700 71 617 q 117 848 71 783 q 246 949 163 913 q 444 986 329 986 q 609 961 538 986 q 728 896 681 936 q 801 810 776 856 q 828 721 826 764 q 819 701 828 710 q 799 692 811 692 l 643 692 q 618 697 629 692 q 600 717 607 703 q 551 780 592 753 q 444 807 510 807 q 337 782 376 807 q 297 706 297 757 q 317 649 297 672 q 385 609 338 626 q 513 571 433 592 q 711 511 635 546 q 824 422 788 476 q 860 283 860 367 q 808 124 860 190 q 665 22 756 57 q 453 -14 574 -14 m 226 1042 q 206 1061 206 1042 q 217 1083 206 1072 l 356 1228 q 381 1247 371 1243 q 404 1251 392 1251 l 503 1251 q 527 1247 517 1251 q 551 1228 538 1243 l 689 1083 q 701 1061 701 1072 q 681 1042 701 1042 l 618 1042 q 595 1044 607 1042 q 574 1051 583 1046 l 453 1122 l 333 1051 q 312 1044 324 1046 q 289 1042 300 1042 l 226 1042 z "},"Ș":{"ha":906,"x_min":46,"x_max":860,"o":"m 453 -14 q 230 25 319 -14 q 94 126 140 64 q 46 260 49 189 q 54 280 46 271 q 75 289 63 289 l 224 289 q 251 281 242 289 q 269 263 261 274 q 301 217 279 239 q 360 180 322 194 q 453 165 397 165 q 588 194 543 165 q 633 274 633 224 q 609 332 633 310 q 533 372 585 354 q 394 411 481 390 q 217 469 290 433 q 108 560 144 504 q 71 700 71 617 q 117 848 71 783 q 246 949 163 913 q 444 986 329 986 q 609 961 538 986 q 728 896 681 936 q 801 810 776 856 q 828 721 826 764 q 819 701 828 710 q 799 692 811 692 l 643 692 q 618 697 629 692 q 600 717 607 703 q 551 780 592 753 q 444 807 510 807 q 337 782 376 807 q 297 706 297 757 q 317 649 297 672 q 385 609 338 626 q 513 571 433 592 q 711 511 635 546 q 824 422 788 476 q 860 283 860 367 q 808 124 860 190 q 665 22 756 57 q 453 -14 574 -14 m 340 -321 q 322 -312 329 -321 q 315 -290 315 -303 l 342 -115 q 356 -83 344 -97 q 390 -69 367 -69 l 528 -69 q 546 -78 539 -69 q 553 -96 553 -86 q 550 -112 553 -106 l 483 -283 q 467 -309 478 -297 q 436 -321 457 -321 l 340 -321 z "},"ẞ":{"ha":914,"x_min":89,"x_max":894,"o":"m 124 0 q 99 10 108 0 q 89 35 89 19 l 89 635 q 138 830 89 751 q 276 947 188 908 q 486 986 365 986 q 632 967 565 986 q 748 918 699 949 q 824 849 797 888 q 850 772 850 811 q 841 729 850 747 q 808 688 832 711 l 575 440 l 557 542 q 744 508 669 542 q 857 417 819 475 q 894 283 894 358 q 851 133 894 197 q 729 35 807 69 q 549 0 651 0 l 396 0 q 367 10 378 0 q 357 35 357 19 l 357 125 q 367 149 357 140 q 396 158 378 158 l 500 158 q 635 193 592 158 q 678 292 678 228 q 635 383 678 351 q 503 415 592 415 l 443 415 q 407 449 407 415 l 407 522 q 411 547 407 538 q 431 571 415 556 l 586 733 q 599 749 594 742 q 604 765 604 757 q 587 794 604 781 q 540 817 569 808 q 472 826 510 826 q 342 783 388 826 q 296 636 296 739 l 296 35 q 286 10 296 19 q 261 0 276 0 l 124 0 z "},"T":{"ha":857,"x_min":31,"x_max":826,"o":"m 351 0 q 326 10 336 0 q 317 35 317 19 l 317 779 l 64 779 q 40 789 50 779 q 31 813 31 799 l 31 938 q 40 963 31 953 q 64 972 50 972 l 792 972 q 817 963 807 972 q 826 938 826 953 l 826 813 q 817 789 826 799 q 792 779 807 779 l 540 779 l 540 35 q 531 10 540 19 q 506 0 521 0 l 351 0 z "},"Ŧ":{"ha":869,"x_min":36,"x_max":833,"o":"m 357 0 q 333 10 343 0 q 324 35 324 19 l 324 421 l 179 421 q 154 431 164 421 q 144 454 144 440 l 144 515 q 154 540 144 531 q 179 550 164 550 l 324 550 l 324 779 l 71 779 q 46 789 56 779 q 36 813 36 799 l 36 938 q 46 963 36 953 q 71 972 56 972 l 799 972 q 824 963 814 972 q 833 938 833 953 l 833 813 q 824 789 833 799 q 799 779 814 779 l 546 779 l 546 550 l 690 550 q 715 540 706 550 q 725 515 725 531 l 725 454 q 715 431 725 440 q 690 421 706 421 l 546 421 l 546 35 q 536 10 546 19 q 511 0 526 0 l 357 0 z "},"Ť":{"ha":857,"x_min":31,"x_max":826,"o":"m 351 0 q 326 10 336 0 q 317 35 317 19 l 317 779 l 64 779 q 40 789 50 779 q 31 813 31 799 l 31 938 q 40 963 31 953 q 64 972 50 972 l 792 972 q 817 963 807 972 q 826 938 826 953 l 826 813 q 817 789 826 799 q 792 779 807 779 l 540 779 l 540 35 q 531 10 540 19 q 506 0 521 0 l 351 0 m 379 1042 q 356 1047 367 1042 q 331 1065 346 1051 l 192 1210 q 181 1232 181 1221 q 201 1251 181 1251 l 264 1251 q 287 1249 275 1251 q 308 1242 299 1247 l 428 1171 l 549 1242 q 570 1249 558 1247 q 593 1251 582 1251 l 656 1251 q 676 1232 676 1251 q 664 1210 676 1221 l 526 1065 q 502 1047 513 1051 q 478 1042 492 1042 l 379 1042 z "},"Ț":{"ha":857,"x_min":31,"x_max":826,"o":"m 351 0 q 326 10 336 0 q 317 35 317 19 l 317 779 l 64 779 q 40 789 50 779 q 31 813 31 799 l 31 938 q 40 963 31 953 q 64 972 50 972 l 792 972 q 817 963 807 972 q 826 938 826 953 l 826 813 q 817 789 826 799 q 792 779 807 779 l 540 779 l 540 35 q 531 10 540 19 q 506 0 521 0 l 351 0 m 315 -321 q 297 -312 304 -321 q 290 -290 290 -303 l 317 -115 q 331 -83 319 -97 q 365 -69 342 -69 l 503 -69 q 521 -78 514 -69 q 528 -96 528 -86 q 525 -112 528 -106 l 458 -283 q 442 -309 453 -297 q 411 -321 432 -321 l 315 -321 z "},"U":{"ha":999,"x_min":94,"x_max":904,"o":"m 500 -14 q 286 27 378 -14 q 144 153 194 68 q 94 371 94 239 l 94 938 q 104 963 94 953 q 129 972 114 972 l 281 972 q 306 963 296 972 q 315 938 315 953 l 315 372 q 364 219 315 269 q 500 169 413 169 q 635 219 586 169 q 683 372 683 269 l 683 938 q 694 963 683 953 q 718 972 704 972 l 871 972 q 894 963 885 972 q 904 938 904 953 l 904 371 q 854 153 904 239 q 714 27 804 68 q 500 -14 624 -14 z "},"Ú":{"ha":999,"x_min":94,"x_max":904,"o":"m 500 -14 q 286 27 378 -14 q 144 153 194 68 q 94 371 94 239 l 94 938 q 104 963 94 953 q 129 972 114 972 l 281 972 q 306 963 296 972 q 315 938 315 953 l 315 372 q 364 219 315 269 q 500 169 413 169 q 635 219 586 169 q 683 372 683 269 l 683 938 q 694 963 683 953 q 718 972 704 972 l 871 972 q 894 963 885 972 q 904 938 904 953 l 904 371 q 854 153 904 239 q 714 27 804 68 q 500 -14 624 -14 m 426 1042 q 404 1064 404 1042 q 411 1082 404 1075 l 529 1225 q 552 1247 542 1242 q 581 1251 563 1251 l 751 1251 q 778 1224 778 1251 q 771 1207 778 1214 l 592 1061 q 569 1047 581 1051 q 540 1042 558 1042 l 426 1042 z "},"Ŭ":{"ha":999,"x_min":94,"x_max":904,"o":"m 500 -14 q 286 27 378 -14 q 144 153 194 68 q 94 371 94 239 l 94 938 q 104 963 94 953 q 129 972 114 972 l 281 972 q 306 963 296 972 q 315 938 315 953 l 315 372 q 364 219 315 269 q 500 169 413 169 q 635 219 586 169 q 683 372 683 269 l 683 938 q 694 963 683 953 q 718 972 704 972 l 871 972 q 894 963 885 972 q 904 938 904 953 l 904 371 q 854 153 904 239 q 714 27 804 68 q 500 -14 624 -14 m 500 1032 q 381 1058 426 1032 q 316 1126 336 1083 q 296 1221 296 1169 q 303 1240 296 1232 q 322 1247 310 1247 l 403 1247 q 422 1240 415 1247 q 429 1221 429 1232 q 443 1163 429 1189 q 500 1138 457 1138 q 556 1163 542 1138 q 569 1221 569 1189 q 576 1240 569 1232 q 596 1247 583 1247 l 676 1247 q 696 1240 689 1247 q 703 1221 703 1232 q 683 1126 703 1169 q 618 1058 663 1083 q 500 1032 574 1032 z "},"Û":{"ha":999,"x_min":94,"x_max":904,"o":"m 500 -14 q 286 27 378 -14 q 144 153 194 68 q 94 371 94 239 l 94 938 q 104 963 94 953 q 129 972 114 972 l 281 972 q 306 963 296 972 q 315 938 315 953 l 315 372 q 364 219 315 269 q 500 169 413 169 q 635 219 586 169 q 683 372 683 269 l 683 938 q 694 963 683 953 q 718 972 704 972 l 871 972 q 894 963 885 972 q 904 938 904 953 l 904 371 q 854 153 904 239 q 714 27 804 68 q 500 -14 624 -14 m 272 1042 q 251 1061 251 1042 q 263 1083 251 1072 l 401 1228 q 427 1247 417 1243 q 450 1251 438 1251 l 549 1251 q 573 1247 563 1251 q 597 1228 583 1243 l 735 1083 q 747 1061 747 1072 q 726 1042 747 1042 l 664 1042 q 641 1044 653 1042 q 619 1051 629 1046 l 499 1122 l 379 1051 q 358 1044 369 1046 q 335 1042 346 1042 l 272 1042 z "},"Ü":{"ha":999,"x_min":94,"x_max":904,"o":"m 500 -14 q 286 27 378 -14 q 144 153 194 68 q 94 371 94 239 l 94 938 q 104 963 94 953 q 129 972 114 972 l 281 972 q 306 963 296 972 q 315 938 315 953 l 315 372 q 364 219 315 269 q 500 169 413 169 q 635 219 586 169 q 683 372 683 269 l 683 938 q 694 963 683 953 q 718 972 704 972 l 871 972 q 894 963 885 972 q 904 938 904 953 l 904 371 q 854 153 904 239 q 714 27 804 68 q 500 -14 624 -14 m 599 1042 q 576 1050 585 1042 q 568 1074 568 1058 l 568 1188 q 576 1210 568 1201 q 599 1219 585 1219 l 713 1219 q 735 1210 726 1219 q 744 1188 744 1201 l 744 1074 q 735 1050 744 1058 q 713 1042 726 1042 l 599 1042 m 283 1042 q 261 1050 269 1042 q 253 1074 253 1058 l 253 1188 q 261 1210 253 1201 q 283 1219 269 1219 l 397 1219 q 420 1210 411 1219 q 429 1188 429 1201 l 429 1074 q 420 1050 429 1058 q 397 1042 411 1042 l 283 1042 z "},"Ù":{"ha":999,"x_min":94,"x_max":904,"o":"m 500 -14 q 286 27 378 -14 q 144 153 194 68 q 94 371 94 239 l 94 938 q 104 963 94 953 q 129 972 114 972 l 281 972 q 306 963 296 972 q 315 938 315 953 l 315 372 q 364 219 315 269 q 500 169 413 169 q 635 219 586 169 q 683 372 683 269 l 683 938 q 694 963 683 953 q 718 972 704 972 l 871 972 q 894 963 885 972 q 904 938 904 953 l 904 371 q 854 153 904 239 q 714 27 804 68 q 500 -14 624 -14 m 465 1042 q 436 1047 447 1042 q 414 1061 425 1051 l 236 1207 q 229 1224 229 1214 q 256 1251 229 1251 l 426 1251 q 454 1247 444 1251 q 478 1225 464 1242 l 596 1082 q 603 1064 603 1075 q 581 1042 603 1042 l 465 1042 z "},"Ű":{"ha":999,"x_min":94,"x_max":904,"o":"m 500 -14 q 286 27 378 -14 q 144 153 194 68 q 94 371 94 239 l 94 938 q 104 963 94 953 q 129 972 114 972 l 281 972 q 306 963 296 972 q 315 938 315 953 l 315 372 q 364 219 315 269 q 500 169 413 169 q 635 219 586 169 q 683 372 683 269 l 683 938 q 694 963 683 953 q 718 972 704 972 l 871 972 q 894 963 885 972 q 904 938 904 953 l 904 371 q 854 153 904 239 q 714 27 804 68 q 500 -14 624 -14 m 592 1042 q 569 1064 569 1042 q 572 1075 569 1069 q 576 1085 575 1081 l 640 1225 q 692 1251 653 1251 l 831 1251 q 858 1225 858 1251 q 850 1207 858 1215 l 721 1061 q 676 1042 704 1042 l 592 1042 m 318 1042 q 296 1064 296 1042 q 299 1075 296 1069 q 303 1085 301 1081 l 365 1225 q 417 1251 378 1251 l 556 1251 q 583 1225 583 1251 q 575 1207 583 1215 l 446 1061 q 401 1042 429 1042 l 318 1042 z "},"Ū":{"ha":999,"x_min":94,"x_max":904,"o":"m 500 -14 q 286 27 378 -14 q 144 153 194 68 q 94 371 94 239 l 94 938 q 104 963 94 953 q 129 972 114 972 l 281 972 q 306 963 296 972 q 315 938 315 953 l 315 372 q 364 219 315 269 q 500 169 413 169 q 635 219 586 169 q 683 372 683 269 l 683 938 q 694 963 683 953 q 718 972 704 972 l 871 972 q 894 963 885 972 q 904 938 904 953 l 904 371 q 854 153 904 239 q 714 27 804 68 q 500 -14 624 -14 m 297 1042 q 275 1050 283 1042 q 267 1074 267 1058 l 267 1163 q 275 1185 267 1176 q 297 1193 283 1193 l 700 1193 q 724 1185 715 1193 q 732 1163 732 1176 l 732 1074 q 724 1050 732 1058 q 700 1042 715 1042 l 297 1042 z "},"Ų":{"ha":999,"x_min":94,"x_max":904,"o":"m 603 -306 q 485 -278 532 -306 q 414 -201 438 -250 q 390 -90 390 -153 q 394 -43 390 -64 q 403 -6 397 -22 q 177 107 260 15 q 94 371 94 199 l 94 938 q 104 963 94 953 q 129 972 114 972 l 281 972 q 306 963 296 972 q 315 938 315 953 l 315 372 q 364 219 315 269 q 500 169 413 169 q 635 219 586 169 q 683 372 683 269 l 683 938 q 694 963 683 953 q 718 972 704 972 l 871 972 q 894 963 885 972 q 904 938 904 953 l 904 371 q 867 178 904 257 q 760 55 829 100 q 597 -7 692 10 q 540 -34 560 -14 q 521 -90 521 -54 q 543 -154 521 -128 q 608 -181 565 -181 l 625 -181 q 650 -190 640 -181 q 660 -214 660 -200 l 660 -271 q 650 -296 660 -286 q 625 -306 640 -306 l 603 -306 z "},"Ů":{"ha":999,"x_min":94,"x_max":904,"o":"m 500 -14 q 286 27 378 -14 q 144 153 194 68 q 94 371 94 239 l 94 938 q 104 963 94 953 q 129 972 114 972 l 281 972 q 306 963 296 972 q 315 938 315 953 l 315 372 q 364 219 315 269 q 500 169 413 169 q 635 219 586 169 q 683 372 683 269 l 683 938 q 694 963 683 953 q 718 972 704 972 l 871 972 q 894 963 885 972 q 904 938 904 953 l 904 371 q 854 153 904 239 q 714 27 804 68 q 500 -14 624 -14 m 500 1028 q 412 1061 449 1028 q 375 1146 375 1094 q 412 1231 375 1197 q 500 1265 449 1265 q 588 1231 551 1265 q 625 1146 625 1197 q 588 1061 625 1094 q 500 1028 551 1028 m 500 1104 q 530 1116 518 1104 q 542 1146 542 1128 q 530 1176 542 1164 q 500 1188 518 1188 q 470 1176 482 1188 q 458 1146 458 1164 q 470 1116 458 1128 q 500 1104 482 1104 z "},"Ũ":{"ha":999,"x_min":94,"x_max":904,"o":"m 500 -14 q 286 27 378 -14 q 144 153 194 68 q 94 371 94 239 l 94 938 q 104 963 94 953 q 129 972 114 972 l 281 972 q 306 963 296 972 q 315 938 315 953 l 315 372 q 364 219 315 269 q 500 169 413 169 q 635 219 586 169 q 683 372 683 269 l 683 938 q 694 963 683 953 q 718 972 704 972 l 871 972 q 894 963 885 972 q 904 938 904 953 l 904 371 q 854 153 904 239 q 714 27 804 68 q 500 -14 624 -14 m 581 1035 q 519 1047 544 1035 q 475 1072 494 1060 q 432 1083 456 1083 q 406 1074 414 1083 q 390 1053 397 1064 q 368 1042 383 1042 l 294 1042 q 278 1049 285 1042 q 271 1065 271 1057 q 278 1115 271 1088 q 304 1169 286 1143 q 350 1213 322 1196 q 418 1231 378 1231 q 480 1218 456 1231 q 524 1193 504 1206 q 568 1181 544 1181 q 594 1192 586 1181 q 608 1213 601 1203 q 631 1224 615 1224 l 704 1224 q 723 1216 717 1224 q 729 1199 729 1208 q 721 1150 729 1178 q 694 1096 713 1122 q 649 1052 676 1069 q 581 1035 621 1035 z "},"V":{"ha":949,"x_min":36,"x_max":913,"o":"m 383 0 q 348 12 361 0 q 329 40 335 24 l 38 931 q 36 943 36 938 q 44 963 36 954 q 65 972 53 972 l 211 972 q 244 960 232 972 q 258 939 256 949 l 475 260 l 690 939 q 706 960 694 949 q 738 972 717 972 l 883 972 q 904 963 896 972 q 913 943 913 954 q 911 931 913 938 l 619 40 q 602 12 615 24 q 565 0 589 0 l 383 0 z "},"W":{"ha":1143,"x_min":50,"x_max":1093,"o":"m 261 0 q 226 13 239 0 q 210 43 213 25 l 51 933 q 50 939 50 936 q 50 943 50 942 q 58 963 50 954 q 79 972 67 972 l 225 972 q 265 943 261 972 l 369 356 l 482 721 q 496 744 486 732 q 528 757 506 757 l 615 757 q 647 744 638 757 q 660 721 657 732 l 774 357 l 876 943 q 918 972 881 972 l 1064 972 q 1085 963 1076 972 q 1093 943 1093 954 q 1093 939 1093 942 q 1092 933 1093 936 l 933 43 q 917 13 931 25 q 882 0 904 0 l 769 0 q 735 12 747 0 q 719 36 724 24 l 571 467 l 424 36 q 408 12 419 24 q 372 0 396 0 l 261 0 z "},"Ẃ":{"ha":1143,"x_min":50,"x_max":1093,"o":"m 261 0 q 226 13 239 0 q 210 43 213 25 l 51 933 q 50 939 50 936 q 50 943 50 942 q 58 963 50 954 q 79 972 67 972 l 225 972 q 265 943 261 972 l 369 356 l 482 721 q 496 744 486 732 q 528 757 506 757 l 615 757 q 647 744 638 757 q 660 721 657 732 l 774 357 l 876 943 q 918 972 881 972 l 1064 972 q 1085 963 1076 972 q 1093 943 1093 954 q 1093 939 1093 942 q 1092 933 1093 936 l 933 43 q 917 13 931 25 q 882 0 904 0 l 769 0 q 735 12 747 0 q 719 36 724 24 l 571 467 l 424 36 q 408 12 419 24 q 372 0 396 0 l 261 0 m 497 1042 q 475 1064 475 1042 q 482 1082 475 1075 l 600 1225 q 623 1247 613 1242 q 651 1251 633 1251 l 822 1251 q 849 1224 849 1251 q 842 1207 849 1214 l 663 1061 q 640 1047 651 1051 q 611 1042 629 1042 l 497 1042 z "},"Ŵ":{"ha":1143,"x_min":50,"x_max":1093,"o":"m 261 0 q 226 13 239 0 q 210 43 213 25 l 51 933 q 50 939 50 936 q 50 943 50 942 q 58 963 50 954 q 79 972 67 972 l 225 972 q 265 943 261 972 l 369 356 l 482 721 q 496 744 486 732 q 528 757 506 757 l 615 757 q 647 744 638 757 q 660 721 657 732 l 774 357 l 876 943 q 918 972 881 972 l 1064 972 q 1085 963 1076 972 q 1093 943 1093 954 q 1093 939 1093 942 q 1092 933 1093 936 l 933 43 q 917 13 931 25 q 882 0 904 0 l 769 0 q 735 12 747 0 q 719 36 724 24 l 571 467 l 424 36 q 408 12 419 24 q 372 0 396 0 l 261 0 m 344 1042 q 324 1061 324 1042 q 335 1083 324 1072 l 474 1228 q 499 1247 489 1243 q 522 1251 510 1251 l 621 1251 q 645 1247 635 1251 q 669 1228 656 1243 l 807 1083 q 819 1061 819 1072 q 799 1042 819 1042 l 736 1042 q 713 1044 725 1042 q 692 1051 701 1046 l 571 1122 l 451 1051 q 430 1044 442 1046 q 407 1042 418 1042 l 344 1042 z "},"Ẅ":{"ha":1143,"x_min":50,"x_max":1093,"o":"m 261 0 q 226 13 239 0 q 210 43 213 25 l 51 933 q 50 939 50 936 q 50 943 50 942 q 58 963 50 954 q 79 972 67 972 l 225 972 q 265 943 261 972 l 369 356 l 482 721 q 496 744 486 732 q 528 757 506 757 l 615 757 q 647 744 638 757 q 660 721 657 732 l 774 357 l 876 943 q 918 972 881 972 l 1064 972 q 1085 963 1076 972 q 1093 943 1093 954 q 1093 939 1093 942 q 1092 933 1093 936 l 933 43 q 917 13 931 25 q 882 0 904 0 l 769 0 q 735 12 747 0 q 719 36 724 24 l 571 467 l 424 36 q 408 12 419 24 q 372 0 396 0 l 261 0 m 671 1042 q 649 1050 657 1042 q 640 1074 640 1058 l 640 1188 q 649 1210 640 1201 q 671 1219 657 1219 l 785 1219 q 808 1210 799 1219 q 817 1188 817 1201 l 817 1074 q 808 1050 817 1058 q 785 1042 799 1042 l 671 1042 m 356 1042 q 333 1050 342 1042 q 325 1074 325 1058 l 325 1188 q 333 1210 325 1201 q 356 1219 342 1219 l 469 1219 q 492 1210 483 1219 q 501 1188 501 1201 l 501 1074 q 492 1050 501 1058 q 469 1042 483 1042 l 356 1042 z "},"Ẁ":{"ha":1143,"x_min":50,"x_max":1093,"o":"m 261 0 q 226 13 239 0 q 210 43 213 25 l 51 933 q 50 939 50 936 q 50 943 50 942 q 58 963 50 954 q 79 972 67 972 l 225 972 q 265 943 261 972 l 369 356 l 482 721 q 496 744 486 732 q 528 757 506 757 l 615 757 q 647 744 638 757 q 660 721 657 732 l 774 357 l 876 943 q 918 972 881 972 l 1064 972 q 1085 963 1076 972 q 1093 943 1093 954 q 1093 939 1093 942 q 1092 933 1093 936 l 933 43 q 917 13 931 25 q 882 0 904 0 l 769 0 q 735 12 747 0 q 719 36 724 24 l 571 467 l 424 36 q 408 12 419 24 q 372 0 396 0 l 261 0 m 538 1042 q 508 1047 519 1042 q 486 1061 497 1051 l 308 1207 q 301 1224 301 1214 q 328 1251 301 1251 l 499 1251 q 526 1247 517 1251 q 550 1225 536 1242 l 668 1082 q 675 1064 675 1075 q 653 1042 675 1042 l 538 1042 z "},"X":{"ha":939,"x_min":21,"x_max":918,"o":"m 50 0 q 29 9 38 0 q 21 29 21 18 q 22 38 21 33 q 25 46 24 42 l 332 496 l 46 926 q 42 943 42 935 q 50 963 42 954 q 71 972 58 972 l 242 972 q 270 963 260 972 q 286 944 281 953 l 472 668 l 660 944 q 676 963 665 953 q 706 972 688 972 l 868 972 q 888 963 879 972 q 897 943 897 954 q 892 926 897 933 l 606 497 l 914 46 q 917 38 917 42 q 918 29 918 33 q 910 9 918 18 q 889 0 901 0 l 713 0 q 684 10 694 0 q 668 26 674 19 l 465 318 l 264 26 q 249 10 260 19 q 219 0 239 0 l 50 0 z "},"Y":{"ha":933,"x_min":26,"x_max":907,"o":"m 390 0 q 365 10 375 0 q 356 35 356 19 l 356 340 l 31 928 q 28 935 29 932 q 26 943 26 939 q 35 963 26 954 q 56 972 44 972 l 203 972 q 233 963 222 972 q 249 944 244 953 l 467 563 l 685 944 q 700 963 689 953 q 731 972 711 972 l 878 972 q 898 963 889 972 q 907 943 907 954 q 906 935 907 939 q 903 928 904 932 l 578 340 l 578 35 q 568 10 578 19 q 543 0 558 0 l 390 0 z "},"Ý":{"ha":933,"x_min":26,"x_max":907,"o":"m 390 0 q 365 10 375 0 q 356 35 356 19 l 356 340 l 31 928 q 28 935 29 932 q 26 943 26 939 q 35 963 26 954 q 56 972 44 972 l 203 972 q 233 963 222 972 q 249 944 244 953 l 467 563 l 685 944 q 700 963 689 953 q 731 972 711 972 l 878 972 q 898 963 889 972 q 907 943 907 954 q 906 935 907 939 q 903 928 904 932 l 578 340 l 578 35 q 568 10 578 19 q 543 0 558 0 l 390 0 m 393 1042 q 371 1064 371 1042 q 378 1082 371 1075 l 496 1225 q 519 1247 508 1242 q 547 1251 529 1251 l 718 1251 q 744 1224 744 1251 q 738 1207 744 1214 l 558 1061 q 536 1047 547 1051 q 507 1042 525 1042 l 393 1042 z "},"Ŷ":{"ha":933,"x_min":26,"x_max":907,"o":"m 390 0 q 365 10 375 0 q 356 35 356 19 l 356 340 l 31 928 q 28 935 29 932 q 26 943 26 939 q 35 963 26 954 q 56 972 44 972 l 203 972 q 233 963 222 972 q 249 944 244 953 l 467 563 l 685 944 q 700 963 689 953 q 731 972 711 972 l 878 972 q 898 963 889 972 q 907 943 907 954 q 906 935 907 939 q 903 928 904 932 l 578 340 l 578 35 q 568 10 578 19 q 543 0 558 0 l 390 0 m 240 1042 q 219 1061 219 1042 q 231 1083 219 1072 l 369 1228 q 395 1247 385 1243 q 418 1251 406 1251 l 517 1251 q 541 1247 531 1251 q 565 1228 551 1243 l 703 1083 q 715 1061 715 1072 q 694 1042 715 1042 l 632 1042 q 609 1044 621 1042 q 588 1051 597 1046 l 467 1122 l 347 1051 q 326 1044 338 1046 q 303 1042 314 1042 l 240 1042 z "},"Ÿ":{"ha":933,"x_min":26,"x_max":907,"o":"m 390 0 q 365 10 375 0 q 356 35 356 19 l 356 340 l 31 928 q 28 935 29 932 q 26 943 26 939 q 35 963 26 954 q 56 972 44 972 l 203 972 q 233 963 222 972 q 249 944 244 953 l 467 563 l 685 944 q 700 963 689 953 q 731 972 711 972 l 878 972 q 898 963 889 972 q 907 943 907 954 q 906 935 907 939 q 903 928 904 932 l 578 340 l 578 35 q 568 10 578 19 q 543 0 558 0 l 390 0 m 567 1042 q 544 1050 553 1042 q 536 1074 536 1058 l 536 1188 q 544 1210 536 1201 q 567 1219 553 1219 l 681 1219 q 703 1210 694 1219 q 713 1188 713 1201 l 713 1074 q 703 1050 713 1058 q 681 1042 694 1042 l 567 1042 m 251 1042 q 229 1050 238 1042 q 221 1074 221 1058 l 221 1188 q 229 1210 221 1201 q 251 1219 238 1219 l 365 1219 q 388 1210 379 1219 q 397 1188 397 1201 l 397 1074 q 388 1050 397 1058 q 365 1042 379 1042 l 251 1042 z "},"Ỳ":{"ha":933,"x_min":26,"x_max":907,"o":"m 390 0 q 365 10 375 0 q 356 35 356 19 l 356 340 l 31 928 q 28 935 29 932 q 26 943 26 939 q 35 963 26 954 q 56 972 44 972 l 203 972 q 233 963 222 972 q 249 944 244 953 l 467 563 l 685 944 q 700 963 689 953 q 731 972 711 972 l 878 972 q 898 963 889 972 q 907 943 907 954 q 906 935 907 939 q 903 928 904 932 l 578 340 l 578 35 q 568 10 578 19 q 543 0 558 0 l 390 0 m 432 1042 q 403 1047 414 1042 q 381 1061 392 1051 l 203 1207 q 196 1224 196 1214 q 222 1251 196 1251 l 393 1251 q 421 1247 411 1251 q 444 1225 431 1242 l 563 1082 q 569 1064 569 1075 q 547 1042 569 1042 l 432 1042 z "},"Z":{"ha":885,"x_min":53,"x_max":833,"o":"m 88 0 q 63 10 72 0 q 53 35 53 21 l 53 151 q 61 183 53 171 q 74 201 69 196 l 540 788 l 100 788 q 76 797 86 788 q 67 821 67 807 l 67 938 q 76 963 67 953 q 100 972 86 972 l 782 972 q 808 963 797 972 q 818 938 818 953 l 818 822 q 813 795 818 807 q 800 775 807 783 l 346 186 l 799 186 q 824 176 814 186 q 833 151 833 167 l 833 35 q 824 10 833 19 q 799 0 814 0 l 88 0 z "},"Ź":{"ha":885,"x_min":53,"x_max":833,"o":"m 88 0 q 63 10 72 0 q 53 35 53 21 l 53 151 q 61 183 53 171 q 74 201 69 196 l 540 788 l 100 788 q 76 797 86 788 q 67 821 67 807 l 67 938 q 76 963 67 953 q 100 972 86 972 l 782 972 q 808 963 797 972 q 818 938 818 953 l 818 822 q 813 795 818 807 q 800 775 807 783 l 346 186 l 799 186 q 824 176 814 186 q 833 151 833 167 l 833 35 q 824 10 833 19 q 799 0 814 0 l 88 0 m 356 1042 q 333 1064 333 1042 q 340 1082 333 1075 l 458 1225 q 481 1247 471 1242 q 510 1251 492 1251 l 681 1251 q 707 1224 707 1251 q 700 1207 707 1214 l 521 1061 q 499 1047 510 1051 q 469 1042 488 1042 l 356 1042 z "},"Ž":{"ha":885,"x_min":53,"x_max":833,"o":"m 88 0 q 63 10 72 0 q 53 35 53 21 l 53 151 q 61 183 53 171 q 74 201 69 196 l 540 788 l 100 788 q 76 797 86 788 q 67 821 67 807 l 67 938 q 76 963 67 953 q 100 972 86 972 l 782 972 q 808 963 797 972 q 818 938 818 953 l 818 822 q 813 795 818 807 q 800 775 807 783 l 346 186 l 799 186 q 824 176 814 186 q 833 151 833 167 l 833 35 q 824 10 833 19 q 799 0 814 0 l 88 0 m 381 1042 q 358 1047 368 1042 q 332 1065 347 1051 l 193 1210 q 182 1232 182 1221 q 203 1251 182 1251 l 265 1251 q 288 1249 276 1251 q 310 1242 300 1247 l 429 1171 l 550 1242 q 572 1249 560 1247 q 594 1251 583 1251 l 657 1251 q 678 1232 678 1251 q 665 1210 678 1221 l 528 1065 q 503 1047 514 1051 q 479 1042 493 1042 l 381 1042 z "},"Ż":{"ha":885,"x_min":53,"x_max":833,"o":"m 88 0 q 63 10 72 0 q 53 35 53 21 l 53 151 q 61 183 53 171 q 74 201 69 196 l 540 788 l 100 788 q 76 797 86 788 q 67 821 67 807 l 67 938 q 76 963 67 953 q 100 972 86 972 l 782 972 q 808 963 797 972 q 818 938 818 953 l 818 822 q 813 795 818 807 q 800 775 807 783 l 346 186 l 799 186 q 824 176 814 186 q 833 151 833 167 l 833 35 q 824 10 833 19 q 799 0 814 0 l 88 0 m 364 1042 q 342 1050 350 1042 q 333 1074 333 1058 l 333 1203 q 342 1226 333 1217 q 364 1235 350 1235 l 493 1235 q 516 1226 507 1235 q 525 1203 525 1217 l 525 1074 q 516 1050 525 1058 q 493 1042 507 1042 l 364 1042 z "},"a":{"ha":806,"x_min":40,"x_max":725,"o":"m 300 -14 q 168 15 226 -14 q 75 92 110 43 q 40 200 40 140 q 120 356 40 299 q 331 433 200 413 l 513 460 l 513 485 q 488 568 513 539 q 400 597 463 597 q 326 579 354 597 q 283 532 299 561 q 251 514 272 514 l 119 514 q 96 523 104 514 q 89 544 88 532 q 107 600 89 568 q 163 663 125 632 q 258 715 200 694 q 401 736 317 736 q 551 715 489 736 q 651 657 614 694 q 707 570 689 619 q 725 464 725 521 l 725 35 q 715 10 725 19 q 690 0 706 0 l 554 0 q 531 10 540 0 q 521 35 521 19 l 521 86 q 472 37 503 60 q 399 0 442 14 q 300 -14 357 -14 m 356 131 q 438 150 401 131 q 494 210 474 169 q 515 311 515 250 l 515 335 l 386 314 q 276 276 311 301 q 242 215 242 251 q 258 169 242 189 q 300 140 274 150 q 356 131 326 131 z "},"á":{"ha":806,"x_min":40,"x_max":725,"o":"m 300 -14 q 168 15 226 -14 q 75 92 110 43 q 40 200 40 140 q 120 356 40 299 q 331 433 200 413 l 513 460 l 513 485 q 488 568 513 539 q 400 597 463 597 q 326 579 354 597 q 283 532 299 561 q 251 514 272 514 l 119 514 q 96 523 104 514 q 89 544 88 532 q 107 600 89 568 q 163 663 125 632 q 258 715 200 694 q 401 736 317 736 q 551 715 489 736 q 651 657 614 694 q 707 570 689 619 q 725 464 725 521 l 725 35 q 715 10 725 19 q 690 0 706 0 l 554 0 q 531 10 540 0 q 521 35 521 19 l 521 86 q 472 37 503 60 q 399 0 442 14 q 300 -14 357 -14 m 356 131 q 438 150 401 131 q 494 210 474 169 q 515 311 515 250 l 515 335 l 386 314 q 276 276 311 301 q 242 215 242 251 q 258 169 242 189 q 300 140 274 150 q 356 131 326 131 m 331 826 q 308 849 308 826 q 315 867 308 860 l 433 1010 q 456 1031 446 1026 q 485 1036 467 1036 l 644 1036 q 671 1008 671 1036 q 664 992 671 999 l 485 846 q 463 831 474 836 q 435 826 453 826 l 331 826 z "},"ă":{"ha":806,"x_min":40,"x_max":725,"o":"m 300 -14 q 168 15 226 -14 q 75 92 110 43 q 40 200 40 140 q 120 356 40 299 q 331 433 200 413 l 513 460 l 513 485 q 488 568 513 539 q 400 597 463 597 q 326 579 354 597 q 283 532 299 561 q 251 514 272 514 l 119 514 q 96 523 104 514 q 89 544 88 532 q 107 600 89 568 q 163 663 125 632 q 258 715 200 694 q 401 736 317 736 q 551 715 489 736 q 651 657 614 694 q 707 570 689 619 q 725 464 725 521 l 725 35 q 715 10 725 19 q 690 0 706 0 l 554 0 q 531 10 540 0 q 521 35 521 19 l 521 86 q 472 37 503 60 q 399 0 442 14 q 300 -14 357 -14 m 356 131 q 438 150 401 131 q 494 210 474 169 q 515 311 515 250 l 515 335 l 386 314 q 276 276 311 301 q 242 215 242 251 q 258 169 242 189 q 300 140 274 150 q 356 131 326 131 m 400 819 q 287 846 331 819 q 223 915 243 872 q 203 1010 203 958 q 210 1028 203 1021 q 229 1036 217 1036 l 307 1036 q 326 1028 319 1036 q 333 1010 333 1021 q 347 951 333 978 q 400 925 361 925 q 453 951 440 925 q 467 1010 467 978 q 474 1028 467 1021 q 493 1036 481 1036 l 571 1036 q 590 1028 583 1036 q 597 1010 597 1021 q 576 915 597 958 q 513 846 556 872 q 400 819 469 819 z "},"â":{"ha":806,"x_min":40,"x_max":725,"o":"m 300 -14 q 168 15 226 -14 q 75 92 110 43 q 40 200 40 140 q 120 356 40 299 q 331 433 200 413 l 513 460 l 513 485 q 488 568 513 539 q 400 597 463 597 q 326 579 354 597 q 283 532 299 561 q 251 514 272 514 l 119 514 q 96 523 104 514 q 89 544 88 532 q 107 600 89 568 q 163 663 125 632 q 258 715 200 694 q 401 736 317 736 q 551 715 489 736 q 651 657 614 694 q 707 570 689 619 q 725 464 725 521 l 725 35 q 715 10 725 19 q 690 0 706 0 l 554 0 q 531 10 540 0 q 521 35 521 19 l 521 86 q 472 37 503 60 q 399 0 442 14 q 300 -14 357 -14 m 356 131 q 438 150 401 131 q 494 210 474 169 q 515 311 515 250 l 515 335 l 386 314 q 276 276 311 301 q 242 215 242 251 q 258 169 242 189 q 300 140 274 150 q 356 131 326 131 m 176 826 q 156 846 156 826 q 167 868 156 857 l 306 1013 q 330 1032 319 1028 q 354 1036 340 1036 l 446 1036 q 469 1032 458 1036 q 493 1013 479 1028 l 632 868 q 644 846 644 857 q 624 826 644 826 l 565 826 q 542 828 554 826 q 519 836 529 831 l 400 907 l 281 836 q 258 828 271 831 q 235 826 246 826 l 176 826 z "},"ä":{"ha":806,"x_min":40,"x_max":725,"o":"m 300 -14 q 168 15 226 -14 q 75 92 110 43 q 40 200 40 140 q 120 356 40 299 q 331 433 200 413 l 513 460 l 513 485 q 488 568 513 539 q 400 597 463 597 q 326 579 354 597 q 283 532 299 561 q 251 514 272 514 l 119 514 q 96 523 104 514 q 89 544 88 532 q 107 600 89 568 q 163 663 125 632 q 258 715 200 694 q 401 736 317 736 q 551 715 489 736 q 651 657 614 694 q 707 570 689 619 q 725 464 725 521 l 725 35 q 715 10 725 19 q 690 0 706 0 l 554 0 q 531 10 540 0 q 521 35 521 19 l 521 86 q 472 37 503 60 q 399 0 442 14 q 300 -14 357 -14 m 356 131 q 438 150 401 131 q 494 210 474 169 q 515 311 515 250 l 515 335 l 386 314 q 276 276 311 301 q 242 215 242 251 q 258 169 242 189 q 300 140 274 150 q 356 131 326 131 m 479 849 q 457 857 465 849 q 449 879 449 865 l 449 993 q 457 1016 449 1007 q 479 1025 465 1025 l 593 1025 q 616 1016 607 1025 q 625 993 625 1007 l 625 879 q 616 857 625 865 q 593 849 607 849 l 479 849 m 206 849 q 183 857 192 849 q 175 879 175 865 l 175 993 q 183 1016 175 1007 q 206 1025 192 1025 l 319 1025 q 342 1016 333 1025 q 351 993 351 1007 l 351 879 q 342 857 351 865 q 319 849 333 849 l 206 849 z "},"à":{"ha":806,"x_min":40,"x_max":725,"o":"m 300 -14 q 168 15 226 -14 q 75 92 110 43 q 40 200 40 140 q 120 356 40 299 q 331 433 200 413 l 513 460 l 513 485 q 488 568 513 539 q 400 597 463 597 q 326 579 354 597 q 283 532 299 561 q 251 514 272 514 l 119 514 q 96 523 104 514 q 89 544 88 532 q 107 600 89 568 q 163 663 125 632 q 258 715 200 694 q 401 736 317 736 q 551 715 489 736 q 651 657 614 694 q 707 570 689 619 q 725 464 725 521 l 725 35 q 715 10 725 19 q 690 0 706 0 l 554 0 q 531 10 540 0 q 521 35 521 19 l 521 86 q 472 37 503 60 q 399 0 442 14 q 300 -14 357 -14 m 356 131 q 438 150 401 131 q 494 210 474 169 q 515 311 515 250 l 515 335 l 386 314 q 276 276 311 301 q 242 215 242 251 q 258 169 242 189 q 300 140 274 150 q 356 131 326 131 m 371 826 q 342 831 353 826 q 321 846 332 836 l 142 992 q 135 1008 135 999 q 161 1036 135 1036 l 322 1036 q 350 1031 340 1036 q 374 1010 360 1026 l 490 867 q 497 849 497 860 q 475 826 497 826 l 371 826 z "},"ā":{"ha":806,"x_min":40,"x_max":725,"o":"m 300 -14 q 168 15 226 -14 q 75 92 110 43 q 40 200 40 140 q 120 356 40 299 q 331 433 200 413 l 513 460 l 513 485 q 488 568 513 539 q 400 597 463 597 q 326 579 354 597 q 283 532 299 561 q 251 514 272 514 l 119 514 q 96 523 104 514 q 89 544 88 532 q 107 600 89 568 q 163 663 125 632 q 258 715 200 694 q 401 736 317 736 q 551 715 489 736 q 651 657 614 694 q 707 570 689 619 q 725 464 725 521 l 725 35 q 715 10 725 19 q 690 0 706 0 l 554 0 q 531 10 540 0 q 521 35 521 19 l 521 86 q 472 37 503 60 q 399 0 442 14 q 300 -14 357 -14 m 356 131 q 438 150 401 131 q 494 210 474 169 q 515 311 515 250 l 515 335 l 386 314 q 276 276 311 301 q 242 215 242 251 q 258 169 242 189 q 300 140 274 150 q 356 131 326 131 m 215 844 q 193 853 201 844 q 185 876 185 861 l 185 960 q 193 982 185 974 q 215 990 201 990 l 583 990 q 606 982 597 990 q 614 960 614 974 l 614 876 q 606 853 614 861 q 583 844 597 844 l 215 844 z "},"ą":{"ha":806,"x_min":40,"x_max":725,"o":"m 675 -306 q 568 -279 613 -306 q 500 -206 524 -253 q 476 -96 476 -158 q 485 -45 476 -68 q 508 -4 494 -22 q 535 24 522 14 q 525 32 529 26 q 521 44 521 38 l 521 86 q 472 37 503 60 q 399 0 442 14 q 300 -14 357 -14 q 168 15 226 -14 q 75 92 110 43 q 40 200 40 140 q 120 356 40 299 q 331 433 200 413 l 513 460 l 513 485 q 488 568 513 539 q 400 597 463 597 q 338 585 363 597 q 297 556 314 572 q 265 528 281 540 q 258 517 263 521 q 247 514 254 514 l 119 514 q 97 523 106 514 q 89 544 88 532 q 107 600 89 568 q 163 663 125 632 q 258 715 200 694 q 401 736 317 736 q 551 715 489 736 q 651 657 614 694 q 707 570 689 619 q 725 464 725 521 l 725 35 q 717 13 725 22 q 696 0 710 3 l 683 0 q 625 -36 643 -11 q 607 -96 607 -61 q 625 -157 607 -133 q 681 -181 643 -181 l 690 -181 q 715 -190 706 -181 q 725 -214 725 -200 l 725 -271 q 715 -296 725 -286 q 690 -306 706 -306 l 675 -306 m 356 131 q 438 150 401 131 q 494 210 474 169 q 515 311 515 250 l 515 335 l 386 314 q 276 276 311 301 q 242 215 242 251 q 258 169 242 189 q 300 140 274 150 q 356 131 326 131 z "},"å":{"ha":806,"x_min":40,"x_max":725,"o":"m 300 -14 q 168 15 226 -14 q 75 92 110 43 q 40 200 40 140 q 120 356 40 299 q 331 433 200 413 l 513 460 l 513 485 q 488 568 513 539 q 400 597 463 597 q 326 579 354 597 q 283 532 299 561 q 251 514 272 514 l 119 514 q 96 523 104 514 q 89 544 88 532 q 107 600 89 568 q 163 663 125 632 q 258 715 200 694 q 401 736 317 736 q 551 715 489 736 q 651 657 614 694 q 707 570 689 619 q 725 464 725 521 l 725 35 q 715 10 725 19 q 690 0 706 0 l 554 0 q 531 10 540 0 q 521 35 521 19 l 521 86 q 472 37 503 60 q 399 0 442 14 q 300 -14 357 -14 m 356 131 q 438 150 401 131 q 494 210 474 169 q 515 311 515 250 l 515 335 l 386 314 q 276 276 311 301 q 242 215 242 251 q 258 169 242 189 q 300 140 274 150 q 356 131 326 131 m 400 819 q 312 853 349 819 q 275 938 275 886 q 312 1023 275 989 q 400 1057 349 1057 q 488 1023 451 1057 q 525 938 525 989 q 488 853 525 886 q 400 819 451 819 m 400 896 q 430 908 418 896 q 442 938 442 919 q 430 967 442 956 q 400 979 418 979 q 370 967 382 979 q 358 938 358 956 q 370 908 358 919 q 400 896 382 896 z "},"ã":{"ha":806,"x_min":40,"x_max":725,"o":"m 300 -14 q 168 15 226 -14 q 75 92 110 43 q 40 200 40 140 q 120 356 40 299 q 331 433 200 413 l 513 460 l 513 485 q 488 568 513 539 q 400 597 463 597 q 326 579 354 597 q 283 532 299 561 q 251 514 272 514 l 119 514 q 96 523 104 514 q 89 544 88 532 q 107 600 89 568 q 163 663 125 632 q 258 715 200 694 q 401 736 317 736 q 551 715 489 736 q 651 657 614 694 q 707 570 689 619 q 725 464 725 521 l 725 35 q 715 10 725 19 q 690 0 706 0 l 554 0 q 531 10 540 0 q 521 35 521 19 l 521 86 q 472 37 503 60 q 399 0 442 14 q 300 -14 357 -14 m 356 131 q 438 150 401 131 q 494 210 474 169 q 515 311 515 250 l 515 335 l 386 314 q 276 276 311 301 q 242 215 242 251 q 258 169 242 189 q 300 140 274 150 q 356 131 326 131 m 479 819 q 419 832 442 819 q 377 856 396 844 q 335 868 358 868 q 308 858 317 868 q 293 838 300 849 q 271 826 286 826 l 197 826 q 181 834 188 826 q 174 850 174 842 q 181 899 174 872 q 206 952 189 926 q 251 994 224 978 q 318 1011 279 1011 q 379 999 356 1011 q 422 975 403 988 q 464 963 440 963 q 490 974 482 963 q 505 995 497 985 q 528 1006 513 1006 l 600 1006 q 619 998 613 1006 q 625 981 625 990 q 617 931 625 958 q 591 878 608 904 q 546 836 574 853 q 479 819 518 819 z "},"æ":{"ha":1263,"x_min":42,"x_max":1208,"o":"m 315 -14 q 169 15 231 -14 q 74 92 107 43 q 42 200 42 140 q 121 357 42 299 q 331 435 200 415 l 514 463 l 514 486 q 488 569 514 540 q 400 597 463 597 q 339 585 363 597 q 298 556 315 572 q 265 528 281 540 q 258 517 263 521 q 247 514 254 514 l 119 514 q 97 523 106 514 q 89 544 89 532 q 106 600 89 568 q 161 663 124 632 q 258 715 199 694 q 401 736 318 736 q 549 712 493 736 q 633 650 604 688 q 730 713 674 689 q 861 736 786 736 q 1028 703 961 736 q 1134 617 1094 671 q 1191 498 1174 563 q 1208 368 1208 433 l 1208 336 q 1199 313 1208 322 q 1174 303 1189 303 l 728 303 l 728 292 q 748 197 729 233 q 797 145 767 161 q 860 129 826 129 q 922 143 892 129 q 974 186 951 157 q 994 203 986 200 q 1018 207 1001 207 l 1160 207 q 1190 178 1190 207 q 1170 125 1190 157 q 1109 61 1150 93 q 1006 8 1068 29 q 861 -14 944 -14 q 701 18 768 -14 q 594 104 635 50 q 469 13 542 39 q 315 -14 396 -14 m 357 131 q 438 150 401 131 q 494 210 474 169 q 515 311 515 250 l 515 335 l 386 314 q 278 276 313 301 q 243 215 243 251 q 259 169 243 189 q 301 140 275 150 q 357 131 326 131 m 728 429 l 993 429 l 993 435 q 960 553 993 508 q 861 597 928 597 q 796 580 825 597 q 748 526 767 563 q 728 435 729 490 l 728 429 z "},"ǽ":{"ha":1263,"x_min":42,"x_max":1208,"o":"m 315 -14 q 169 15 231 -14 q 74 92 107 43 q 42 200 42 140 q 121 357 42 299 q 331 435 200 415 l 514 463 l 514 486 q 488 569 514 540 q 400 597 463 597 q 339 585 363 597 q 298 556 315 572 q 265 528 281 540 q 258 517 263 521 q 247 514 254 514 l 119 514 q 97 523 106 514 q 89 544 89 532 q 106 600 89 568 q 161 663 124 632 q 258 715 199 694 q 401 736 318 736 q 549 712 493 736 q 633 650 604 688 q 730 713 674 689 q 861 736 786 736 q 1028 703 961 736 q 1134 617 1094 671 q 1191 498 1174 563 q 1208 368 1208 433 l 1208 336 q 1199 313 1208 322 q 1174 303 1189 303 l 728 303 l 728 292 q 748 197 729 233 q 797 145 767 161 q 860 129 826 129 q 922 143 892 129 q 974 186 951 157 q 994 203 986 200 q 1018 207 1001 207 l 1160 207 q 1190 178 1190 207 q 1170 125 1190 157 q 1109 61 1150 93 q 1006 8 1068 29 q 861 -14 944 -14 q 701 18 768 -14 q 594 104 635 50 q 469 13 542 39 q 315 -14 396 -14 m 357 131 q 438 150 401 131 q 494 210 474 169 q 515 311 515 250 l 515 335 l 386 314 q 278 276 313 301 q 243 215 243 251 q 259 169 243 189 q 301 140 275 150 q 357 131 326 131 m 728 429 l 993 429 l 993 435 q 960 553 993 508 q 861 597 928 597 q 796 580 825 597 q 748 526 767 563 q 728 435 729 490 l 728 429 m 564 826 q 542 849 542 826 q 549 867 542 860 l 667 1010 q 690 1031 679 1026 q 718 1036 700 1036 l 878 1036 q 904 1008 904 1036 q 897 992 904 999 l 718 846 q 697 831 707 836 q 668 826 686 826 l 564 826 z "},"b":{"ha":864,"x_min":88,"x_max":804,"o":"m 507 -14 q 375 13 428 -14 q 289 82 322 40 l 289 35 q 279 10 289 19 q 254 0 269 0 l 122 0 q 97 10 107 0 q 88 35 88 19 l 88 951 q 97 976 88 967 q 122 986 107 986 l 265 986 q 289 976 279 986 q 299 951 299 967 l 299 649 q 385 712 333 688 q 507 736 436 736 q 633 712 579 736 q 724 644 686 688 q 781 540 761 600 q 803 408 801 481 q 804 362 804 383 q 803 314 804 340 q 780 180 800 240 q 723 76 760 119 q 633 9 686 32 q 507 -14 579 -14 m 444 153 q 528 176 497 153 q 572 236 558 199 q 588 318 585 274 q 588 404 590 361 q 572 486 585 449 q 528 547 558 524 q 444 569 497 569 q 363 547 394 569 q 316 491 332 525 q 299 418 300 457 q 297 367 297 393 q 299 314 297 340 q 315 236 301 272 q 361 176 329 200 q 444 153 393 153 z "},"c":{"ha":806,"x_min":58,"x_max":758,"o":"m 408 -14 q 230 24 307 -14 q 108 133 153 61 q 60 304 64 204 q 58 360 58 326 q 60 417 58 394 q 108 590 64 518 q 229 699 151 661 q 408 736 307 736 q 567 710 501 736 q 674 646 632 685 q 735 565 715 607 q 757 490 756 522 q 748 466 758 476 q 724 456 738 456 l 575 456 q 553 463 561 456 q 539 485 546 471 q 489 554 519 533 q 413 575 458 575 q 314 535 350 575 q 275 410 278 494 q 275 311 274 356 q 315 186 279 225 q 413 147 350 147 q 490 168 461 147 q 539 238 519 189 q 553 259 544 251 q 575 267 561 267 l 724 267 q 748 256 738 267 q 757 232 758 246 q 744 176 756 208 q 706 111 732 144 q 640 49 681 78 q 542 3 600 21 q 408 -14 485 -14 z "},"ć":{"ha":806,"x_min":58,"x_max":758,"o":"m 408 -14 q 230 24 307 -14 q 108 133 153 61 q 60 304 64 204 q 58 360 58 326 q 60 417 58 394 q 108 590 64 518 q 229 699 151 661 q 408 736 307 736 q 567 710 501 736 q 674 646 632 685 q 735 565 715 607 q 757 490 756 522 q 748 466 758 476 q 724 456 738 456 l 575 456 q 553 463 561 456 q 539 485 546 471 q 489 554 519 533 q 413 575 458 575 q 314 535 350 575 q 275 410 278 494 q 275 311 274 356 q 315 186 279 225 q 413 147 350 147 q 490 168 461 147 q 539 238 519 189 q 553 259 544 251 q 575 267 561 267 l 724 267 q 748 256 738 267 q 757 232 758 246 q 744 176 756 208 q 706 111 732 144 q 640 49 681 78 q 542 3 600 21 q 408 -14 485 -14 m 335 826 q 313 849 313 826 q 319 867 313 860 l 438 1010 q 460 1031 450 1026 q 489 1036 471 1036 l 649 1036 q 675 1008 675 1036 q 668 992 675 999 l 489 846 q 467 831 478 836 q 439 826 457 826 l 335 826 z "},"č":{"ha":806,"x_min":58,"x_max":758,"o":"m 408 -14 q 230 24 307 -14 q 108 133 153 61 q 60 304 64 204 q 58 360 58 326 q 60 417 58 394 q 108 590 64 518 q 229 699 151 661 q 408 736 307 736 q 567 710 501 736 q 674 646 632 685 q 735 565 715 607 q 757 490 756 522 q 748 466 758 476 q 724 456 738 456 l 575 456 q 553 463 561 456 q 539 485 546 471 q 489 554 519 533 q 413 575 458 575 q 314 535 350 575 q 275 410 278 494 q 275 311 274 356 q 315 186 279 225 q 413 147 350 147 q 490 168 461 147 q 539 238 519 189 q 553 259 544 251 q 575 267 561 267 l 724 267 q 748 256 738 267 q 757 232 758 246 q 744 176 756 208 q 706 111 732 144 q 640 49 681 78 q 542 3 600 21 q 408 -14 485 -14 m 360 826 q 335 831 346 826 q 311 850 325 836 l 172 994 q 161 1017 161 1006 q 182 1036 161 1036 l 240 1036 q 264 1034 251 1036 q 286 1026 276 1032 l 406 956 l 525 1026 q 547 1034 535 1032 q 571 1036 560 1036 l 629 1036 q 650 1017 650 1036 q 638 994 650 1006 l 499 850 q 474 831 485 836 q 451 826 464 826 l 360 826 z "},"ç":{"ha":806,"x_min":58,"x_max":758,"o":"m 407 -306 q 340 -293 369 -306 q 297 -264 310 -281 q 297 -235 283 -247 l 322 -212 q 344 -206 335 -201 q 367 -219 353 -211 q 407 -228 381 -228 q 443 -215 429 -228 q 457 -183 457 -203 q 443 -153 457 -165 q 407 -140 429 -140 q 376 -145 390 -140 q 351 -151 363 -150 q 329 -143 339 -153 l 303 -117 q 296 -98 294 -108 q 304 -72 297 -87 l 333 -8 q 139 92 213 11 q 60 304 65 172 q 58 360 58 326 q 60 417 58 394 q 108 590 64 518 q 229 699 151 661 q 408 736 307 736 q 567 710 501 736 q 674 646 632 685 q 735 565 715 607 q 757 490 756 522 q 748 466 758 476 q 724 456 738 456 l 575 456 q 553 463 561 456 q 539 485 546 471 q 489 554 519 533 q 413 575 458 575 q 314 535 350 575 q 275 410 278 494 q 275 311 274 356 q 315 186 279 225 q 413 147 350 147 q 490 168 461 147 q 539 238 519 189 q 553 259 544 251 q 575 267 561 267 l 724 267 q 748 256 738 267 q 757 232 758 246 q 736 161 756 203 q 677 80 717 119 q 572 14 638 40 q 414 -14 507 -12 l 386 -71 q 409 -65 394 -67 q 432 -62 424 -62 q 512 -96 482 -62 q 542 -182 542 -129 q 506 -270 542 -235 q 407 -306 471 -306 z "},"ĉ":{"ha":806,"x_min":58,"x_max":758,"o":"m 408 -14 q 230 24 307 -14 q 108 133 153 61 q 60 304 64 204 q 58 360 58 326 q 60 417 58 394 q 108 590 64 518 q 229 699 151 661 q 408 736 307 736 q 567 710 501 736 q 674 646 632 685 q 735 565 715 607 q 757 490 756 522 q 748 466 758 476 q 724 456 738 456 l 575 456 q 553 463 561 456 q 539 485 546 471 q 489 554 519 533 q 413 575 458 575 q 314 535 350 575 q 275 410 278 494 q 275 311 274 356 q 315 186 279 225 q 413 147 350 147 q 490 168 461 147 q 539 238 519 189 q 553 259 544 251 q 575 267 561 267 l 724 267 q 748 256 738 267 q 757 232 758 246 q 744 176 756 208 q 706 111 732 144 q 640 49 681 78 q 542 3 600 21 q 408 -14 485 -14 m 182 826 q 161 846 161 826 q 172 868 161 857 l 311 1013 q 335 1032 325 1028 q 360 1036 346 1036 l 451 1036 q 474 1032 464 1036 q 499 1013 485 1028 l 638 868 q 650 846 650 857 q 629 826 650 826 l 571 826 q 547 828 560 826 q 525 836 535 831 l 406 907 l 286 836 q 264 828 276 831 q 240 826 251 826 l 182 826 z "},"ċ":{"ha":806,"x_min":58,"x_max":758,"o":"m 408 -14 q 230 24 307 -14 q 108 133 153 61 q 60 304 64 204 q 58 360 58 326 q 60 417 58 394 q 108 590 64 518 q 229 699 151 661 q 408 736 307 736 q 567 710 501 736 q 674 646 632 685 q 735 565 715 607 q 757 490 756 522 q 748 466 758 476 q 724 456 738 456 l 575 456 q 553 463 561 456 q 539 485 546 471 q 489 554 519 533 q 413 575 458 575 q 314 535 350 575 q 275 410 278 494 q 275 311 274 356 q 315 186 279 225 q 413 147 350 147 q 490 168 461 147 q 539 238 519 189 q 553 259 544 251 q 575 267 561 267 l 724 267 q 748 256 738 267 q 757 232 758 246 q 744 176 756 208 q 706 111 732 144 q 640 49 681 78 q 542 3 600 21 q 408 -14 485 -14 m 340 842 q 318 850 326 842 q 310 872 310 858 l 310 999 q 318 1022 310 1013 q 340 1031 326 1031 l 467 1031 q 490 1022 481 1031 q 499 999 499 1013 l 499 872 q 490 850 499 858 q 467 842 481 842 l 340 842 z "},"d":{"ha":864,"x_min":58,"x_max":775,"o":"m 356 -14 q 232 9 286 -14 q 140 76 178 32 q 83 180 103 119 q 60 314 64 240 q 58 362 58 340 q 60 408 58 383 q 83 540 63 481 q 140 644 103 600 q 231 712 176 688 q 356 736 286 736 q 479 712 428 736 q 564 649 531 688 l 564 951 q 574 976 564 967 q 599 986 583 986 l 742 986 q 765 976 756 986 q 775 951 775 967 l 775 35 q 765 10 775 19 q 742 0 756 0 l 608 0 q 585 10 594 0 q 575 35 575 19 l 575 82 q 488 13 540 40 q 356 -14 435 -14 m 419 153 q 502 176 471 153 q 548 236 533 200 q 564 314 563 272 q 567 367 567 340 q 564 418 567 393 q 547 491 563 457 q 501 547 532 525 q 419 569 469 569 q 336 547 367 569 q 292 486 306 524 q 276 404 279 449 q 276 318 272 361 q 292 236 279 274 q 336 176 306 199 q 419 153 367 153 z "},"ð":{"ha":826,"x_min":56,"x_max":765,"o":"m 410 -14 q 219 26 299 -14 q 98 141 140 65 q 56 319 56 217 q 99 499 56 425 q 223 613 143 574 q 410 653 303 653 q 465 646 440 653 q 510 626 489 639 q 443 747 485 693 l 294 690 q 278 686 285 686 q 258 693 267 686 q 250 713 250 700 l 250 746 q 257 772 250 763 q 281 786 264 781 l 375 822 q 324 869 351 846 q 267 915 296 893 q 250 931 254 924 q 246 943 246 938 q 254 964 246 956 q 275 972 263 972 l 422 972 q 459 967 444 972 q 483 954 474 961 q 521 924 503 939 q 554 892 539 908 l 681 940 q 697 944 692 944 q 717 938 710 944 q 725 918 725 931 l 725 885 q 718 860 725 868 q 694 844 711 851 l 624 817 q 723 630 686 739 q 764 363 760 521 q 765 339 765 351 q 764 315 765 326 q 719 140 761 214 q 599 26 676 65 q 410 -14 521 -14 m 410 139 q 488 160 457 139 q 533 217 518 181 q 549 299 549 254 q 550 319 550 310 q 549 339 550 328 q 534 421 549 385 q 490 478 519 457 q 410 500 460 500 q 331 478 361 500 q 285 421 300 457 q 271 339 271 385 q 269 319 269 328 q 271 299 269 310 q 287 217 272 254 q 332 160 301 181 q 410 139 363 139 z "},"ď":{"ha":972,"x_min":58,"x_max":1079,"o":"m 356 -14 q 232 9 286 -14 q 140 76 178 32 q 83 180 103 119 q 60 314 64 240 q 58 362 58 340 q 60 408 58 383 q 83 540 63 481 q 140 644 103 600 q 231 712 176 688 q 356 736 286 736 q 479 712 428 736 q 564 649 531 688 l 564 951 q 574 976 564 967 q 599 986 583 986 l 742 986 q 765 976 756 986 q 775 951 775 967 l 775 35 q 765 10 775 19 q 742 0 756 0 l 608 0 q 585 10 594 0 q 575 35 575 19 l 575 82 q 488 13 540 40 q 356 -14 435 -14 m 419 153 q 502 176 471 153 q 548 236 533 200 q 564 314 563 272 q 567 367 567 340 q 564 418 567 393 q 547 491 563 457 q 501 547 532 525 q 419 569 469 569 q 336 547 367 569 q 292 486 306 524 q 276 404 279 449 q 276 318 272 361 q 292 236 279 274 q 336 176 306 199 q 419 153 367 153 m 875 735 q 856 744 863 735 q 850 765 849 753 l 876 940 q 890 972 879 958 q 924 986 901 986 l 1054 986 q 1072 978 1065 986 q 1079 960 1079 969 q 1076 943 1079 950 l 1010 772 q 994 747 1004 758 q 961 735 983 735 l 875 735 z "},"đ":{"ha":864,"x_min":60,"x_max":871,"o":"m 357 -14 q 226 11 281 -14 q 136 81 172 36 q 82 185 100 125 q 61 314 64 246 q 60 362 60 340 q 61 408 60 383 q 81 534 63 475 q 135 639 99 593 q 226 710 171 685 q 357 736 281 736 q 479 712 428 736 q 565 649 531 688 l 565 776 l 504 776 q 481 786 490 776 q 471 811 471 796 l 471 857 q 481 881 471 871 q 504 890 490 890 l 565 890 l 565 951 q 575 976 565 967 q 599 986 585 986 l 742 986 q 767 976 757 986 q 776 951 776 967 l 776 890 l 838 890 q 861 881 851 890 q 871 857 871 871 l 871 811 q 861 786 871 796 q 838 776 851 776 l 776 776 l 776 35 q 767 10 776 19 q 742 0 757 0 l 610 0 q 585 10 594 0 q 575 35 575 19 l 575 88 q 490 15 543 43 q 357 -14 436 -14 m 419 153 q 503 176 472 153 q 549 236 535 200 q 565 314 564 272 q 567 367 567 340 q 565 418 567 393 q 548 491 564 457 q 501 547 532 525 q 419 569 469 569 q 337 547 368 569 q 292 486 306 524 q 276 404 279 449 q 276 318 274 361 q 292 236 279 274 q 337 176 306 199 q 419 153 368 153 z "},"e":{"ha":813,"x_min":57,"x_max":761,"o":"m 410 -14 q 156 75 250 -14 q 57 333 63 164 q 57 363 57 344 q 57 393 57 382 q 106 577 63 500 q 226 695 149 654 q 408 736 304 736 q 603 688 525 736 q 722 558 682 640 q 761 368 761 475 l 761 336 q 751 313 761 322 q 726 303 740 303 l 272 303 q 272 298 272 301 q 272 292 272 294 q 290 210 274 247 q 335 151 306 174 q 407 129 365 129 q 464 139 442 129 q 501 163 486 149 q 522 186 515 176 q 542 203 535 200 q 567 207 550 207 l 711 207 q 734 199 725 207 q 742 178 743 192 q 719 123 740 156 q 656 59 697 90 q 552 7 614 28 q 410 -14 490 -14 m 272 429 l 544 429 l 544 432 q 528 519 544 482 q 482 576 513 556 q 408 597 451 597 q 335 576 365 597 q 288 519 304 556 q 272 432 272 482 l 272 429 z "},"é":{"ha":813,"x_min":57,"x_max":761,"o":"m 410 -14 q 156 75 250 -14 q 57 333 63 164 q 57 363 57 344 q 57 393 57 382 q 106 577 63 500 q 226 695 149 654 q 408 736 304 736 q 603 688 525 736 q 722 558 682 640 q 761 368 761 475 l 761 336 q 751 313 761 322 q 726 303 740 303 l 272 303 q 272 298 272 301 q 272 292 272 294 q 290 210 274 247 q 335 151 306 174 q 407 129 365 129 q 464 139 442 129 q 501 163 486 149 q 522 186 515 176 q 542 203 535 200 q 567 207 550 207 l 711 207 q 734 199 725 207 q 742 178 743 192 q 719 123 740 156 q 656 59 697 90 q 552 7 614 28 q 410 -14 490 -14 m 272 429 l 544 429 l 544 432 q 528 519 544 482 q 482 576 513 556 q 408 597 451 597 q 335 576 365 597 q 288 519 304 556 q 272 432 272 482 l 272 429 m 338 826 q 315 849 315 826 q 322 867 315 860 l 440 1010 q 463 1031 453 1026 q 492 1036 474 1036 l 651 1036 q 678 1008 678 1036 q 671 992 678 999 l 492 846 q 470 831 481 836 q 442 826 460 826 l 338 826 z "},"ĕ":{"ha":813,"x_min":57,"x_max":761,"o":"m 410 -14 q 156 75 250 -14 q 57 333 63 164 q 57 363 57 344 q 57 393 57 382 q 106 577 63 500 q 226 695 149 654 q 408 736 304 736 q 603 688 525 736 q 722 558 682 640 q 761 368 761 475 l 761 336 q 751 313 761 322 q 726 303 740 303 l 272 303 q 272 298 272 301 q 272 292 272 294 q 290 210 274 247 q 335 151 306 174 q 407 129 365 129 q 464 139 442 129 q 501 163 486 149 q 522 186 515 176 q 542 203 535 200 q 567 207 550 207 l 711 207 q 734 199 725 207 q 742 178 743 192 q 719 123 740 156 q 656 59 697 90 q 552 7 614 28 q 410 -14 490 -14 m 272 429 l 544 429 l 544 432 q 528 519 544 482 q 482 576 513 556 q 408 597 451 597 q 335 576 365 597 q 288 519 304 556 q 272 432 272 482 l 272 429 m 408 819 q 295 846 339 819 q 231 915 251 872 q 211 1010 211 958 q 218 1028 211 1021 q 238 1036 225 1036 l 315 1036 q 335 1028 328 1036 q 342 1010 342 1021 q 356 951 342 978 q 408 925 369 925 q 462 951 449 925 q 475 1010 475 978 q 482 1028 475 1021 q 501 1036 489 1036 l 579 1036 q 599 1028 592 1036 q 606 1010 606 1021 q 585 915 606 958 q 521 846 564 872 q 408 819 478 819 z "},"ě":{"ha":813,"x_min":57,"x_max":761,"o":"m 410 -14 q 156 75 250 -14 q 57 333 63 164 q 57 363 57 344 q 57 393 57 382 q 106 577 63 500 q 226 695 149 654 q 408 736 304 736 q 603 688 525 736 q 722 558 682 640 q 761 368 761 475 l 761 336 q 751 313 761 322 q 726 303 740 303 l 272 303 q 272 298 272 301 q 272 292 272 294 q 290 210 274 247 q 335 151 306 174 q 407 129 365 129 q 464 139 442 129 q 501 163 486 149 q 522 186 515 176 q 542 203 535 200 q 567 207 550 207 l 711 207 q 734 199 725 207 q 742 178 743 192 q 719 123 740 156 q 656 59 697 90 q 552 7 614 28 q 410 -14 490 -14 m 272 429 l 544 429 l 544 432 q 528 519 544 482 q 482 576 513 556 q 408 597 451 597 q 335 576 365 597 q 288 519 304 556 q 272 432 272 482 l 272 429 m 363 826 q 338 831 349 826 q 314 850 328 836 l 175 994 q 164 1017 164 1006 q 185 1036 164 1036 l 243 1036 q 267 1034 254 1036 q 289 1026 279 1032 l 408 956 l 528 1026 q 550 1034 538 1032 q 574 1036 563 1036 l 632 1036 q 653 1017 653 1036 q 640 994 653 1006 l 501 850 q 477 831 488 836 q 454 826 467 826 l 363 826 z "},"ê":{"ha":813,"x_min":57,"x_max":761,"o":"m 410 -14 q 156 75 250 -14 q 57 333 63 164 q 57 363 57 344 q 57 393 57 382 q 106 577 63 500 q 226 695 149 654 q 408 736 304 736 q 603 688 525 736 q 722 558 682 640 q 761 368 761 475 l 761 336 q 751 313 761 322 q 726 303 740 303 l 272 303 q 272 298 272 301 q 272 292 272 294 q 290 210 274 247 q 335 151 306 174 q 407 129 365 129 q 464 139 442 129 q 501 163 486 149 q 522 186 515 176 q 542 203 535 200 q 567 207 550 207 l 711 207 q 734 199 725 207 q 742 178 743 192 q 719 123 740 156 q 656 59 697 90 q 552 7 614 28 q 410 -14 490 -14 m 272 429 l 544 429 l 544 432 q 528 519 544 482 q 482 576 513 556 q 408 597 451 597 q 335 576 365 597 q 288 519 304 556 q 272 432 272 482 l 272 429 m 185 826 q 164 846 164 826 q 175 868 164 857 l 314 1013 q 338 1032 328 1028 q 363 1036 349 1036 l 454 1036 q 477 1032 467 1036 q 501 1013 488 1028 l 640 868 q 653 846 653 857 q 632 826 653 826 l 574 826 q 550 828 563 826 q 528 836 538 831 l 408 907 l 289 836 q 267 828 279 831 q 243 826 254 826 l 185 826 z "},"ë":{"ha":813,"x_min":57,"x_max":761,"o":"m 410 -14 q 156 75 250 -14 q 57 333 63 164 q 57 363 57 344 q 57 393 57 382 q 106 577 63 500 q 226 695 149 654 q 408 736 304 736 q 603 688 525 736 q 722 558 682 640 q 761 368 761 475 l 761 336 q 751 313 761 322 q 726 303 740 303 l 272 303 q 272 298 272 301 q 272 292 272 294 q 290 210 274 247 q 335 151 306 174 q 407 129 365 129 q 464 139 442 129 q 501 163 486 149 q 522 186 515 176 q 542 203 535 200 q 567 207 550 207 l 711 207 q 734 199 725 207 q 742 178 743 192 q 719 123 740 156 q 656 59 697 90 q 552 7 614 28 q 410 -14 490 -14 m 272 429 l 544 429 l 544 432 q 528 519 544 482 q 482 576 513 556 q 408 597 451 597 q 335 576 365 597 q 288 519 304 556 q 272 432 272 482 l 272 429 m 486 849 q 464 857 472 849 q 456 879 456 865 l 456 993 q 464 1016 456 1007 q 486 1025 472 1025 l 600 1025 q 623 1016 614 1025 q 632 993 632 1007 l 632 879 q 623 857 632 865 q 600 849 614 849 l 486 849 m 213 849 q 190 857 199 849 q 182 879 182 865 l 182 993 q 190 1016 182 1007 q 213 1025 199 1025 l 326 1025 q 349 1016 340 1025 q 358 993 358 1007 l 358 879 q 349 857 358 865 q 326 849 340 849 l 213 849 z "},"ė":{"ha":813,"x_min":57,"x_max":761,"o":"m 410 -14 q 156 75 250 -14 q 57 333 63 164 q 57 363 57 344 q 57 393 57 382 q 106 577 63 500 q 226 695 149 654 q 408 736 304 736 q 603 688 525 736 q 722 558 682 640 q 761 368 761 475 l 761 336 q 751 313 761 322 q 726 303 740 303 l 272 303 q 272 298 272 301 q 272 292 272 294 q 290 210 274 247 q 335 151 306 174 q 407 129 365 129 q 464 139 442 129 q 501 163 486 149 q 522 186 515 176 q 542 203 535 200 q 567 207 550 207 l 711 207 q 734 199 725 207 q 742 178 743 192 q 719 123 740 156 q 656 59 697 90 q 552 7 614 28 q 410 -14 490 -14 m 272 429 l 544 429 l 544 432 q 528 519 544 482 q 482 576 513 556 q 408 597 451 597 q 335 576 365 597 q 288 519 304 556 q 272 432 272 482 l 272 429 m 343 842 q 321 850 329 842 q 313 872 313 858 l 313 999 q 321 1022 313 1013 q 343 1031 329 1031 l 469 1031 q 492 1022 483 1031 q 501 999 501 1013 l 501 872 q 492 850 501 858 q 469 842 483 842 l 343 842 z "},"è":{"ha":813,"x_min":57,"x_max":761,"o":"m 410 -14 q 156 75 250 -14 q 57 333 63 164 q 57 363 57 344 q 57 393 57 382 q 106 577 63 500 q 226 695 149 654 q 408 736 304 736 q 603 688 525 736 q 722 558 682 640 q 761 368 761 475 l 761 336 q 751 313 761 322 q 726 303 740 303 l 272 303 q 272 298 272 301 q 272 292 272 294 q 290 210 274 247 q 335 151 306 174 q 407 129 365 129 q 464 139 442 129 q 501 163 486 149 q 522 186 515 176 q 542 203 535 200 q 567 207 550 207 l 711 207 q 734 199 725 207 q 742 178 743 192 q 719 123 740 156 q 656 59 697 90 q 552 7 614 28 q 410 -14 490 -14 m 272 429 l 544 429 l 544 432 q 528 519 544 482 q 482 576 513 556 q 408 597 451 597 q 335 576 365 597 q 288 519 304 556 q 272 432 272 482 l 272 429 m 379 826 q 351 831 361 826 q 329 846 340 836 l 150 992 q 143 1008 143 999 q 169 1036 143 1036 l 331 1036 q 358 1031 349 1036 q 382 1010 368 1026 l 499 867 q 506 849 506 860 q 483 826 506 826 l 379 826 z "},"ē":{"ha":813,"x_min":57,"x_max":761,"o":"m 410 -14 q 156 75 250 -14 q 57 333 63 164 q 57 363 57 344 q 57 393 57 382 q 106 577 63 500 q 226 695 149 654 q 408 736 304 736 q 603 688 525 736 q 722 558 682 640 q 761 368 761 475 l 761 336 q 751 313 761 322 q 726 303 740 303 l 272 303 q 272 298 272 301 q 272 292 272 294 q 290 210 274 247 q 335 151 306 174 q 407 129 365 129 q 464 139 442 129 q 501 163 486 149 q 522 186 515 176 q 542 203 535 200 q 567 207 550 207 l 711 207 q 734 199 725 207 q 742 178 743 192 q 719 123 740 156 q 656 59 697 90 q 552 7 614 28 q 410 -14 490 -14 m 272 429 l 544 429 l 544 432 q 528 519 544 482 q 482 576 513 556 q 408 597 451 597 q 335 576 365 597 q 288 519 304 556 q 272 432 272 482 l 272 429 m 222 844 q 200 853 208 844 q 192 876 192 861 l 192 960 q 200 982 192 974 q 222 990 208 990 l 590 990 q 613 982 604 990 q 621 960 621 974 l 621 876 q 613 853 621 861 q 590 844 604 844 l 222 844 z "},"ę":{"ha":814,"x_min":57,"x_max":761,"o":"m 483 -306 q 365 -278 413 -306 q 294 -201 318 -250 q 271 -90 271 -153 q 288 1 271 -37 q 122 115 182 31 q 58 333 63 200 q 57 363 57 344 q 58 392 57 381 q 106 576 63 499 q 226 694 149 653 q 408 736 304 736 q 604 688 526 736 q 722 558 682 640 q 761 368 761 475 l 761 336 q 751 313 761 322 q 726 303 742 303 l 274 303 l 274 292 q 290 210 275 247 q 335 151 306 174 q 408 129 365 129 q 464 139 442 129 q 501 163 486 149 q 524 186 517 176 q 544 203 536 200 q 567 207 551 207 l 713 207 q 734 199 725 207 q 742 178 743 192 q 711 113 740 151 q 626 41 682 75 q 488 -7 571 7 q 423 -35 444 -15 q 401 -90 401 -56 q 424 -154 401 -128 q 489 -181 446 -181 l 506 -181 q 530 -190 519 -181 q 540 -214 540 -200 l 540 -271 q 530 -296 540 -286 q 506 -306 519 -306 l 483 -306 m 272 429 l 544 429 l 544 432 q 528 519 544 482 q 482 576 513 556 q 408 597 451 597 q 335 576 365 597 q 288 519 304 556 q 272 432 272 482 l 272 429 z "},"f":{"ha":594,"x_min":24,"x_max":590,"o":"m 201 0 q 176 10 186 0 q 167 35 167 19 l 167 558 l 58 558 q 33 568 43 558 q 24 593 24 578 l 24 688 q 33 713 24 703 q 58 722 43 722 l 167 722 l 167 772 q 200 918 167 861 q 297 1001 233 975 q 454 1028 361 1028 l 556 1028 q 581 1018 571 1028 q 590 993 590 1008 l 590 899 q 581 874 590 883 q 556 864 571 864 l 463 864 q 391 839 411 864 q 371 765 371 814 l 371 722 l 542 722 q 567 713 557 722 q 576 688 576 703 l 576 593 q 567 568 576 578 q 542 558 557 558 l 371 558 l 371 35 q 361 10 371 19 q 338 0 351 0 l 201 0 z "},"g":{"ha":868,"x_min":58,"x_max":781,"o":"m 426 -306 q 256 -278 324 -306 q 148 -213 188 -251 q 92 -137 108 -175 q 74 -79 75 -100 q 83 -54 72 -64 q 108 -44 94 -44 l 257 -44 q 278 -51 269 -44 q 293 -72 288 -57 q 313 -108 300 -89 q 351 -139 325 -126 q 419 -151 376 -151 q 500 -137 468 -151 q 548 -90 532 -124 q 564 0 564 -57 l 564 93 q 480 33 531 57 q 356 10 429 10 q 228 33 283 10 q 138 98 174 56 q 82 200 101 140 q 60 335 63 260 q 60 408 58 372 q 82 540 63 481 q 138 644 101 600 q 228 712 174 688 q 356 736 283 736 q 486 707 432 736 q 575 635 540 678 l 575 688 q 585 712 575 701 q 608 722 594 722 l 744 722 q 769 712 758 722 q 779 688 779 701 l 781 19 q 740 -157 781 -85 q 622 -267 700 -229 q 426 -306 543 -306 m 419 172 q 501 195 469 172 q 547 253 532 218 q 564 328 563 289 q 565 372 565 343 q 564 415 565 400 q 547 490 563 454 q 501 547 532 525 q 419 569 469 569 q 336 547 367 569 q 292 486 306 524 q 275 404 278 449 q 275 339 274 371 q 292 256 278 293 q 336 195 306 218 q 419 172 367 172 z "},"ğ":{"ha":868,"x_min":58,"x_max":781,"o":"m 426 -306 q 256 -278 324 -306 q 148 -213 188 -251 q 92 -137 108 -175 q 74 -79 75 -100 q 83 -54 72 -64 q 108 -44 94 -44 l 257 -44 q 278 -51 269 -44 q 293 -72 288 -57 q 313 -108 300 -89 q 351 -139 325 -126 q 419 -151 376 -151 q 500 -137 468 -151 q 548 -90 532 -124 q 564 0 564 -57 l 564 93 q 480 33 531 57 q 356 10 429 10 q 228 33 283 10 q 138 98 174 56 q 82 200 101 140 q 60 335 63 260 q 60 408 58 372 q 82 540 63 481 q 138 644 101 600 q 228 712 174 688 q 356 736 283 736 q 486 707 432 736 q 575 635 540 678 l 575 688 q 585 712 575 701 q 608 722 594 722 l 744 722 q 769 712 758 722 q 779 688 779 701 l 781 19 q 740 -157 781 -85 q 622 -267 700 -229 q 426 -306 543 -306 m 419 172 q 501 195 469 172 q 547 253 532 218 q 564 328 563 289 q 565 372 565 343 q 564 415 565 400 q 547 490 563 454 q 501 547 532 525 q 419 569 469 569 q 336 547 367 569 q 292 486 306 524 q 275 404 278 449 q 275 339 274 371 q 292 256 278 293 q 336 195 306 218 q 419 172 367 172 m 421 819 q 308 846 351 819 q 244 915 264 872 q 224 1010 224 958 q 231 1028 224 1021 q 250 1036 238 1036 l 328 1036 q 347 1028 340 1036 q 354 1010 354 1021 q 368 951 354 978 q 421 925 382 925 q 474 951 461 925 q 488 1010 488 978 q 494 1028 488 1021 q 514 1036 501 1036 l 592 1036 q 611 1028 604 1036 q 618 1010 618 1021 q 597 915 618 958 q 533 846 576 872 q 421 819 490 819 z "},"ĝ":{"ha":868,"x_min":58,"x_max":781,"o":"m 426 -306 q 256 -278 324 -306 q 148 -213 188 -251 q 92 -137 108 -175 q 74 -79 75 -100 q 83 -54 72 -64 q 108 -44 94 -44 l 257 -44 q 278 -51 269 -44 q 293 -72 288 -57 q 313 -108 300 -89 q 351 -139 325 -126 q 419 -151 376 -151 q 500 -137 468 -151 q 548 -90 532 -124 q 564 0 564 -57 l 564 93 q 480 33 531 57 q 356 10 429 10 q 228 33 283 10 q 138 98 174 56 q 82 200 101 140 q 60 335 63 260 q 60 408 58 372 q 82 540 63 481 q 138 644 101 600 q 228 712 174 688 q 356 736 283 736 q 486 707 432 736 q 575 635 540 678 l 575 688 q 585 712 575 701 q 608 722 594 722 l 744 722 q 769 712 758 722 q 779 688 779 701 l 781 19 q 740 -157 781 -85 q 622 -267 700 -229 q 426 -306 543 -306 m 419 172 q 501 195 469 172 q 547 253 532 218 q 564 328 563 289 q 565 372 565 343 q 564 415 565 400 q 547 490 563 454 q 501 547 532 525 q 419 569 469 569 q 336 547 367 569 q 292 486 306 524 q 275 404 278 449 q 275 339 274 371 q 292 256 278 293 q 336 195 306 218 q 419 172 367 172 m 197 826 q 176 846 176 826 q 188 868 176 857 l 326 1013 q 351 1032 340 1028 q 375 1036 361 1036 l 467 1036 q 490 1032 479 1036 q 514 1013 500 1028 l 653 868 q 665 846 665 857 q 644 826 665 826 l 586 826 q 563 828 575 826 q 540 836 550 831 l 421 907 l 301 836 q 279 828 292 831 q 256 826 267 826 l 197 826 z "},"ģ":{"ha":868,"x_min":58,"x_max":781,"o":"m 426 -306 q 256 -278 324 -306 q 148 -213 188 -251 q 92 -137 108 -175 q 74 -79 75 -100 q 83 -54 72 -64 q 108 -44 94 -44 l 257 -44 q 278 -51 269 -44 q 293 -72 288 -57 q 313 -108 300 -89 q 351 -139 325 -126 q 419 -151 376 -151 q 500 -137 468 -151 q 548 -90 532 -124 q 564 0 564 -57 l 564 93 q 480 33 531 57 q 356 10 429 10 q 228 33 283 10 q 138 98 174 56 q 82 200 101 140 q 60 335 63 260 q 60 408 58 372 q 82 540 63 481 q 138 644 101 600 q 228 712 174 688 q 356 736 283 736 q 486 707 432 736 q 575 635 540 678 l 575 688 q 585 712 575 701 q 608 722 594 722 l 744 722 q 769 712 758 722 q 779 688 779 701 l 781 19 q 740 -157 781 -85 q 622 -267 700 -229 q 426 -306 543 -306 m 419 172 q 501 195 469 172 q 547 253 532 218 q 564 328 563 289 q 565 372 565 343 q 564 415 565 400 q 547 490 563 454 q 501 547 532 525 q 419 569 469 569 q 336 547 367 569 q 292 486 306 524 q 275 404 278 449 q 275 339 274 371 q 292 256 278 293 q 336 195 306 218 q 419 172 367 172 m 354 826 q 335 835 343 826 q 328 853 328 843 q 332 869 328 863 l 397 1040 q 415 1066 404 1054 q 446 1078 425 1078 l 533 1078 q 552 1069 544 1078 q 558 1047 560 1060 l 532 872 q 517 841 529 856 q 483 826 506 826 l 354 826 z "},"ġ":{"ha":868,"x_min":58,"x_max":781,"o":"m 426 -306 q 256 -278 324 -306 q 148 -213 188 -251 q 92 -137 108 -175 q 74 -79 75 -100 q 83 -54 72 -64 q 108 -44 94 -44 l 257 -44 q 278 -51 269 -44 q 293 -72 288 -57 q 313 -108 300 -89 q 351 -139 325 -126 q 419 -151 376 -151 q 500 -137 468 -151 q 548 -90 532 -124 q 564 0 564 -57 l 564 93 q 480 33 531 57 q 356 10 429 10 q 228 33 283 10 q 138 98 174 56 q 82 200 101 140 q 60 335 63 260 q 60 408 58 372 q 82 540 63 481 q 138 644 101 600 q 228 712 174 688 q 356 736 283 736 q 486 707 432 736 q 575 635 540 678 l 575 688 q 585 712 575 701 q 608 722 594 722 l 744 722 q 769 712 758 722 q 779 688 779 701 l 781 19 q 740 -157 781 -85 q 622 -267 700 -229 q 426 -306 543 -306 m 419 172 q 501 195 469 172 q 547 253 532 218 q 564 328 563 289 q 565 372 565 343 q 564 415 565 400 q 547 490 563 454 q 501 547 532 525 q 419 569 469 569 q 336 547 367 569 q 292 486 306 524 q 275 404 278 449 q 275 339 274 371 q 292 256 278 293 q 336 195 306 218 q 419 172 367 172 m 357 842 q 335 850 343 842 q 326 872 326 858 l 326 999 q 335 1022 326 1013 q 357 1031 343 1031 l 483 1031 q 506 1022 497 1031 q 515 999 515 1013 l 515 872 q 506 850 515 858 q 483 842 497 842 l 357 842 z "},"h":{"ha":888,"x_min":88,"x_max":808,"o":"m 122 0 q 97 10 107 0 q 88 35 88 19 l 88 951 q 97 976 88 967 q 122 986 107 986 l 272 986 q 296 976 286 986 q 306 951 306 967 l 306 639 q 397 710 343 683 q 528 736 451 736 q 673 699 610 736 q 772 592 736 663 q 808 422 808 522 l 808 35 q 799 10 808 19 q 774 0 789 0 l 622 0 q 599 10 608 0 q 589 35 589 19 l 589 414 q 553 528 589 488 q 450 569 517 569 q 345 528 385 569 q 306 414 306 488 l 306 35 q 296 10 306 19 q 272 0 286 0 l 122 0 z "},"ħ":{"ha":888,"x_min":-4,"x_max":808,"o":"m 29 769 q 6 779 15 769 q -4 804 -4 789 l -4 850 q 6 874 -4 864 q 29 883 15 883 l 363 883 q 388 874 378 883 q 397 850 397 864 l 397 804 q 388 779 397 789 q 363 769 378 769 l 29 769 m 122 0 q 97 10 107 0 q 88 35 88 19 l 88 951 q 97 976 88 967 q 122 986 107 986 l 272 986 q 296 976 286 986 q 306 951 306 967 l 306 639 q 397 710 343 683 q 528 736 451 736 q 673 699 610 736 q 772 592 736 663 q 808 422 808 522 l 808 35 q 799 10 808 19 q 774 0 789 0 l 622 0 q 599 10 608 0 q 589 35 589 19 l 589 414 q 553 528 589 488 q 450 569 517 569 q 345 528 385 569 q 306 414 306 488 l 306 35 q 296 10 306 19 q 272 0 286 0 l 122 0 z "},"ĥ":{"ha":888,"x_min":88,"x_max":808,"o":"m 122 0 q 97 10 107 0 q 88 35 88 19 l 88 951 q 97 976 88 967 q 122 986 107 986 l 272 986 q 296 976 286 986 q 306 951 306 967 l 306 639 q 397 710 343 683 q 528 736 451 736 q 673 699 610 736 q 772 592 736 663 q 808 422 808 522 l 808 35 q 799 10 808 19 q 774 0 789 0 l 622 0 q 599 10 608 0 q 589 35 589 19 l 589 414 q 553 528 589 488 q 450 569 517 569 q 345 528 385 569 q 306 414 306 488 l 306 35 q 296 10 306 19 q 272 0 286 0 l 122 0 m 222 1043 q 201 1063 201 1043 q 213 1085 201 1074 l 351 1229 q 376 1249 365 1244 q 400 1253 386 1253 l 492 1253 q 515 1249 504 1253 q 539 1229 525 1244 l 678 1085 q 690 1063 690 1074 q 669 1043 690 1043 l 611 1043 q 588 1045 600 1043 q 565 1053 575 1047 l 446 1124 l 326 1053 q 304 1045 317 1047 q 281 1043 292 1043 l 222 1043 z "},"i":{"ha":381,"x_min":83,"x_max":299,"o":"m 121 0 q 97 10 107 0 q 88 35 88 19 l 88 688 q 97 713 88 703 q 121 722 107 722 l 260 722 q 285 713 275 722 q 294 688 294 703 l 294 35 q 285 10 294 19 q 260 0 275 0 l 121 0 m 117 833 q 93 843 103 833 q 83 868 83 853 l 83 979 q 93 1005 83 994 q 117 1015 103 1015 l 263 1015 q 288 1005 278 1015 q 299 979 299 994 l 299 868 q 288 843 299 853 q 263 833 278 833 l 117 833 z "},"ı":{"ha":381,"x_min":88,"x_max":294,"o":"m 121 0 q 97 10 107 0 q 88 35 88 19 l 88 688 q 97 713 88 703 q 121 722 107 722 l 260 722 q 285 713 275 722 q 294 688 294 703 l 294 35 q 285 10 294 19 q 260 0 275 0 l 121 0 z "},"í":{"ha":381,"x_min":88,"x_max":461,"o":"m 121 0 q 97 10 107 0 q 88 35 88 19 l 88 688 q 97 713 88 703 q 121 722 107 722 l 260 722 q 285 713 275 722 q 294 688 294 703 l 294 35 q 285 10 294 19 q 260 0 275 0 l 121 0 m 121 826 q 99 849 99 826 q 106 867 99 860 l 224 1010 q 247 1031 236 1026 q 275 1036 257 1036 l 435 1036 q 461 1008 461 1036 q 454 992 461 999 l 275 846 q 253 831 264 836 q 225 826 243 826 l 121 826 z "},"ĭ":{"ha":381,"x_min":-6,"x_max":388,"o":"m 121 0 q 97 10 107 0 q 88 35 88 19 l 88 688 q 97 713 88 703 q 121 722 107 722 l 260 722 q 285 713 275 722 q 294 688 294 703 l 294 35 q 285 10 294 19 q 260 0 275 0 l 121 0 m 192 819 q 78 846 122 819 q 15 915 35 872 q -6 1010 -6 958 q 1 1028 -6 1021 q 21 1036 8 1036 l 99 1036 q 118 1028 111 1036 q 125 1010 125 1021 q 139 951 125 978 q 192 925 153 925 q 245 951 232 925 q 258 1010 258 978 q 265 1028 258 1021 q 285 1036 272 1036 l 363 1036 q 382 1028 375 1036 q 389 1010 389 1021 q 368 915 389 958 q 304 846 347 872 q 192 819 261 819 z "},"î":{"ha":381,"x_min":-53,"x_max":436,"o":"m 121 0 q 97 10 107 0 q 88 35 88 19 l 88 688 q 97 713 88 703 q 121 722 107 722 l 260 722 q 285 713 275 722 q 294 688 294 703 l 294 35 q 285 10 294 19 q 260 0 275 0 l 121 0 m -32 826 q -53 846 -53 826 q -42 868 -53 857 l 97 1013 q 122 1032 111 1028 q 146 1036 132 1036 l 238 1036 q 260 1032 250 1036 q 285 1013 271 1028 l 424 868 q 436 846 436 857 q 415 826 436 826 l 357 826 q 333 828 346 826 q 311 836 321 831 l 192 907 l 72 836 q 50 828 63 831 q 26 826 38 826 l -32 826 z "},"ï":{"ha":381,"x_min":-35,"x_max":417,"o":"m 121 0 q 97 10 107 0 q 88 35 88 19 l 88 688 q 97 713 88 703 q 121 722 107 722 l 260 722 q 285 713 275 722 q 294 688 294 703 l 294 35 q 285 10 294 19 q 260 0 275 0 l 121 0 m 269 849 q 247 857 256 849 q 239 879 239 865 l 239 993 q 247 1016 239 1007 q 269 1025 256 1025 l 383 1025 q 406 1016 397 1025 q 415 993 415 1007 l 415 879 q 406 857 415 865 q 383 849 397 849 l 269 849 m -4 849 q -26 857 -18 849 q -35 879 -35 865 l -35 993 q -26 1016 -35 1007 q -4 1025 -18 1025 l 110 1025 q 133 1016 124 1025 q 142 993 142 1007 l 142 879 q 133 857 142 865 q 110 849 124 849 l -4 849 z "},"ì":{"ha":381,"x_min":-74,"x_max":294,"o":"m 121 0 q 97 10 107 0 q 88 35 88 19 l 88 688 q 97 713 88 703 q 121 722 107 722 l 260 722 q 285 713 275 722 q 294 688 294 703 l 294 35 q 285 10 294 19 q 260 0 275 0 l 121 0 m 163 826 q 134 831 144 826 q 113 846 124 836 l -67 992 q -74 1008 -74 999 q -47 1036 -74 1036 l 114 1036 q 142 1031 132 1036 q 165 1010 151 1026 l 282 867 q 289 849 289 860 q 267 826 289 826 l 163 826 z "},"ĳ":{"ha":785,"x_min":83,"x_max":700,"o":"m 121 0 q 97 10 107 0 q 88 35 88 19 l 88 688 q 97 713 88 703 q 121 722 107 722 l 260 722 q 285 713 275 722 q 294 688 294 703 l 294 35 q 285 10 294 19 q 260 0 275 0 l 121 0 m 117 833 q 93 843 103 833 q 83 868 83 853 l 83 979 q 93 1005 83 994 q 117 1015 103 1015 l 263 1015 q 288 1005 278 1015 q 299 979 299 994 l 299 868 q 288 843 299 853 q 263 833 278 833 l 117 833 m 347 -264 q 322 -254 332 -264 q 313 -229 313 -244 l 313 -135 q 322 -110 313 -119 q 347 -100 332 -100 l 392 -100 q 449 -85 429 -100 q 476 -46 469 -71 q 483 10 483 -21 l 483 688 q 493 713 483 703 q 517 722 503 722 l 663 722 q 686 713 676 722 q 696 688 696 703 l 696 6 q 664 -140 696 -79 q 569 -232 632 -200 q 413 -264 506 -264 l 347 -264 m 513 833 q 489 843 499 833 q 479 868 479 853 l 479 979 q 489 1005 479 994 q 513 1015 499 1015 l 665 1015 q 690 1005 681 1015 q 700 979 700 994 l 700 868 q 690 843 700 853 q 665 833 681 833 l 513 833 z "},"ī":{"ha":381,"x_min":-25,"x_max":406,"o":"m 121 0 q 97 10 107 0 q 88 35 88 19 l 88 688 q 97 713 88 703 q 121 722 107 722 l 260 722 q 285 713 275 722 q 294 688 294 703 l 294 35 q 285 10 294 19 q 260 0 275 0 l 121 0 m 7 844 q -15 853 -7 844 q -24 876 -24 861 l -24 960 q -15 982 -24 974 q 7 990 -7 990 l 375 990 q 397 982 389 990 q 406 960 406 974 l 406 876 q 397 853 406 861 q 375 844 389 844 l 7 844 z "},"į":{"ha":394,"x_min":53,"x_max":315,"o":"m 258 -286 q 106 -229 158 -286 q 53 -83 53 -172 q 72 -8 53 -39 q 125 36 92 24 l 121 39 q 107 47 113 40 q 101 63 101 54 l 101 688 q 111 713 101 703 q 135 722 121 722 l 274 722 q 299 713 289 722 q 308 688 308 703 l 308 35 q 299 10 308 19 q 274 0 289 0 l 264 0 q 199 -24 221 0 q 176 -83 176 -47 q 199 -144 176 -121 q 264 -167 221 -167 l 281 -167 q 306 -177 296 -167 q 315 -201 315 -187 l 315 -251 q 306 -276 315 -267 q 281 -286 296 -286 l 258 -286 m 132 833 q 107 843 117 833 q 97 868 97 853 l 97 979 q 107 1005 97 994 q 132 1015 117 1015 l 278 1015 q 302 1005 292 1015 q 313 979 313 994 l 313 868 q 302 843 313 853 q 278 833 292 833 l 132 833 z "},"ĩ":{"ha":381,"x_min":-35,"x_max":417,"o":"m 121 0 q 97 10 107 0 q 88 35 88 19 l 88 688 q 97 713 88 703 q 121 722 107 722 l 260 722 q 285 713 275 722 q 294 688 294 703 l 294 35 q 285 10 294 19 q 260 0 275 0 l 121 0 m 271 819 q 210 832 233 819 q 169 856 188 844 q 126 868 150 868 q 100 858 108 868 q 85 838 92 849 q 63 826 78 826 l -11 826 q -28 834 -21 826 q -35 850 -35 842 q -27 899 -35 872 q -2 952 -19 926 q 43 994 15 978 q 110 1011 71 1011 q 171 999 147 1011 q 213 975 194 988 q 256 963 232 963 q 281 974 274 963 q 297 995 289 985 q 319 1006 304 1006 l 392 1006 q 410 998 404 1006 q 417 981 417 990 q 408 931 417 958 q 383 878 400 904 q 338 836 365 853 q 271 819 310 819 z "},"j":{"ha":403,"x_min":-68,"x_max":319,"o":"m -33 -264 q -58 -254 -49 -264 q -68 -229 -68 -244 l -68 -135 q -58 -110 -68 -119 q -33 -100 -49 -100 l 11 -100 q 69 -85 49 -100 q 96 -46 89 -71 q 103 10 103 -21 l 103 688 q 113 713 103 703 q 136 722 122 722 l 282 722 q 306 713 296 722 q 315 688 315 703 l 315 6 q 283 -140 315 -79 q 188 -232 251 -200 q 32 -264 125 -264 l -33 -264 m 132 833 q 108 843 118 833 q 99 868 99 853 l 99 979 q 108 1005 99 994 q 132 1015 118 1015 l 285 1015 q 310 1005 300 1015 q 319 979 319 994 l 319 868 q 310 843 319 853 q 285 833 300 833 l 132 833 z "},"ȷ":{"ha":525,"x_min":22,"x_max":438,"o":"m 57 -264 q 32 -254 42 -264 q 22 -229 22 -244 l 22 -110 q 32 -85 22 -94 q 57 -75 42 -75 l 131 -75 q 189 -60 169 -75 q 215 -21 208 -46 q 222 35 222 4 l 222 553 l 65 553 q 42 563 51 553 q 32 586 32 572 l 32 688 q 42 713 32 703 q 65 722 51 722 l 404 722 q 428 713 418 722 q 438 688 438 703 l 438 35 q 406 -122 438 -56 q 310 -226 374 -189 q 154 -264 247 -264 l 57 -264 z "},"ĵ":{"ha":525,"x_min":6,"x_max":494,"o":"m 57 -264 q 32 -254 42 -264 q 22 -229 22 -244 l 22 -110 q 32 -85 22 -94 q 57 -75 42 -75 l 131 -75 q 189 -60 169 -75 q 215 -21 208 -46 q 222 35 222 4 l 222 553 l 65 553 q 42 563 51 553 q 32 586 32 572 l 32 688 q 42 713 32 703 q 65 722 51 722 l 404 722 q 428 713 418 722 q 438 688 438 703 l 438 35 q 406 -122 438 -56 q 310 -226 374 -189 q 154 -264 247 -264 l 57 -264 m 26 826 q 6 846 6 826 q 17 868 6 857 l 156 1013 q 180 1032 169 1028 q 204 1036 190 1036 l 296 1036 q 319 1032 308 1036 q 343 1013 329 1028 l 482 868 q 494 846 494 857 q 474 826 494 826 l 415 826 q 392 828 404 826 q 369 836 379 831 l 250 907 l 131 836 q 108 828 121 831 q 85 826 96 826 l 26 826 z "},"k":{"ha":788,"x_min":88,"x_max":776,"o":"m 122 0 q 97 10 107 0 q 88 35 88 19 l 88 951 q 97 976 88 967 q 122 986 107 986 l 258 986 q 282 976 272 986 q 292 951 292 967 l 292 482 l 506 699 q 526 715 517 708 q 554 722 535 722 l 711 722 q 733 713 725 722 q 742 692 742 704 q 739 679 742 686 q 729 668 736 672 l 461 399 l 764 53 q 776 31 776 42 q 767 9 776 18 q 746 0 758 0 l 585 0 q 555 7 564 0 q 535 24 546 14 l 292 296 l 292 35 q 282 10 292 19 q 258 0 272 0 l 122 0 z "},"ķ":{"ha":788,"x_min":88,"x_max":776,"o":"m 122 0 q 97 10 107 0 q 88 35 88 19 l 88 951 q 97 976 88 967 q 122 986 107 986 l 258 986 q 282 976 272 986 q 292 951 292 967 l 292 482 l 506 699 q 526 715 517 708 q 554 722 535 722 l 711 722 q 733 713 725 722 q 742 692 742 704 q 739 679 742 686 q 729 668 736 672 l 461 399 l 764 53 q 776 31 776 42 q 767 9 776 18 q 746 0 758 0 l 585 0 q 555 7 564 0 q 535 24 546 14 l 292 296 l 292 35 q 282 10 292 19 q 258 0 272 0 l 122 0 m 286 -321 q 267 -312 274 -321 q 261 -290 260 -303 l 288 -115 q 301 -83 290 -97 q 335 -69 313 -69 l 465 -69 q 483 -78 476 -69 q 490 -96 490 -86 q 488 -112 490 -106 l 421 -283 q 405 -309 415 -297 q 372 -321 394 -321 l 286 -321 z "},"ĸ":{"ha":788,"x_min":88,"x_max":775,"o":"m 121 0 q 97 10 107 0 q 88 35 88 19 l 88 688 q 97 713 88 703 q 121 722 107 722 l 257 722 q 282 713 272 722 q 292 688 292 703 l 292 443 l 517 699 q 538 715 528 708 q 567 722 547 722 l 714 722 q 736 713 728 722 q 744 692 744 704 q 742 679 744 686 q 732 668 739 672 l 465 365 l 764 53 q 775 31 775 43 q 767 9 775 18 q 744 0 758 0 l 583 0 q 553 8 563 0 q 532 24 543 15 l 292 276 l 292 35 q 282 10 292 19 q 257 0 272 0 l 121 0 z "},"l":{"ha":382,"x_min":88,"x_max":294,"o":"m 122 0 q 97 10 107 0 q 88 35 88 19 l 88 951 q 97 976 88 967 q 122 986 107 986 l 261 986 q 285 976 275 986 q 294 951 294 967 l 294 35 q 285 10 294 19 q 261 0 275 0 l 122 0 z "},"ĺ":{"ha":382,"x_min":88,"x_max":463,"o":"m 122 0 q 97 10 107 0 q 88 35 88 19 l 88 951 q 97 976 88 967 q 122 986 107 986 l 261 986 q 285 976 275 986 q 294 951 294 967 l 294 35 q 285 10 294 19 q 261 0 275 0 l 122 0 m 122 1042 q 100 1064 100 1042 q 107 1082 100 1075 l 225 1225 q 248 1247 238 1242 q 276 1251 258 1251 l 436 1251 q 463 1224 463 1251 q 456 1207 463 1214 l 276 1061 q 255 1047 265 1051 q 226 1042 244 1042 l 122 1042 z "},"ľ":{"ha":496,"x_min":88,"x_max":597,"o":"m 122 0 q 97 10 107 0 q 88 35 88 19 l 88 951 q 97 976 88 967 q 122 986 107 986 l 261 986 q 285 976 275 986 q 294 951 294 967 l 294 35 q 285 10 294 19 q 261 0 275 0 l 122 0 m 392 735 q 372 744 379 735 q 367 765 365 753 l 393 940 q 407 972 396 958 q 440 986 418 986 l 571 986 q 589 978 582 986 q 596 960 596 969 q 593 943 596 950 l 526 772 q 510 747 521 758 q 478 735 500 735 l 392 735 z "},"ļ":{"ha":382,"x_min":57,"x_max":294,"o":"m 122 0 q 97 10 107 0 q 88 35 88 19 l 88 951 q 97 976 88 967 q 122 986 107 986 l 261 986 q 285 976 275 986 q 294 951 294 967 l 294 35 q 285 10 294 19 q 261 0 275 0 l 122 0 m 83 -321 q 64 -312 71 -321 q 58 -290 57 -303 l 85 -115 q 99 -83 88 -97 q 132 -69 110 -69 l 263 -69 q 281 -78 274 -69 q 288 -96 288 -86 q 285 -112 288 -106 l 218 -283 q 202 -309 213 -297 q 169 -321 192 -321 l 83 -321 z "},"ŀ":{"ha":550,"x_min":88,"x_max":560,"o":"m 122 0 q 97 10 107 0 q 88 35 88 19 l 88 951 q 97 976 88 967 q 122 986 107 986 l 261 986 q 285 976 275 986 q 294 951 294 967 l 294 35 q 285 10 294 19 q 261 0 275 0 l 122 0 m 403 406 q 379 415 388 406 q 371 438 371 424 l 371 564 q 379 587 371 578 q 403 596 388 596 l 528 596 q 551 587 542 596 q 560 564 560 578 l 560 438 q 551 415 560 424 q 528 406 542 406 l 403 406 z "},"ł":{"ha":451,"x_min":33,"x_max":421,"o":"m 157 0 q 133 10 143 0 q 124 35 124 19 l 124 378 l 78 361 q 61 357 68 357 q 42 364 50 357 q 33 383 33 371 l 33 474 q 40 500 33 492 q 64 514 47 508 l 124 536 l 124 951 q 133 976 124 967 q 157 986 143 986 l 296 986 q 321 976 311 986 q 331 951 331 967 l 331 617 l 376 635 q 393 639 388 639 q 413 631 404 639 q 421 611 421 624 l 421 522 q 414 497 421 506 q 390 482 407 489 l 331 458 l 331 35 q 321 10 331 19 q 296 0 311 0 l 157 0 z "},"m":{"ha":1263,"x_min":88,"x_max":1182,"o":"m 121 0 q 97 10 107 0 q 88 35 88 19 l 88 688 q 97 713 88 703 q 121 722 107 722 l 250 722 q 274 713 264 722 q 285 688 285 703 l 285 640 q 362 707 313 679 q 479 736 411 735 q 700 614 640 739 q 792 702 732 668 q 925 736 853 736 q 1056 703 997 736 q 1148 603 1114 671 q 1182 431 1182 536 l 1182 35 q 1172 10 1182 19 q 1149 0 1163 0 l 1011 0 q 988 10 997 0 q 978 35 978 19 l 978 419 q 961 509 978 476 q 917 556 944 542 q 857 569 890 569 q 801 556 828 569 q 756 509 774 542 q 739 419 739 476 l 739 35 q 729 10 739 19 q 704 0 719 0 l 568 0 q 543 10 553 0 q 533 35 533 19 l 533 419 q 517 509 533 476 q 473 556 500 542 q 414 569 446 569 q 357 555 385 569 q 312 508 329 540 q 294 421 294 476 l 294 35 q 285 10 294 19 q 261 0 275 0 l 121 0 z "},"n":{"ha":879,"x_min":88,"x_max":800,"o":"m 121 0 q 97 10 107 0 q 88 35 88 19 l 88 688 q 97 713 88 703 q 121 722 107 722 l 257 722 q 282 713 272 722 q 292 688 292 703 l 292 633 q 385 707 328 678 q 524 736 442 736 q 667 699 606 736 q 765 592 729 663 q 800 422 800 522 l 800 35 q 790 10 800 19 q 765 0 779 0 l 618 0 q 593 10 603 0 q 583 35 583 19 l 583 414 q 548 528 583 488 q 444 569 513 569 q 340 528 379 569 q 301 414 301 488 l 301 35 q 292 10 301 19 q 268 0 282 0 l 121 0 z "},"ń":{"ha":879,"x_min":88,"x_max":800,"o":"m 121 0 q 97 10 107 0 q 88 35 88 19 l 88 688 q 97 713 88 703 q 121 722 107 722 l 257 722 q 282 713 272 722 q 292 688 292 703 l 292 633 q 385 707 328 678 q 524 736 442 736 q 667 699 606 736 q 765 592 729 663 q 800 422 800 522 l 800 35 q 790 10 800 19 q 765 0 779 0 l 618 0 q 593 10 603 0 q 583 35 583 19 l 583 414 q 548 528 583 488 q 444 569 513 569 q 340 528 379 569 q 301 414 301 488 l 301 35 q 292 10 301 19 q 268 0 282 0 l 121 0 m 374 826 q 351 849 351 826 q 358 867 351 860 l 476 1010 q 499 1031 489 1026 q 528 1036 510 1036 l 688 1036 q 714 1008 714 1036 q 707 992 714 999 l 528 846 q 506 831 517 836 q 478 826 496 826 l 374 826 z "},"ŉ":{"ha":879,"x_min":-71,"x_max":800,"o":"m -44 786 q -64 794 -57 786 q -69 815 -71 803 l -43 990 q -29 1022 -40 1008 q 4 1036 -18 1036 l 135 1036 q 153 1028 146 1036 q 160 1010 160 1021 q 157 993 160 1001 l 90 822 q 74 797 85 808 q 42 786 64 786 l -44 786 m 121 0 q 97 10 107 0 q 88 35 88 19 l 88 688 q 97 713 88 703 q 121 722 107 722 l 257 722 q 282 713 272 722 q 292 688 292 703 l 292 633 q 385 707 328 678 q 524 736 442 736 q 667 699 606 736 q 765 592 729 663 q 800 422 800 522 l 800 35 q 790 10 800 19 q 765 0 779 0 l 618 0 q 593 10 603 0 q 583 35 583 19 l 583 414 q 548 528 583 488 q 444 569 513 569 q 340 528 379 569 q 301 414 301 488 l 301 35 q 292 10 301 19 q 268 0 282 0 l 121 0 z "},"ň":{"ha":879,"x_min":88,"x_max":800,"o":"m 121 0 q 97 10 107 0 q 88 35 88 19 l 88 688 q 97 713 88 703 q 121 722 107 722 l 257 722 q 282 713 272 722 q 292 688 292 703 l 292 633 q 385 707 328 678 q 524 736 442 736 q 667 699 606 736 q 765 592 729 663 q 800 422 800 522 l 800 35 q 790 10 800 19 q 765 0 779 0 l 618 0 q 593 10 603 0 q 583 35 583 19 l 583 414 q 548 528 583 488 q 444 569 513 569 q 340 528 379 569 q 301 414 301 488 l 301 35 q 292 10 301 19 q 268 0 282 0 l 121 0 m 397 826 q 373 831 383 826 q 349 850 363 836 l 210 994 q 199 1017 199 1006 q 219 1036 199 1036 l 278 1036 q 301 1034 289 1036 q 324 1026 314 1032 l 443 956 l 563 1026 q 585 1034 572 1032 q 608 1036 597 1036 l 667 1036 q 688 1017 688 1036 q 675 994 688 1006 l 536 850 q 512 831 522 836 q 489 826 501 826 l 397 826 z "},"ņ":{"ha":879,"x_min":88,"x_max":800,"o":"m 121 0 q 97 10 107 0 q 88 35 88 19 l 88 688 q 97 713 88 703 q 121 722 107 722 l 257 722 q 282 713 272 722 q 292 688 292 703 l 292 633 q 385 707 328 678 q 524 736 442 736 q 667 699 606 736 q 765 592 729 663 q 800 422 800 522 l 800 35 q 790 10 800 19 q 765 0 779 0 l 618 0 q 593 10 603 0 q 583 35 583 19 l 583 414 q 548 528 583 488 q 444 569 513 569 q 340 528 379 569 q 301 414 301 488 l 301 35 q 292 10 301 19 q 268 0 282 0 l 121 0 m 338 -321 q 318 -312 325 -321 q 313 -290 311 -303 l 339 -115 q 353 -83 342 -97 q 386 -69 364 -69 l 517 -69 q 535 -78 528 -69 q 542 -96 542 -86 q 539 -112 542 -106 l 472 -283 q 456 -309 467 -297 q 424 -321 446 -321 l 338 -321 z "},"ñ":{"ha":879,"x_min":88,"x_max":800,"o":"m 121 0 q 97 10 107 0 q 88 35 88 19 l 88 688 q 97 713 88 703 q 121 722 107 722 l 257 722 q 282 713 272 722 q 292 688 292 703 l 292 633 q 385 707 328 678 q 524 736 442 736 q 667 699 606 736 q 765 592 729 663 q 800 422 800 522 l 800 35 q 790 10 800 19 q 765 0 779 0 l 618 0 q 593 10 603 0 q 583 35 583 19 l 583 414 q 548 528 583 488 q 444 569 513 569 q 340 528 379 569 q 301 414 301 488 l 301 35 q 292 10 301 19 q 268 0 282 0 l 121 0 m 522 819 q 462 832 485 819 q 420 856 439 844 q 378 868 401 868 q 351 858 360 868 q 336 838 343 849 q 314 826 329 826 l 240 826 q 224 834 231 826 q 217 850 217 842 q 224 899 217 872 q 249 952 232 926 q 294 994 267 978 q 361 1011 322 1011 q 422 999 399 1011 q 465 975 446 988 q 507 963 483 963 q 533 974 525 963 q 548 995 540 985 q 571 1006 556 1006 l 643 1006 q 662 998 656 1006 q 668 981 668 990 q 660 931 668 958 q 634 878 651 904 q 589 836 617 853 q 522 819 561 819 z "},"ŋ":{"ha":879,"x_min":88,"x_max":800,"o":"m 444 -312 q 420 -303 431 -312 q 410 -278 410 -293 l 410 -162 q 420 -139 410 -149 q 444 -129 431 -129 l 475 -129 q 542 -113 518 -129 q 574 -68 565 -97 q 583 3 583 -39 l 583 414 q 548 528 583 488 q 444 569 513 569 q 340 528 379 569 q 301 414 301 488 l 301 35 q 292 10 301 19 q 268 0 282 0 l 121 0 q 97 10 107 0 q 88 35 88 19 l 88 688 q 97 713 88 703 q 121 722 107 722 l 257 722 q 282 713 272 722 q 292 688 292 703 l 292 633 q 385 707 328 678 q 524 736 442 736 q 667 699 606 736 q 765 592 729 663 q 800 422 800 522 l 800 -4 q 761 -173 800 -104 q 648 -277 722 -242 q 468 -312 574 -312 l 444 -312 z "},"o":{"ha":835,"x_min":60,"x_max":776,"o":"m 418 -14 q 225 24 303 -14 q 106 133 147 63 q 61 299 65 204 q 60 362 60 326 q 61 424 60 397 q 108 590 65 519 q 229 698 151 660 q 418 736 307 736 q 606 698 528 736 q 726 590 683 660 q 774 424 769 519 q 776 362 776 397 q 774 299 776 326 q 728 133 769 204 q 610 24 688 63 q 418 -14 532 -14 m 418 139 q 521 181 486 139 q 558 306 556 224 q 560 361 560 326 q 558 417 560 396 q 521 540 556 497 q 418 583 486 583 q 315 540 350 583 q 276 417 279 497 q 275 361 275 396 q 276 306 275 326 q 315 181 279 224 q 418 139 350 139 z "},"ó":{"ha":835,"x_min":60,"x_max":776,"o":"m 418 -14 q 225 24 303 -14 q 106 133 147 63 q 61 299 65 204 q 60 362 60 326 q 61 424 60 397 q 108 590 65 519 q 229 698 151 660 q 418 736 307 736 q 606 698 528 736 q 726 590 683 660 q 774 424 769 519 q 776 362 776 397 q 774 299 776 326 q 728 133 769 204 q 610 24 688 63 q 418 -14 532 -14 m 418 139 q 521 181 486 139 q 558 306 556 224 q 560 361 560 326 q 558 417 560 396 q 521 540 556 497 q 418 583 486 583 q 315 540 350 583 q 276 417 279 497 q 275 361 275 396 q 276 306 275 326 q 315 181 279 224 q 418 139 350 139 m 347 826 q 325 849 325 826 q 332 867 325 860 l 450 1010 q 473 1031 463 1026 q 501 1036 483 1036 l 661 1036 q 688 1008 688 1036 q 681 992 688 999 l 501 846 q 480 831 490 836 q 451 826 469 826 l 347 826 z "},"ŏ":{"ha":835,"x_min":60,"x_max":776,"o":"m 418 -14 q 225 24 303 -14 q 106 133 147 63 q 61 299 65 204 q 60 362 60 326 q 61 424 60 397 q 108 590 65 519 q 229 698 151 660 q 418 736 307 736 q 606 698 528 736 q 726 590 683 660 q 774 424 769 519 q 776 362 776 397 q 774 299 776 326 q 728 133 769 204 q 610 24 688 63 q 418 -14 532 -14 m 418 139 q 521 181 486 139 q 558 306 556 224 q 560 361 560 326 q 558 417 560 396 q 521 540 556 497 q 418 583 486 583 q 315 540 350 583 q 276 417 279 497 q 275 361 275 396 q 276 306 275 326 q 315 181 279 224 q 418 139 350 139 m 418 819 q 305 846 349 819 q 241 915 261 872 q 221 1010 221 958 q 228 1028 221 1021 q 247 1036 235 1036 l 325 1036 q 344 1028 338 1036 q 351 1010 351 1021 q 365 951 351 978 q 418 925 379 925 q 472 951 458 925 q 485 1010 485 978 q 492 1028 485 1021 q 511 1036 499 1036 l 589 1036 q 608 1028 601 1036 q 615 1010 615 1021 q 594 915 615 958 q 531 846 574 872 q 418 819 488 819 z "},"ô":{"ha":835,"x_min":60,"x_max":776,"o":"m 418 -14 q 225 24 303 -14 q 106 133 147 63 q 61 299 65 204 q 60 362 60 326 q 61 424 60 397 q 108 590 65 519 q 229 698 151 660 q 418 736 307 736 q 606 698 528 736 q 726 590 683 660 q 774 424 769 519 q 776 362 776 397 q 774 299 776 326 q 728 133 769 204 q 610 24 688 63 q 418 -14 532 -14 m 418 139 q 521 181 486 139 q 558 306 556 224 q 560 361 560 326 q 558 417 560 396 q 521 540 556 497 q 418 583 486 583 q 315 540 350 583 q 276 417 279 497 q 275 361 275 396 q 276 306 275 326 q 315 181 279 224 q 418 139 350 139 m 194 826 q 174 846 174 826 q 185 868 174 857 l 324 1013 q 348 1032 338 1028 q 372 1036 358 1036 l 464 1036 q 487 1032 476 1036 q 511 1013 497 1028 l 650 868 q 663 846 663 857 q 642 826 663 826 l 583 826 q 560 828 572 826 q 538 836 547 831 l 418 907 l 299 836 q 276 828 289 831 q 253 826 264 826 l 194 826 z "},"ö":{"ha":835,"x_min":60,"x_max":776,"o":"m 418 -14 q 225 24 303 -14 q 106 133 147 63 q 61 299 65 204 q 60 362 60 326 q 61 424 60 397 q 108 590 65 519 q 229 698 151 660 q 418 736 307 736 q 606 698 528 736 q 726 590 683 660 q 774 424 769 519 q 776 362 776 397 q 774 299 776 326 q 728 133 769 204 q 610 24 688 63 q 418 -14 532 -14 m 418 139 q 521 181 486 139 q 558 306 556 224 q 560 361 560 326 q 558 417 560 396 q 521 540 556 497 q 418 583 486 583 q 315 540 350 583 q 276 417 279 497 q 275 361 275 396 q 276 306 275 326 q 315 181 279 224 q 418 139 350 139 m 496 849 q 474 857 482 849 q 465 879 465 865 l 465 993 q 474 1016 465 1007 q 496 1025 482 1025 l 610 1025 q 633 1016 624 1025 q 642 993 642 1007 l 642 879 q 633 857 642 865 q 610 849 624 849 l 496 849 m 222 849 q 200 857 208 849 q 192 879 192 865 l 192 993 q 200 1016 192 1007 q 222 1025 208 1025 l 336 1025 q 359 1016 350 1025 q 368 993 368 1007 l 368 879 q 359 857 368 865 q 336 849 350 849 l 222 849 z "},"ò":{"ha":835,"x_min":60,"x_max":776,"o":"m 418 -14 q 225 24 303 -14 q 106 133 147 63 q 61 299 65 204 q 60 362 60 326 q 61 424 60 397 q 108 590 65 519 q 229 698 151 660 q 418 736 307 736 q 606 698 528 736 q 726 590 683 660 q 774 424 769 519 q 776 362 776 397 q 774 299 776 326 q 728 133 769 204 q 610 24 688 63 q 418 -14 532 -14 m 418 139 q 521 181 486 139 q 558 306 556 224 q 560 361 560 326 q 558 417 560 396 q 521 540 556 497 q 418 583 486 583 q 315 540 350 583 q 276 417 279 497 q 275 361 275 396 q 276 306 275 326 q 315 181 279 224 q 418 139 350 139 m 389 826 q 360 831 371 826 q 339 846 350 836 l 160 992 q 153 1008 153 999 q 179 1036 153 1036 l 340 1036 q 368 1031 358 1036 q 392 1010 378 1026 l 508 867 q 515 849 515 860 q 493 826 515 826 l 389 826 z "},"ő":{"ha":835,"x_min":60,"x_max":776,"o":"m 418 -14 q 225 24 303 -14 q 106 133 147 63 q 61 299 65 204 q 60 362 60 326 q 61 424 60 397 q 108 590 65 519 q 229 698 151 660 q 418 736 307 736 q 606 698 528 736 q 726 590 683 660 q 774 424 769 519 q 776 362 776 397 q 774 299 776 326 q 728 133 769 204 q 610 24 688 63 q 418 -14 532 -14 m 418 139 q 521 181 486 139 q 558 306 556 224 q 560 361 560 326 q 558 417 560 396 q 521 540 556 497 q 418 583 486 583 q 315 540 350 583 q 276 417 279 497 q 275 361 275 396 q 276 306 275 326 q 315 181 279 224 q 418 139 350 139 m 499 826 q 476 849 476 826 q 479 860 476 854 q 483 869 482 865 l 546 1010 q 597 1036 558 1036 l 725 1036 q 753 1010 753 1036 q 744 992 753 1000 l 615 846 q 571 826 599 826 l 499 826 m 219 826 q 197 849 197 826 q 200 860 197 854 q 204 869 203 865 l 267 1010 q 318 1036 279 1036 l 446 1036 q 474 1010 474 1036 q 465 992 474 1000 l 336 846 q 292 826 319 826 l 219 826 z "},"ō":{"ha":835,"x_min":60,"x_max":776,"o":"m 418 -14 q 225 24 303 -14 q 106 133 147 63 q 61 299 65 204 q 60 362 60 326 q 61 424 60 397 q 108 590 65 519 q 229 698 151 660 q 418 736 307 736 q 606 698 528 736 q 726 590 683 660 q 774 424 769 519 q 776 362 776 397 q 774 299 776 326 q 728 133 769 204 q 610 24 688 63 q 418 -14 532 -14 m 418 139 q 521 181 486 139 q 558 306 556 224 q 560 361 560 326 q 558 417 560 396 q 521 540 556 497 q 418 583 486 583 q 315 540 350 583 q 276 417 279 497 q 275 361 275 396 q 276 306 275 326 q 315 181 279 224 q 418 139 350 139 m 232 844 q 210 853 218 844 q 201 876 201 861 l 201 960 q 210 982 201 974 q 232 990 218 990 l 600 990 q 622 982 614 990 q 631 960 631 974 l 631 876 q 622 853 631 861 q 600 844 614 844 l 232 844 z "},"ø":{"ha":835,"x_min":60,"x_max":776,"o":"m 418 -14 q 225 24 303 -14 q 106 133 147 63 q 61 299 65 204 q 60 362 60 326 q 61 424 60 397 q 108 590 65 519 q 229 698 151 660 q 418 736 307 736 q 606 698 528 736 q 726 590 683 660 q 774 424 769 519 q 776 362 776 397 q 774 299 776 326 q 728 133 769 204 q 610 24 688 63 q 418 -14 532 -14 m 418 139 q 521 181 486 139 q 558 306 556 224 q 560 361 560 326 q 558 417 560 396 q 521 540 556 497 q 418 583 486 583 q 315 540 350 583 q 276 417 279 497 q 275 361 275 396 q 276 306 275 326 q 315 181 279 224 q 418 139 350 139 m 93 -39 q 74 -31 82 -39 q 65 -11 65 -22 q 67 -3 65 -7 q 72 8 68 1 l 668 739 q 680 752 672 744 q 701 760 688 760 l 740 760 q 760 751 751 760 q 768 732 768 743 q 767 725 768 731 q 761 713 767 719 l 165 -18 q 154 -31 161 -24 q 133 -39 147 -39 l 93 -39 z "},"ǿ":{"ha":835,"x_min":60,"x_max":776,"o":"m 418 -14 q 225 24 303 -14 q 106 133 147 63 q 61 299 65 204 q 60 362 60 326 q 61 424 60 397 q 108 590 65 519 q 229 698 151 660 q 418 736 307 736 q 606 698 528 736 q 726 590 683 660 q 774 424 769 519 q 776 362 776 397 q 774 299 776 326 q 728 133 769 204 q 610 24 688 63 q 418 -14 532 -14 m 418 139 q 521 181 486 139 q 558 306 556 224 q 560 361 560 326 q 558 417 560 396 q 521 540 556 497 q 418 583 486 583 q 315 540 350 583 q 276 417 279 497 q 275 361 275 396 q 276 306 275 326 q 315 181 279 224 q 418 139 350 139 m 93 -39 q 74 -31 82 -39 q 65 -11 65 -22 q 67 -3 65 -7 q 72 8 68 1 l 668 739 q 680 752 672 744 q 701 760 688 760 l 740 760 q 760 751 751 760 q 768 732 768 743 q 767 725 768 731 q 761 713 767 719 l 165 -18 q 154 -31 161 -24 q 133 -39 147 -39 l 93 -39 m 347 826 q 325 849 325 826 q 332 867 325 860 l 450 1010 q 473 1031 463 1026 q 501 1036 483 1036 l 661 1036 q 688 1008 688 1036 q 681 992 688 999 l 501 846 q 480 831 490 836 q 451 826 469 826 l 347 826 z "},"õ":{"ha":835,"x_min":60,"x_max":776,"o":"m 418 -14 q 225 24 303 -14 q 106 133 147 63 q 61 299 65 204 q 60 362 60 326 q 61 424 60 397 q 108 590 65 519 q 229 698 151 660 q 418 736 307 736 q 606 698 528 736 q 726 590 683 660 q 774 424 769 519 q 776 362 776 397 q 774 299 776 326 q 728 133 769 204 q 610 24 688 63 q 418 -14 532 -14 m 418 139 q 521 181 486 139 q 558 306 556 224 q 560 361 560 326 q 558 417 560 396 q 521 540 556 497 q 418 583 486 583 q 315 540 350 583 q 276 417 279 497 q 275 361 275 396 q 276 306 275 326 q 315 181 279 224 q 418 139 350 139 m 497 819 q 437 832 460 819 q 395 856 414 844 q 353 868 376 868 q 326 858 335 868 q 311 838 318 849 q 289 826 304 826 l 215 826 q 199 834 206 826 q 192 850 192 842 q 199 899 192 872 q 224 952 207 926 q 269 994 242 978 q 336 1011 297 1011 q 397 999 374 1011 q 440 975 421 988 q 482 963 458 963 q 508 974 500 963 q 523 995 515 985 q 546 1006 531 1006 l 618 1006 q 637 998 631 1006 q 643 981 643 990 q 635 931 643 958 q 609 878 626 904 q 564 836 592 853 q 497 819 536 819 z "},"œ":{"ha":1315,"x_min":60,"x_max":1265,"o":"m 418 -14 q 226 24 304 -14 q 108 133 149 63 q 61 299 67 204 q 60 362 60 326 q 61 424 60 397 q 109 590 67 519 q 229 698 151 660 q 418 736 307 736 q 567 709 503 736 q 672 635 632 682 q 775 710 714 683 q 913 736 836 736 q 1108 688 1031 736 q 1226 558 1186 640 q 1265 368 1265 475 l 1265 336 q 1256 313 1265 322 q 1231 303 1246 303 l 778 303 l 778 292 q 794 210 779 247 q 840 151 810 174 q 913 129 869 129 q 965 139 943 129 q 1002 163 988 149 q 1024 186 1017 176 q 1044 203 1036 200 q 1068 207 1051 207 l 1213 207 q 1235 199 1226 207 q 1243 178 1244 192 q 1220 123 1242 156 q 1158 59 1199 90 q 1055 7 1117 28 q 914 -14 993 -14 q 774 12 836 -14 q 671 85 713 38 q 567 12 631 38 q 418 -14 504 -14 m 418 139 q 521 181 486 139 q 560 306 556 224 q 561 361 561 326 q 560 417 561 396 q 521 540 556 497 q 418 583 486 583 q 316 540 351 583 q 276 417 281 497 q 275 361 275 396 q 276 306 275 326 q 316 181 281 224 q 418 139 351 139 m 778 429 l 1050 429 l 1050 432 q 1034 519 1050 482 q 987 576 1018 556 q 913 597 956 597 q 840 576 869 597 q 794 519 810 556 q 778 432 778 482 l 778 429 z "},"p":{"ha":864,"x_min":88,"x_max":804,"o":"m 122 -264 q 97 -254 107 -264 q 88 -229 88 -244 l 88 688 q 97 713 88 703 q 122 722 107 722 l 254 722 q 279 713 269 722 q 289 688 289 703 l 289 635 q 375 708 322 679 q 507 736 428 736 q 633 713 579 736 q 723 648 686 690 q 780 546 760 606 q 803 411 800 486 q 804 361 804 385 q 803 310 804 338 q 781 179 801 239 q 724 76 761 119 q 633 10 686 33 q 507 -14 579 -14 q 384 12 436 -14 q 299 82 332 38 l 299 -229 q 289 -254 299 -244 q 265 -264 279 -264 l 122 -264 m 444 153 q 528 176 497 153 q 572 236 558 199 q 588 318 585 274 q 588 404 590 361 q 572 486 585 449 q 528 547 558 524 q 444 569 497 569 q 361 546 393 569 q 315 486 329 522 q 299 408 301 450 q 297 357 297 383 q 299 304 297 331 q 316 231 300 265 q 363 175 332 197 q 444 153 394 153 z "},"þ":{"ha":865,"x_min":89,"x_max":806,"o":"m 122 -264 q 99 -254 108 -264 q 89 -229 89 -244 l 89 951 q 99 976 89 967 q 122 986 108 986 l 265 986 q 290 976 281 986 q 300 951 300 967 l 300 642 q 381 711 333 686 q 508 736 429 736 q 633 713 579 736 q 724 648 686 690 q 781 546 761 606 q 804 411 801 486 q 806 361 806 385 q 804 310 806 338 q 781 179 801 239 q 724 76 761 119 q 633 10 688 33 q 508 -14 579 -14 q 385 12 436 -14 q 300 82 333 38 l 300 -229 q 290 -254 300 -244 q 265 -264 281 -264 l 122 -264 m 444 153 q 528 176 499 153 q 572 236 558 199 q 589 318 586 274 q 589 404 592 361 q 572 486 586 449 q 528 547 558 524 q 444 569 499 569 q 362 546 393 569 q 316 486 331 522 q 300 408 301 450 q 299 357 299 383 q 300 304 299 331 q 317 231 301 265 q 364 175 332 197 q 444 153 396 153 z "},"q":{"ha":864,"x_min":60,"x_max":776,"o":"m 599 -264 q 575 -254 585 -264 q 565 -229 565 -244 l 565 82 q 480 12 532 38 q 357 -14 428 -14 q 232 10 286 -14 q 140 76 178 33 q 83 179 103 119 q 61 310 64 239 q 60 361 60 338 q 61 411 60 385 q 84 546 64 486 q 141 648 104 606 q 232 713 178 690 q 357 736 286 736 q 490 708 436 736 q 575 635 543 679 l 575 688 q 585 713 575 703 q 610 722 594 722 l 742 722 q 767 713 757 722 q 776 688 776 703 l 776 -229 q 767 -254 776 -244 q 742 -264 757 -264 l 599 -264 m 419 153 q 501 175 469 153 q 548 231 532 197 q 565 304 564 265 q 567 357 567 331 q 565 408 567 383 q 549 486 564 450 q 503 546 535 522 q 419 569 472 569 q 337 547 368 569 q 292 486 306 524 q 276 404 279 449 q 276 318 274 361 q 292 236 279 274 q 337 176 306 199 q 419 153 368 153 z "},"r":{"ha":604,"x_min":88,"x_max":588,"o":"m 121 0 q 97 10 107 0 q 88 35 88 19 l 88 688 q 97 712 88 701 q 121 722 107 722 l 257 722 q 281 712 271 722 q 292 688 292 701 l 292 632 q 377 699 326 675 q 494 722 428 722 l 554 722 q 578 713 568 722 q 588 688 588 703 l 588 568 q 578 543 588 553 q 554 533 568 533 l 432 533 q 336 499 371 533 q 301 403 301 465 l 301 35 q 292 10 301 19 q 267 0 282 0 l 121 0 z "},"ŕ":{"ha":604,"x_min":88,"x_max":597,"o":"m 121 0 q 97 10 107 0 q 88 35 88 19 l 88 688 q 97 712 88 701 q 121 722 107 722 l 257 722 q 281 712 271 722 q 292 688 292 701 l 292 632 q 377 699 326 675 q 494 722 428 722 l 554 722 q 578 713 568 722 q 588 688 588 703 l 588 568 q 578 543 588 553 q 554 533 568 533 l 432 533 q 336 499 371 533 q 301 403 301 465 l 301 35 q 292 10 301 19 q 267 0 282 0 l 121 0 m 257 826 q 235 849 235 826 q 242 867 235 860 l 360 1010 q 383 1031 372 1026 q 411 1036 393 1036 l 571 1036 q 597 1008 597 1036 q 590 992 597 999 l 411 846 q 390 831 400 836 q 361 826 379 826 l 257 826 z "},"ř":{"ha":604,"x_min":82,"x_max":588,"o":"m 121 0 q 97 10 107 0 q 88 35 88 19 l 88 688 q 97 712 88 701 q 121 722 107 722 l 257 722 q 281 712 271 722 q 292 688 292 701 l 292 632 q 377 699 326 675 q 494 722 428 722 l 554 722 q 578 713 568 722 q 588 688 588 703 l 588 568 q 578 543 588 553 q 554 533 568 533 l 432 533 q 336 499 371 533 q 301 403 301 465 l 301 35 q 292 10 301 19 q 267 0 282 0 l 121 0 m 281 826 q 256 831 267 826 q 232 850 246 836 l 93 994 q 82 1017 82 1006 q 103 1036 82 1036 l 161 1036 q 185 1034 172 1036 q 207 1026 197 1032 l 326 956 l 446 1026 q 468 1034 456 1032 q 492 1036 481 1036 l 550 1036 q 571 1017 571 1036 q 558 994 571 1006 l 419 850 q 395 831 406 836 q 372 826 385 826 l 281 826 z "},"ŗ":{"ha":604,"x_min":58,"x_max":588,"o":"m 121 0 q 97 10 107 0 q 88 35 88 19 l 88 688 q 97 712 88 701 q 121 722 107 722 l 257 722 q 281 712 271 722 q 292 688 292 701 l 292 632 q 377 699 326 675 q 494 722 428 722 l 554 722 q 578 713 568 722 q 588 688 588 703 l 588 568 q 578 543 588 553 q 554 533 568 533 l 432 533 q 336 499 371 533 q 301 403 301 465 l 301 35 q 292 10 301 19 q 267 0 282 0 l 121 0 m 85 -321 q 65 -312 72 -321 q 60 -290 58 -303 l 86 -115 q 100 -83 89 -97 q 133 -69 111 -69 l 264 -69 q 282 -78 275 -69 q 289 -96 289 -86 q 286 -112 289 -106 l 219 -283 q 203 -309 214 -297 q 171 -321 193 -321 l 85 -321 z "},"s":{"ha":753,"x_min":46,"x_max":707,"o":"m 372 -14 q 224 6 286 -14 q 124 56 163 26 q 67 115 86 85 q 47 165 49 144 q 57 190 46 181 q 79 200 68 200 l 214 200 q 222 199 218 200 q 231 192 226 197 q 268 163 249 179 q 313 136 288 147 q 378 125 339 125 q 456 144 424 125 q 488 197 488 163 q 473 239 488 222 q 418 269 458 256 q 299 300 378 283 q 171 344 224 317 q 92 415 118 372 q 65 517 65 457 q 99 621 65 571 q 200 703 133 671 q 367 736 267 736 q 501 717 443 736 q 597 670 558 699 q 656 612 636 642 q 678 560 676 582 q 669 536 679 546 q 647 526 660 526 l 524 526 q 511 528 517 526 q 501 535 506 531 q 467 560 485 546 q 426 586 450 575 q 365 597 403 597 q 295 577 319 597 q 271 526 271 557 q 283 490 271 507 q 335 460 296 474 q 453 431 374 446 q 603 381 547 414 q 683 303 658 347 q 707 210 707 260 q 668 94 707 144 q 555 15 629 43 q 372 -14 481 -14 z "},"ś":{"ha":753,"x_min":46,"x_max":707,"o":"m 372 -14 q 224 6 286 -14 q 124 56 163 26 q 67 115 86 85 q 47 165 49 144 q 57 190 46 181 q 79 200 68 200 l 214 200 q 222 199 218 200 q 231 192 226 197 q 268 163 249 179 q 313 136 288 147 q 378 125 339 125 q 456 144 424 125 q 488 197 488 163 q 473 239 488 222 q 418 269 458 256 q 299 300 378 283 q 171 344 224 317 q 92 415 118 372 q 65 517 65 457 q 99 621 65 571 q 200 703 133 671 q 367 736 267 736 q 501 717 443 736 q 597 670 558 699 q 656 612 636 642 q 678 560 676 582 q 669 536 679 546 q 647 526 660 526 l 524 526 q 511 528 517 526 q 501 535 506 531 q 467 560 485 546 q 426 586 450 575 q 365 597 403 597 q 295 577 319 597 q 271 526 271 557 q 283 490 271 507 q 335 460 296 474 q 453 431 374 446 q 603 381 547 414 q 683 303 658 347 q 707 210 707 260 q 668 94 707 144 q 555 15 629 43 q 372 -14 481 -14 m 306 826 q 283 849 283 826 q 290 867 283 860 l 408 1010 q 431 1031 421 1026 q 460 1036 442 1036 l 619 1036 q 646 1008 646 1036 q 639 992 646 999 l 460 846 q 438 831 449 836 q 410 826 428 826 l 306 826 z "},"š":{"ha":753,"x_min":46,"x_max":707,"o":"m 372 -14 q 224 6 286 -14 q 124 56 163 26 q 67 115 86 85 q 47 165 49 144 q 57 190 46 181 q 79 200 68 200 l 214 200 q 222 199 218 200 q 231 192 226 197 q 268 163 249 179 q 313 136 288 147 q 378 125 339 125 q 456 144 424 125 q 488 197 488 163 q 473 239 488 222 q 418 269 458 256 q 299 300 378 283 q 171 344 224 317 q 92 415 118 372 q 65 517 65 457 q 99 621 65 571 q 200 703 133 671 q 367 736 267 736 q 501 717 443 736 q 597 670 558 699 q 656 612 636 642 q 678 560 676 582 q 669 536 679 546 q 647 526 660 526 l 524 526 q 511 528 517 526 q 501 535 506 531 q 467 560 485 546 q 426 586 450 575 q 365 597 403 597 q 295 577 319 597 q 271 526 271 557 q 283 490 271 507 q 335 460 296 474 q 453 431 374 446 q 603 381 547 414 q 683 303 658 347 q 707 210 707 260 q 668 94 707 144 q 555 15 629 43 q 372 -14 481 -14 m 329 826 q 305 831 315 826 q 281 850 294 836 l 142 994 q 131 1017 131 1006 q 151 1036 131 1036 l 210 1036 q 233 1034 221 1036 q 256 1026 246 1032 l 375 956 l 494 1026 q 517 1034 504 1032 q 540 1036 529 1036 l 599 1036 q 619 1017 619 1036 q 607 994 619 1006 l 468 850 q 444 831 454 836 q 421 826 433 826 l 329 826 z "},"ş":{"ha":753,"x_min":46,"x_max":707,"o":"m 389 -306 q 322 -293 351 -306 q 278 -264 292 -281 q 279 -235 265 -247 l 303 -212 q 324 -206 315 -201 q 348 -219 333 -211 q 389 -228 363 -228 q 424 -215 410 -228 q 438 -183 438 -203 q 424 -153 438 -165 q 389 -140 411 -140 q 358 -145 372 -140 q 332 -151 343 -150 q 310 -143 321 -153 l 285 -117 q 277 -98 275 -108 q 286 -72 279 -87 l 313 -10 q 160 33 219 1 q 75 103 101 65 q 47 165 49 140 q 57 190 46 181 q 79 200 68 200 l 208 200 q 218 199 214 200 q 228 192 222 197 q 267 163 247 179 q 313 136 286 147 q 378 125 339 125 q 456 144 424 125 q 488 197 488 163 q 473 239 488 222 q 418 269 458 256 q 299 300 378 283 q 171 344 224 317 q 92 415 118 372 q 65 517 65 457 q 99 621 65 571 q 200 703 133 671 q 367 736 267 736 q 501 717 443 736 q 597 670 558 699 q 656 612 636 642 q 678 560 676 582 q 669 536 679 546 q 647 526 660 526 l 522 526 q 510 528 515 526 q 501 535 506 531 q 467 560 485 546 q 426 586 450 575 q 365 597 403 597 q 295 577 319 597 q 271 526 271 557 q 283 490 271 507 q 335 460 296 474 q 453 431 374 446 q 603 381 547 414 q 683 303 658 347 q 707 210 707 260 q 626 53 707 115 q 396 -14 546 -8 l 367 -71 q 390 -65 375 -67 q 414 -62 404 -62 q 494 -96 464 -62 q 524 -182 524 -129 q 488 -270 524 -235 q 389 -306 453 -306 z "},"ŝ":{"ha":753,"x_min":46,"x_max":707,"o":"m 372 -14 q 224 6 286 -14 q 124 56 163 26 q 67 115 86 85 q 47 165 49 144 q 57 190 46 181 q 79 200 68 200 l 214 200 q 222 199 218 200 q 231 192 226 197 q 268 163 249 179 q 313 136 288 147 q 378 125 339 125 q 456 144 424 125 q 488 197 488 163 q 473 239 488 222 q 418 269 458 256 q 299 300 378 283 q 171 344 224 317 q 92 415 118 372 q 65 517 65 457 q 99 621 65 571 q 200 703 133 671 q 367 736 267 736 q 501 717 443 736 q 597 670 558 699 q 656 612 636 642 q 678 560 676 582 q 669 536 679 546 q 647 526 660 526 l 524 526 q 511 528 517 526 q 501 535 506 531 q 467 560 485 546 q 426 586 450 575 q 365 597 403 597 q 295 577 319 597 q 271 526 271 557 q 283 490 271 507 q 335 460 296 474 q 453 431 374 446 q 603 381 547 414 q 683 303 658 347 q 707 210 707 260 q 668 94 707 144 q 555 15 629 43 q 372 -14 481 -14 m 151 826 q 131 846 131 826 q 142 868 131 857 l 281 1013 q 305 1032 294 1028 q 329 1036 315 1036 l 421 1036 q 444 1032 433 1036 q 468 1013 454 1028 l 607 868 q 619 846 619 857 q 599 826 619 826 l 540 826 q 517 828 529 826 q 494 836 504 831 l 375 907 l 256 836 q 233 828 246 831 q 210 826 221 826 l 151 826 z "},"ș":{"ha":753,"x_min":46,"x_max":707,"o":"m 372 -14 q 224 6 286 -14 q 124 56 163 26 q 67 115 86 85 q 47 165 49 144 q 57 190 46 181 q 79 200 68 200 l 214 200 q 222 199 218 200 q 231 192 226 197 q 268 163 249 179 q 313 136 288 147 q 378 125 339 125 q 456 144 424 125 q 488 197 488 163 q 473 239 488 222 q 418 269 458 256 q 299 300 378 283 q 171 344 224 317 q 92 415 118 372 q 65 517 65 457 q 99 621 65 571 q 200 703 133 671 q 367 736 267 736 q 501 717 443 736 q 597 670 558 699 q 656 612 636 642 q 678 560 676 582 q 669 536 679 546 q 647 526 660 526 l 524 526 q 511 528 517 526 q 501 535 506 531 q 467 560 485 546 q 426 586 450 575 q 365 597 403 597 q 295 577 319 597 q 271 526 271 557 q 283 490 271 507 q 335 460 296 474 q 453 431 374 446 q 603 381 547 414 q 683 303 658 347 q 707 210 707 260 q 668 94 707 144 q 555 15 629 43 q 372 -14 481 -14 m 268 -321 q 249 -312 256 -321 q 243 -290 242 -303 l 269 -115 q 283 -83 272 -97 q 317 -69 294 -69 l 447 -69 q 465 -78 458 -69 q 472 -96 472 -86 q 469 -112 472 -106 l 403 -283 q 387 -309 397 -297 q 354 -321 376 -321 l 268 -321 z "},"ß":{"ha":869,"x_min":88,"x_max":815,"o":"m 122 0 q 97 10 107 0 q 88 35 88 19 l 88 661 q 124 824 88 751 q 236 942 160 897 q 435 986 313 986 q 632 946 557 986 q 741 844 707 906 q 775 715 775 782 q 761 630 775 667 q 724 567 747 593 q 672 522 700 540 q 755 469 724 503 q 801 390 786 435 q 815 290 815 346 q 796 190 815 240 q 735 96 776 139 q 628 26 693 53 q 469 0 563 0 l 394 0 q 366 10 376 0 q 356 35 356 19 l 356 125 q 366 149 356 139 q 394 158 376 160 l 440 158 q 557 199 515 158 q 599 299 599 239 q 558 399 599 358 q 438 439 518 439 l 392 439 q 365 449 374 439 q 356 472 356 458 l 356 551 q 363 576 356 567 q 392 586 371 586 l 431 586 q 538 619 501 588 q 575 706 575 650 q 537 792 575 758 q 435 826 499 826 q 333 787 371 826 q 294 664 294 747 l 294 35 q 285 10 294 19 q 260 0 275 0 l 122 0 z "},"ſ":{"ha":460,"x_min":24,"x_max":590,"o":"m 201 0 q 178 10 188 0 q 168 35 168 19 l 168 558 l 58 558 q 34 568 44 558 q 24 593 24 578 l 24 688 q 34 713 24 703 q 58 722 44 722 l 168 722 l 168 769 q 201 917 168 860 q 299 1001 235 974 q 456 1028 363 1028 l 557 1028 q 581 1018 571 1028 q 590 993 590 1008 l 590 899 q 581 874 590 883 q 557 864 571 864 l 464 864 q 406 851 426 864 q 379 816 386 838 q 372 765 372 794 l 372 35 q 363 10 372 19 q 338 0 353 0 l 201 0 z "},"t":{"ha":622,"x_min":21,"x_max":589,"o":"m 435 0 q 288 28 349 0 q 195 117 226 57 q 164 267 164 176 l 164 558 l 56 558 q 31 568 40 558 q 21 593 21 578 l 21 688 q 31 713 21 703 q 56 722 40 722 l 164 722 l 164 951 q 174 976 164 967 q 199 986 185 986 l 335 986 q 360 976 350 986 q 369 951 369 967 l 369 722 l 543 722 q 567 713 557 722 q 576 688 576 703 l 576 593 q 567 568 576 578 q 543 558 557 558 l 369 558 l 369 283 q 388 201 369 231 q 454 171 407 171 l 556 171 q 579 161 569 171 q 589 138 589 151 l 589 35 q 579 10 589 19 q 556 0 569 0 l 435 0 z "},"ŧ":{"ha":628,"x_min":25,"x_max":593,"o":"m 439 0 q 292 28 353 0 q 199 117 231 57 q 168 267 168 176 l 168 394 l 60 394 q 35 404 44 394 q 25 429 25 414 l 25 475 q 35 499 25 489 q 60 508 44 508 l 168 508 l 168 608 l 60 608 q 35 618 44 608 q 25 642 25 628 l 25 688 q 35 713 25 703 q 60 722 44 722 l 168 722 l 168 951 q 178 976 168 967 q 203 986 188 986 l 339 986 q 363 976 353 986 q 374 951 374 967 l 374 722 l 547 722 q 571 713 561 722 q 581 688 581 703 l 581 642 q 571 618 581 628 q 547 608 561 608 l 374 608 l 374 508 l 547 508 q 571 499 561 508 q 581 475 581 489 l 581 429 q 571 404 581 414 q 547 394 561 394 l 374 394 l 374 283 q 392 201 374 231 q 458 171 411 171 l 560 171 q 583 161 574 171 q 593 138 593 151 l 593 35 q 583 10 593 19 q 560 0 574 0 l 439 0 z "},"ť":{"ha":622,"x_min":21,"x_max":692,"o":"m 435 0 q 288 28 349 0 q 195 117 226 57 q 164 267 164 176 l 164 558 l 56 558 q 31 568 40 558 q 21 593 21 578 l 21 688 q 31 713 21 703 q 56 722 40 722 l 164 722 l 164 951 q 174 976 164 967 q 199 986 185 986 l 335 986 q 360 976 350 986 q 369 951 369 967 l 369 722 l 543 722 q 567 713 557 722 q 576 688 576 703 l 576 593 q 567 568 576 578 q 543 558 557 558 l 369 558 l 369 283 q 388 201 369 231 q 454 171 407 171 l 556 171 q 579 161 569 171 q 589 138 589 151 l 589 35 q 579 10 589 19 q 556 0 569 0 l 435 0 m 488 847 q 468 856 475 847 q 463 878 461 865 l 489 1053 q 503 1085 492 1071 q 536 1099 514 1099 l 667 1099 q 685 1090 678 1099 q 692 1072 692 1082 q 689 1056 692 1063 l 622 885 q 606 859 617 871 q 574 847 596 847 l 488 847 z "},"ț":{"ha":622,"x_min":21,"x_max":589,"o":"m 435 0 q 288 28 349 0 q 195 117 226 57 q 164 267 164 176 l 164 558 l 56 558 q 31 568 40 558 q 21 593 21 578 l 21 688 q 31 713 21 703 q 56 722 40 722 l 164 722 l 164 951 q 174 976 164 967 q 199 986 185 986 l 335 986 q 360 976 350 986 q 369 951 369 967 l 369 722 l 543 722 q 567 713 557 722 q 576 688 576 703 l 576 593 q 567 568 576 578 q 543 558 557 558 l 369 558 l 369 283 q 388 201 369 231 q 454 171 407 171 l 556 171 q 579 161 569 171 q 589 138 589 151 l 589 35 q 579 10 589 19 q 556 0 569 0 l 435 0 m 269 -321 q 250 -312 257 -321 q 244 -290 243 -303 l 271 -115 q 285 -83 274 -97 q 318 -69 296 -69 l 449 -69 q 467 -78 460 -69 q 474 -96 474 -86 q 471 -112 474 -106 l 404 -283 q 388 -309 399 -297 q 356 -321 378 -321 l 269 -321 z "},"u":{"ha":876,"x_min":81,"x_max":789,"o":"m 353 -14 q 210 23 272 -14 q 115 130 149 60 q 81 300 81 200 l 81 688 q 90 713 81 703 q 114 722 100 722 l 261 722 q 286 713 276 722 q 296 688 296 703 l 296 308 q 432 153 296 153 q 535 194 497 153 q 574 308 574 235 l 574 688 q 583 713 574 703 q 608 722 593 722 l 756 722 q 779 713 769 722 q 789 688 789 703 l 789 35 q 779 10 789 19 q 756 0 769 0 l 619 0 q 594 10 604 0 q 585 35 585 19 l 585 89 q 492 13 549 39 q 353 -14 435 -14 z "},"ú":{"ha":876,"x_min":81,"x_max":789,"o":"m 353 -14 q 210 23 272 -14 q 115 130 149 60 q 81 300 81 200 l 81 688 q 90 713 81 703 q 114 722 100 722 l 261 722 q 286 713 276 722 q 296 688 296 703 l 296 308 q 432 153 296 153 q 535 194 497 153 q 574 308 574 235 l 574 688 q 583 713 574 703 q 608 722 593 722 l 756 722 q 779 713 769 722 q 789 688 789 703 l 789 35 q 779 10 789 19 q 756 0 769 0 l 619 0 q 594 10 604 0 q 585 35 585 19 l 585 89 q 492 13 549 39 q 353 -14 435 -14 m 365 826 q 343 849 343 826 q 350 867 343 860 l 468 1010 q 491 1031 481 1026 q 519 1036 501 1036 l 679 1036 q 706 1008 706 1036 q 699 992 706 999 l 519 846 q 498 831 508 836 q 469 826 488 826 l 365 826 z "},"ŭ":{"ha":876,"x_min":81,"x_max":789,"o":"m 353 -14 q 210 23 272 -14 q 115 130 149 60 q 81 300 81 200 l 81 688 q 90 713 81 703 q 114 722 100 722 l 261 722 q 286 713 276 722 q 296 688 296 703 l 296 308 q 432 153 296 153 q 535 194 497 153 q 574 308 574 235 l 574 688 q 583 713 574 703 q 608 722 593 722 l 756 722 q 779 713 769 722 q 789 688 789 703 l 789 35 q 779 10 789 19 q 756 0 769 0 l 619 0 q 594 10 604 0 q 585 35 585 19 l 585 89 q 492 13 549 39 q 353 -14 435 -14 m 436 819 q 323 846 367 819 q 259 915 279 872 q 239 1010 239 958 q 246 1028 239 1021 q 265 1036 253 1036 l 343 1036 q 363 1028 356 1036 q 369 1010 369 1021 q 383 951 369 978 q 436 925 397 925 q 490 951 476 925 q 503 1010 503 978 q 510 1028 503 1021 q 529 1036 517 1036 l 607 1036 q 626 1028 619 1036 q 633 1010 633 1021 q 613 915 633 958 q 549 846 592 872 q 436 819 506 819 z "},"û":{"ha":876,"x_min":81,"x_max":789,"o":"m 353 -14 q 210 23 272 -14 q 115 130 149 60 q 81 300 81 200 l 81 688 q 90 713 81 703 q 114 722 100 722 l 261 722 q 286 713 276 722 q 296 688 296 703 l 296 308 q 432 153 296 153 q 535 194 497 153 q 574 308 574 235 l 574 688 q 583 713 574 703 q 608 722 593 722 l 756 722 q 779 713 769 722 q 789 688 789 703 l 789 35 q 779 10 789 19 q 756 0 769 0 l 619 0 q 594 10 604 0 q 585 35 585 19 l 585 89 q 492 13 549 39 q 353 -14 435 -14 m 213 826 q 192 846 192 826 q 203 868 192 857 l 342 1013 q 366 1032 356 1028 q 390 1036 376 1036 l 482 1036 q 505 1032 494 1036 q 529 1013 515 1028 l 668 868 q 681 846 681 857 q 660 826 681 826 l 601 826 q 578 828 590 826 q 556 836 565 831 l 436 907 l 317 836 q 294 828 307 831 q 271 826 282 826 l 213 826 z "},"ü":{"ha":876,"x_min":81,"x_max":789,"o":"m 353 -14 q 210 23 272 -14 q 115 130 149 60 q 81 300 81 200 l 81 688 q 90 713 81 703 q 114 722 100 722 l 261 722 q 286 713 276 722 q 296 688 296 703 l 296 308 q 432 153 296 153 q 535 194 497 153 q 574 308 574 235 l 574 688 q 583 713 574 703 q 608 722 593 722 l 756 722 q 779 713 769 722 q 789 688 789 703 l 789 35 q 779 10 789 19 q 756 0 769 0 l 619 0 q 594 10 604 0 q 585 35 585 19 l 585 89 q 492 13 549 39 q 353 -14 435 -14 m 514 849 q 492 857 500 849 q 483 879 483 865 l 483 993 q 492 1016 483 1007 q 514 1025 500 1025 l 628 1025 q 651 1016 642 1025 q 660 993 660 1007 l 660 879 q 651 857 660 865 q 628 849 642 849 l 514 849 m 240 849 q 218 857 226 849 q 210 879 210 865 l 210 993 q 218 1016 210 1007 q 240 1025 226 1025 l 354 1025 q 377 1016 368 1025 q 386 993 386 1007 l 386 879 q 377 857 386 865 q 354 849 368 849 l 240 849 z "},"ù":{"ha":876,"x_min":81,"x_max":789,"o":"m 353 -14 q 210 23 272 -14 q 115 130 149 60 q 81 300 81 200 l 81 688 q 90 713 81 703 q 114 722 100 722 l 261 722 q 286 713 276 722 q 296 688 296 703 l 296 308 q 432 153 296 153 q 535 194 497 153 q 574 308 574 235 l 574 688 q 583 713 574 703 q 608 722 593 722 l 756 722 q 779 713 769 722 q 789 688 789 703 l 789 35 q 779 10 789 19 q 756 0 769 0 l 619 0 q 594 10 604 0 q 585 35 585 19 l 585 89 q 492 13 549 39 q 353 -14 435 -14 m 407 826 q 378 831 389 826 q 357 846 368 836 l 178 992 q 171 1008 171 999 q 197 1036 171 1036 l 358 1036 q 386 1031 376 1036 q 410 1010 396 1026 l 526 867 q 533 849 533 860 q 511 826 533 826 l 407 826 z "},"ű":{"ha":876,"x_min":81,"x_max":789,"o":"m 353 -14 q 210 23 272 -14 q 115 130 149 60 q 81 300 81 200 l 81 688 q 90 713 81 703 q 114 722 100 722 l 261 722 q 286 713 276 722 q 296 688 296 703 l 296 308 q 432 153 296 153 q 535 194 497 153 q 574 308 574 235 l 574 688 q 583 713 574 703 q 608 722 593 722 l 756 722 q 779 713 769 722 q 789 688 789 703 l 789 35 q 779 10 789 19 q 756 0 769 0 l 619 0 q 594 10 604 0 q 585 35 585 19 l 585 89 q 492 13 549 39 q 353 -14 435 -14 m 517 826 q 494 849 494 826 q 497 860 494 854 q 501 869 500 865 l 564 1010 q 615 1036 576 1036 l 743 1036 q 771 1010 771 1036 q 763 992 771 1000 l 633 846 q 589 826 617 826 l 517 826 m 238 826 q 215 849 215 826 q 218 860 215 854 q 222 869 221 865 l 285 1010 q 336 1036 297 1036 l 464 1036 q 492 1010 492 1036 q 483 992 492 1000 l 354 846 q 310 826 338 826 l 238 826 z "},"ū":{"ha":876,"x_min":81,"x_max":789,"o":"m 353 -14 q 210 23 272 -14 q 115 130 149 60 q 81 300 81 200 l 81 688 q 90 713 81 703 q 114 722 100 722 l 261 722 q 286 713 276 722 q 296 688 296 703 l 296 308 q 432 153 296 153 q 535 194 497 153 q 574 308 574 235 l 574 688 q 583 713 574 703 q 608 722 593 722 l 756 722 q 779 713 769 722 q 789 688 789 703 l 789 35 q 779 10 789 19 q 756 0 769 0 l 619 0 q 594 10 604 0 q 585 35 585 19 l 585 89 q 492 13 549 39 q 353 -14 435 -14 m 251 844 q 229 853 238 844 q 221 876 221 861 l 221 960 q 229 982 221 974 q 251 990 238 990 l 619 990 q 642 982 633 990 q 650 960 650 974 l 650 876 q 642 853 650 861 q 619 844 633 844 l 251 844 z "},"ų":{"ha":876,"x_min":81,"x_max":789,"o":"m 739 -306 q 632 -279 676 -306 q 564 -206 588 -253 q 540 -96 540 -158 q 549 -45 540 -68 q 572 -4 558 -22 q 600 24 586 14 q 589 33 593 26 q 585 49 585 40 l 585 89 q 492 13 549 39 q 353 -14 435 -14 q 210 23 272 -14 q 115 130 149 60 q 81 300 81 200 l 81 688 q 90 713 81 703 q 114 722 100 722 l 261 722 q 286 713 276 722 q 296 688 296 703 l 296 308 q 432 153 296 153 q 535 194 497 153 q 574 308 574 235 l 574 688 q 583 713 574 703 q 608 722 593 722 l 756 722 q 779 713 769 722 q 789 688 789 703 l 789 35 q 781 13 789 22 q 758 0 772 3 l 746 -1 q 688 -37 706 -11 q 671 -96 671 -62 q 689 -157 671 -133 q 744 -181 707 -181 l 756 -181 q 779 -190 769 -181 q 789 -214 789 -200 l 789 -271 q 779 -296 789 -286 q 756 -306 769 -306 l 739 -306 z "},"ů":{"ha":876,"x_min":81,"x_max":789,"o":"m 353 -14 q 210 23 272 -14 q 115 130 149 60 q 81 300 81 200 l 81 688 q 90 713 81 703 q 114 722 100 722 l 261 722 q 286 713 276 722 q 296 688 296 703 l 296 308 q 432 153 296 153 q 535 194 497 153 q 574 308 574 235 l 574 688 q 583 713 574 703 q 608 722 593 722 l 756 722 q 779 713 769 722 q 789 688 789 703 l 789 35 q 779 10 789 19 q 756 0 769 0 l 619 0 q 594 10 604 0 q 585 35 585 19 l 585 89 q 492 13 549 39 q 353 -14 435 -14 m 436 819 q 348 853 385 819 q 311 938 311 886 q 348 1023 311 989 q 436 1057 385 1057 q 524 1023 488 1057 q 561 938 561 989 q 524 853 561 886 q 436 819 488 819 m 436 896 q 466 908 454 896 q 478 938 478 919 q 466 967 478 956 q 436 979 454 979 q 406 967 418 979 q 394 938 394 956 q 406 908 394 919 q 436 896 418 896 z "},"ũ":{"ha":876,"x_min":81,"x_max":789,"o":"m 353 -14 q 210 23 272 -14 q 115 130 149 60 q 81 300 81 200 l 81 688 q 90 713 81 703 q 114 722 100 722 l 261 722 q 286 713 276 722 q 296 688 296 703 l 296 308 q 432 153 296 153 q 535 194 497 153 q 574 308 574 235 l 574 688 q 583 713 574 703 q 608 722 593 722 l 756 722 q 779 713 769 722 q 789 688 789 703 l 789 35 q 779 10 789 19 q 756 0 769 0 l 619 0 q 594 10 604 0 q 585 35 585 19 l 585 89 q 492 13 549 39 q 353 -14 435 -14 m 515 819 q 455 832 478 819 q 413 856 432 844 q 371 868 394 868 q 344 858 353 868 q 329 838 336 849 q 307 826 322 826 l 233 826 q 217 834 224 826 q 210 850 210 842 q 217 899 210 872 q 242 952 225 926 q 288 994 260 978 q 354 1011 315 1011 q 415 999 392 1011 q 458 975 439 988 q 500 963 476 963 q 526 974 518 963 q 541 995 533 985 q 564 1006 549 1006 l 636 1006 q 655 998 649 1006 q 661 981 661 990 q 653 931 661 958 q 627 878 644 904 q 582 836 610 853 q 515 819 554 819 z "},"v":{"ha":811,"x_min":31,"x_max":781,"o":"m 343 0 q 312 10 322 0 q 294 35 301 21 l 33 679 q 31 692 31 685 q 40 713 31 704 q 61 722 49 722 l 196 722 q 223 713 214 722 q 235 694 232 703 l 406 236 l 576 694 q 590 713 581 703 q 615 722 599 722 l 750 722 q 772 713 763 722 q 781 692 781 704 q 779 679 781 685 l 517 35 q 500 10 511 21 q 468 0 489 0 l 343 0 z "},"w":{"ha":1151,"x_min":39,"x_max":1111,"o":"m 286 0 q 256 10 267 0 q 240 35 246 19 l 42 678 q 39 692 39 685 q 48 713 39 704 q 69 722 57 722 l 192 722 q 219 713 210 722 q 232 694 229 703 l 358 265 l 493 692 q 506 712 496 701 q 536 722 517 722 l 615 722 q 645 712 635 722 q 658 692 656 701 l 793 265 l 919 694 q 931 713 921 703 q 958 722 942 722 l 1081 722 q 1102 713 1093 722 q 1111 692 1111 704 q 1110 678 1111 685 l 910 35 q 895 10 906 19 q 865 0 885 0 l 758 0 q 728 10 739 0 q 711 35 717 19 l 576 446 l 439 35 q 424 10 435 19 q 393 0 413 0 l 286 0 z "},"ẃ":{"ha":1151,"x_min":39,"x_max":1111,"o":"m 286 0 q 256 10 267 0 q 240 35 246 19 l 42 678 q 39 692 39 685 q 48 713 39 704 q 69 722 57 722 l 192 722 q 219 713 210 722 q 232 694 229 703 l 358 265 l 493 692 q 506 712 496 701 q 536 722 517 722 l 615 722 q 645 712 635 722 q 658 692 656 701 l 793 265 l 919 694 q 931 713 921 703 q 958 722 942 722 l 1081 722 q 1102 713 1093 722 q 1111 692 1111 704 q 1110 678 1111 685 l 910 35 q 895 10 906 19 q 865 0 885 0 l 758 0 q 728 10 739 0 q 711 35 717 19 l 576 446 l 439 35 q 424 10 435 19 q 393 0 413 0 l 286 0 m 506 826 q 483 849 483 826 q 490 867 483 860 l 608 1010 q 631 1031 621 1026 q 660 1036 642 1036 l 819 1036 q 846 1008 846 1036 q 839 992 846 999 l 660 846 q 638 831 649 836 q 610 826 628 826 l 506 826 z "},"ŵ":{"ha":1151,"x_min":39,"x_max":1111,"o":"m 286 0 q 256 10 267 0 q 240 35 246 19 l 42 678 q 39 692 39 685 q 48 713 39 704 q 69 722 57 722 l 192 722 q 219 713 210 722 q 232 694 229 703 l 358 265 l 493 692 q 506 712 496 701 q 536 722 517 722 l 615 722 q 645 712 635 722 q 658 692 656 701 l 793 265 l 919 694 q 931 713 921 703 q 958 722 942 722 l 1081 722 q 1102 713 1093 722 q 1111 692 1111 704 q 1110 678 1111 685 l 910 35 q 895 10 906 19 q 865 0 885 0 l 758 0 q 728 10 739 0 q 711 35 717 19 l 576 446 l 439 35 q 424 10 435 19 q 393 0 413 0 l 286 0 m 353 826 q 332 846 332 826 q 343 868 332 857 l 482 1013 q 506 1032 496 1028 q 531 1036 517 1036 l 622 1036 q 645 1032 635 1036 q 669 1013 656 1028 l 808 868 q 821 846 821 857 q 800 826 821 826 l 742 826 q 718 828 731 826 q 696 836 706 831 l 576 907 l 457 836 q 435 828 447 831 q 411 826 422 826 l 353 826 z "},"ẅ":{"ha":1151,"x_min":39,"x_max":1111,"o":"m 286 0 q 256 10 267 0 q 240 35 246 19 l 42 678 q 39 692 39 685 q 48 713 39 704 q 69 722 57 722 l 192 722 q 219 713 210 722 q 232 694 229 703 l 358 265 l 493 692 q 506 712 496 701 q 536 722 517 722 l 615 722 q 645 712 635 722 q 658 692 656 701 l 793 265 l 919 694 q 931 713 921 703 q 958 722 942 722 l 1081 722 q 1102 713 1093 722 q 1111 692 1111 704 q 1110 678 1111 685 l 910 35 q 895 10 906 19 q 865 0 885 0 l 758 0 q 728 10 739 0 q 711 35 717 19 l 576 446 l 439 35 q 424 10 435 19 q 393 0 413 0 l 286 0 m 654 849 q 632 857 640 849 q 624 879 624 865 l 624 993 q 632 1016 624 1007 q 654 1025 640 1025 l 768 1025 q 791 1016 782 1025 q 800 993 800 1007 l 800 879 q 791 857 800 865 q 768 849 782 849 l 654 849 m 381 849 q 358 857 367 849 q 350 879 350 865 l 350 993 q 358 1016 350 1007 q 381 1025 367 1025 l 494 1025 q 517 1016 508 1025 q 526 993 526 1007 l 526 879 q 517 857 526 865 q 494 849 508 849 l 381 849 z "},"ẁ":{"ha":1151,"x_min":39,"x_max":1111,"o":"m 286 0 q 256 10 267 0 q 240 35 246 19 l 42 678 q 39 692 39 685 q 48 713 39 704 q 69 722 57 722 l 192 722 q 219 713 210 722 q 232 694 229 703 l 358 265 l 493 692 q 506 712 496 701 q 536 722 517 722 l 615 722 q 645 712 635 722 q 658 692 656 701 l 793 265 l 919 694 q 931 713 921 703 q 958 722 942 722 l 1081 722 q 1102 713 1093 722 q 1111 692 1111 704 q 1110 678 1111 685 l 910 35 q 895 10 906 19 q 865 0 885 0 l 758 0 q 728 10 739 0 q 711 35 717 19 l 576 446 l 439 35 q 424 10 435 19 q 393 0 413 0 l 286 0 m 547 826 q 519 831 529 826 q 497 846 508 836 l 318 992 q 311 1008 311 999 q 338 1036 311 1036 l 499 1036 q 526 1031 517 1036 q 550 1010 536 1026 l 667 867 q 674 849 674 860 q 651 826 674 826 l 547 826 z "},"x":{"ha":799,"x_min":26,"x_max":772,"o":"m 57 0 q 35 9 44 0 q 26 31 26 18 q 28 41 26 35 q 35 53 31 47 l 269 371 l 54 669 q 48 681 50 675 q 46 692 46 686 q 55 713 46 704 q 76 722 64 722 l 221 722 q 247 714 238 722 q 260 699 256 706 l 403 504 l 546 697 q 560 713 551 704 q 586 722 568 722 l 724 722 q 745 713 736 722 q 754 692 754 704 q 753 681 754 686 q 746 669 751 675 l 526 369 l 764 53 q 770 42 768 47 q 772 31 772 36 q 763 9 772 18 q 742 0 754 0 l 590 0 q 567 8 575 0 q 553 22 558 15 l 399 228 l 242 22 q 229 8 238 17 q 204 0 221 0 l 57 0 z "},"y":{"ha":813,"x_min":33,"x_max":789,"o":"m 219 -264 q 199 -256 208 -264 q 190 -235 190 -247 q 192 -227 190 -232 q 196 -215 193 -222 l 304 44 l 38 674 q 33 692 33 685 q 43 713 35 704 q 64 722 51 722 l 199 722 q 225 713 217 722 q 238 694 233 704 l 410 264 l 586 694 q 600 714 592 706 q 626 722 608 722 l 758 722 q 780 713 771 722 q 789 693 789 704 q 783 674 789 686 l 390 -236 q 377 -256 386 -247 q 350 -264 368 -264 l 219 -264 z "},"ý":{"ha":813,"x_min":33,"x_max":789,"o":"m 219 -264 q 199 -256 208 -264 q 190 -235 190 -247 q 192 -227 190 -232 q 196 -215 193 -222 l 304 44 l 38 674 q 33 692 33 685 q 43 713 35 704 q 64 722 51 722 l 199 722 q 225 713 217 722 q 238 694 233 704 l 410 264 l 586 694 q 600 714 592 706 q 626 722 608 722 l 758 722 q 780 713 771 722 q 789 693 789 704 q 783 674 789 686 l 390 -236 q 377 -256 386 -247 q 350 -264 368 -264 l 219 -264 m 338 826 q 315 849 315 826 q 322 867 315 860 l 440 1010 q 463 1031 453 1026 q 492 1036 474 1036 l 651 1036 q 678 1008 678 1036 q 671 992 678 999 l 492 846 q 470 831 481 836 q 442 826 460 826 l 338 826 z "},"ŷ":{"ha":813,"x_min":33,"x_max":789,"o":"m 219 -264 q 199 -256 208 -264 q 190 -235 190 -247 q 192 -227 190 -232 q 196 -215 193 -222 l 304 44 l 38 674 q 33 692 33 685 q 43 713 35 704 q 64 722 51 722 l 199 722 q 225 713 217 722 q 238 694 233 704 l 410 264 l 586 694 q 600 714 592 706 q 626 722 608 722 l 758 722 q 780 713 771 722 q 789 693 789 704 q 783 674 789 686 l 390 -236 q 377 -256 386 -247 q 350 -264 368 -264 l 219 -264 m 185 826 q 164 846 164 826 q 175 868 164 857 l 314 1013 q 338 1032 328 1028 q 363 1036 349 1036 l 454 1036 q 477 1032 467 1036 q 501 1013 488 1028 l 640 868 q 653 846 653 857 q 632 826 653 826 l 574 826 q 550 828 563 826 q 528 836 538 831 l 408 907 l 289 836 q 267 828 279 831 q 243 826 254 826 l 185 826 z "},"ÿ":{"ha":813,"x_min":33,"x_max":789,"o":"m 219 -264 q 199 -256 208 -264 q 190 -235 190 -247 q 192 -227 190 -232 q 196 -215 193 -222 l 304 44 l 38 674 q 33 692 33 685 q 43 713 35 704 q 64 722 51 722 l 199 722 q 225 713 217 722 q 238 694 233 704 l 410 264 l 586 694 q 600 714 592 706 q 626 722 608 722 l 758 722 q 780 713 771 722 q 789 693 789 704 q 783 674 789 686 l 390 -236 q 377 -256 386 -247 q 350 -264 368 -264 l 219 -264 m 486 849 q 464 857 472 849 q 456 879 456 865 l 456 993 q 464 1016 456 1007 q 486 1025 472 1025 l 600 1025 q 623 1016 614 1025 q 632 993 632 1007 l 632 879 q 623 857 632 865 q 600 849 614 849 l 486 849 m 213 849 q 190 857 199 849 q 182 879 182 865 l 182 993 q 190 1016 182 1007 q 213 1025 199 1025 l 326 1025 q 349 1016 340 1025 q 358 993 358 1007 l 358 879 q 349 857 358 865 q 326 849 340 849 l 213 849 z "},"ỳ":{"ha":813,"x_min":33,"x_max":789,"o":"m 219 -264 q 199 -256 208 -264 q 190 -235 190 -247 q 192 -227 190 -232 q 196 -215 193 -222 l 304 44 l 38 674 q 33 692 33 685 q 43 713 35 704 q 64 722 51 722 l 199 722 q 225 713 217 722 q 238 694 233 704 l 410 264 l 586 694 q 600 714 592 706 q 626 722 608 722 l 758 722 q 780 713 771 722 q 789 693 789 704 q 783 674 789 686 l 390 -236 q 377 -256 386 -247 q 350 -264 368 -264 l 219 -264 m 378 826 q 349 831 360 826 q 328 846 339 836 l 149 992 q 142 1008 142 999 q 168 1036 142 1036 l 329 1036 q 357 1031 347 1036 q 381 1010 367 1026 l 497 867 q 504 849 504 860 q 482 826 504 826 l 378 826 z "},"z":{"ha":751,"x_min":54,"x_max":704,"o":"m 88 0 q 64 10 74 0 q 54 35 54 19 l 54 128 q 60 153 54 142 q 75 174 67 164 l 415 561 l 100 561 q 75 571 85 561 q 65 594 65 581 l 65 688 q 75 713 65 703 q 100 722 85 722 l 642 722 q 667 713 657 722 q 676 688 676 703 l 676 588 q 671 565 676 575 q 657 546 665 556 l 324 161 l 671 161 q 694 151 685 161 q 704 128 704 142 l 704 35 q 694 10 704 19 q 671 0 685 0 l 88 0 z "},"ź":{"ha":751,"x_min":54,"x_max":704,"o":"m 88 0 q 64 10 74 0 q 54 35 54 19 l 54 128 q 60 153 54 142 q 75 174 67 164 l 415 561 l 100 561 q 75 571 85 561 q 65 594 65 581 l 65 688 q 75 713 65 703 q 100 722 85 722 l 642 722 q 667 713 657 722 q 676 688 676 703 l 676 588 q 671 565 676 575 q 657 546 665 556 l 324 161 l 671 161 q 694 151 685 161 q 704 128 704 142 l 704 35 q 694 10 704 19 q 671 0 685 0 l 88 0 m 308 826 q 286 849 286 826 q 293 867 286 860 l 411 1010 q 434 1031 424 1026 q 463 1036 444 1036 l 622 1036 q 649 1008 649 1036 q 642 992 649 999 l 463 846 q 441 831 451 836 q 413 826 431 826 l 308 826 z "},"ž":{"ha":751,"x_min":54,"x_max":704,"o":"m 88 0 q 64 10 74 0 q 54 35 54 19 l 54 128 q 60 153 54 142 q 75 174 67 164 l 415 561 l 100 561 q 75 571 85 561 q 65 594 65 581 l 65 688 q 75 713 65 703 q 100 722 85 722 l 642 722 q 667 713 657 722 q 676 688 676 703 l 676 588 q 671 565 676 575 q 657 546 665 556 l 324 161 l 671 161 q 694 151 685 161 q 704 128 704 142 l 704 35 q 694 10 704 19 q 671 0 685 0 l 88 0 m 332 826 q 308 831 318 826 q 283 850 297 836 l 144 994 q 133 1017 133 1006 q 154 1036 133 1036 l 213 1036 q 236 1034 224 1036 q 258 1026 249 1032 l 378 956 l 497 1026 q 519 1034 507 1032 q 543 1036 532 1036 l 601 1036 q 622 1017 622 1036 q 610 994 622 1006 l 471 850 q 447 831 457 836 q 424 826 436 826 l 332 826 z "},"ż":{"ha":751,"x_min":54,"x_max":704,"o":"m 88 0 q 64 10 74 0 q 54 35 54 19 l 54 128 q 60 153 54 142 q 75 174 67 164 l 415 561 l 100 561 q 75 571 85 561 q 65 594 65 581 l 65 688 q 75 713 65 703 q 100 722 85 722 l 642 722 q 667 713 657 722 q 676 688 676 703 l 676 588 q 671 565 676 575 q 657 546 665 556 l 324 161 l 671 161 q 694 151 685 161 q 704 128 704 142 l 704 35 q 694 10 704 19 q 671 0 685 0 l 88 0 m 313 842 q 290 850 299 842 q 282 872 282 858 l 282 999 q 290 1022 282 1013 q 313 1031 299 1031 l 439 1031 q 462 1022 453 1031 q 471 999 471 1013 l 471 872 q 462 850 471 858 q 439 842 453 842 l 313 842 z "},"ﬁ":{"ha":894,"x_min":24,"x_max":807,"o":"m 201 0 q 176 10 186 0 q 167 35 167 19 l 167 558 l 58 558 q 33 568 43 558 q 24 593 24 578 l 24 688 q 33 713 24 703 q 58 722 43 722 l 167 722 l 167 772 q 200 918 167 861 q 297 1001 233 975 q 454 1028 361 1028 l 774 1028 q 797 1018 788 1028 q 807 993 807 1008 l 807 899 q 797 874 807 883 q 774 864 788 864 l 463 864 q 391 839 411 864 q 371 765 371 814 l 371 722 l 774 722 q 797 713 788 722 q 807 688 807 703 l 807 35 q 797 10 807 19 q 774 0 788 0 l 638 0 q 613 10 622 0 q 603 35 603 19 l 603 558 l 371 558 l 371 35 q 361 10 371 19 q 338 0 351 0 l 201 0 z "}}}
